%TF.GenerationSoftware,KiCad,Pcbnew,10.0.3*%
%TF.CreationDate,2026-06-02T02:50:55-06:00*%
%TF.ProjectId,asda,61736461-2e6b-4696-9361-645f70636258,rev?*%
%TF.SameCoordinates,Original*%
%TF.FileFunction,Soldermask,Bot*%
%TF.FilePolarity,Negative*%
%FSLAX46Y46*%
G04 Gerber Fmt 4.6, Leading zero omitted, Abs format (unit mm)*
G04 Created by KiCad (PCBNEW 10.0.3) date 2026-06-02 02:50:55*
%MOMM*%
%LPD*%
G01*
G04 APERTURE LIST*
%ADD10O,1.700000X1.700000*%
%ADD11R,1.700000X1.700000*%
%ADD12C,3.200000*%
%ADD13C,2.184000*%
%ADD14R,1.800000X1.800000*%
%ADD15C,1.800000*%
%ADD16C,2.000000*%
%ADD17C,1.600000*%
%ADD18C,1.700000*%
%ADD19C,1.651000*%
G04 APERTURE END LIST*
D10*
%TO.C,J2*%
X103880000Y-95000000D03*
X106420000Y-95000000D03*
X108960000Y-95000000D03*
X111500000Y-95000000D03*
X114040000Y-95000000D03*
X116580000Y-95000000D03*
X119120000Y-95000000D03*
X121660000Y-95000000D03*
X124200000Y-95000000D03*
X126740000Y-95000000D03*
X129280000Y-95000000D03*
X131820000Y-95000000D03*
X134360000Y-95000000D03*
X136900000Y-95000000D03*
D11*
X139440000Y-95000000D03*
%TD*%
D12*
%TO.C,H5*%
X91000000Y-117000000D03*
%TD*%
D13*
%TO.C,U2*%
X129500000Y-117780000D03*
X129500000Y-115240000D03*
X129500000Y-112700000D03*
X129500000Y-110160000D03*
X129500000Y-107620000D03*
X129500000Y-105080000D03*
X129500000Y-102540000D03*
X129500000Y-100000000D03*
X114260000Y-100000000D03*
X114260000Y-102540000D03*
X114260000Y-105080000D03*
X114260000Y-107620000D03*
X114260000Y-110160000D03*
X114260000Y-112700000D03*
X114260000Y-115240000D03*
X114260000Y-117780000D03*
%TD*%
D14*
%TO.C,D1*%
X91500000Y-74000000D03*
D15*
X94040000Y-74000000D03*
%TD*%
D14*
%TO.C,D2*%
X91500000Y-80500000D03*
D15*
X94040000Y-80500000D03*
%TD*%
D16*
%TO.C,SW1*%
X97500000Y-90000000D03*
X91000000Y-90000000D03*
X97500000Y-85500000D03*
X91000000Y-85500000D03*
%TD*%
D17*
%TO.C,R1*%
X147500000Y-81380000D03*
X147500000Y-89000000D03*
%TD*%
D11*
%TO.C,M2*%
X98540000Y-94500000D03*
D18*
X96000000Y-94500000D03*
%TD*%
D11*
%TO.C,M1*%
X151000000Y-95000000D03*
D18*
X148460000Y-95000000D03*
%TD*%
D11*
%TO.C,J5*%
X154500000Y-81500000D03*
D18*
X154500000Y-84040000D03*
X154500000Y-86580000D03*
%TD*%
D11*
%TO.C,J4*%
X151960000Y-75500000D03*
D18*
X154500000Y-75500000D03*
%TD*%
D11*
%TO.C,J3*%
X136200000Y-74000000D03*
D18*
X133660000Y-74000000D03*
X131120000Y-74000000D03*
X128580000Y-74000000D03*
X126040000Y-74000000D03*
X123500000Y-74000000D03*
X120960000Y-74000000D03*
X118420000Y-74000000D03*
X115880000Y-74000000D03*
X113340000Y-74000000D03*
X110800000Y-74000000D03*
%TD*%
D19*
%TO.C,MH2*%
X101270000Y-83490000D03*
%TD*%
%TO.C,MH4*%
X141910000Y-98730000D03*
%TD*%
%TO.C,MH1*%
X101270000Y-98730000D03*
%TD*%
%TO.C,MH3*%
X141910000Y-83490000D03*
%TD*%
D10*
%TO.C,J1*%
X103880000Y-79760000D03*
X106420000Y-79760000D03*
X108960000Y-79760000D03*
X111500000Y-79760000D03*
X114040000Y-79760000D03*
X116580000Y-79760000D03*
X119120000Y-79760000D03*
X121660000Y-79760000D03*
X124200000Y-79760000D03*
X126740000Y-79760000D03*
X129280000Y-79760000D03*
X131820000Y-79760000D03*
X134360000Y-79760000D03*
X136900000Y-79760000D03*
D11*
X139440000Y-79760000D03*
%TD*%
D12*
%TO.C,H3*%
X156000000Y-99000000D03*
%TD*%
%TO.C,H4*%
X156000000Y-117000000D03*
%TD*%
%TO.C,H6*%
X91000000Y-99000000D03*
%TD*%
%TO.C,H2*%
X143500000Y-74000000D03*
%TD*%
%TO.C,H1*%
X103500000Y-74000000D03*
%TD*%
M02*
