%TF.GenerationSoftware,KiCad,Pcbnew,10.0.3*%
%TF.CreationDate,2026-06-02T02:50:55-06:00*%
%TF.ProjectId,asda,61736461-2e6b-4696-9361-645f70636258,rev?*%
%TF.SameCoordinates,Original*%
%TF.FileFunction,Legend,Top*%
%TF.FilePolarity,Positive*%
%FSLAX46Y46*%
G04 Gerber Fmt 4.6, Leading zero omitted, Abs format (unit mm)*
G04 Created by KiCad (PCBNEW 10.0.3) date 2026-06-02 02:50:55*
%MOMM*%
%LPD*%
G01*
G04 APERTURE LIST*
%ADD10C,0.125000*%
%ADD11C,0.150000*%
%ADD12C,0.127000*%
%ADD13C,0.200000*%
%ADD14C,0.120000*%
G04 APERTURE END LIST*
D10*
X138010807Y-118126357D02*
X137010807Y-116697785D01*
X136296521Y-118126357D02*
X136296521Y-115126357D01*
X136296521Y-115126357D02*
X137439378Y-115126357D01*
X137439378Y-115126357D02*
X137725093Y-115269214D01*
X137725093Y-115269214D02*
X137867950Y-115412071D01*
X137867950Y-115412071D02*
X138010807Y-115697785D01*
X138010807Y-115697785D02*
X138010807Y-116126357D01*
X138010807Y-116126357D02*
X137867950Y-116412071D01*
X137867950Y-116412071D02*
X137725093Y-116554928D01*
X137725093Y-116554928D02*
X137439378Y-116697785D01*
X137439378Y-116697785D02*
X136296521Y-116697785D01*
X139296521Y-115126357D02*
X139296521Y-117554928D01*
X139296521Y-117554928D02*
X139439378Y-117840642D01*
X139439378Y-117840642D02*
X139582236Y-117983500D01*
X139582236Y-117983500D02*
X139867950Y-118126357D01*
X139867950Y-118126357D02*
X140439378Y-118126357D01*
X140439378Y-118126357D02*
X140725093Y-117983500D01*
X140725093Y-117983500D02*
X140867950Y-117840642D01*
X140867950Y-117840642D02*
X141010807Y-117554928D01*
X141010807Y-117554928D02*
X141010807Y-115126357D01*
X144153664Y-118126357D02*
X143153664Y-116697785D01*
X142439378Y-118126357D02*
X142439378Y-115126357D01*
X142439378Y-115126357D02*
X143582235Y-115126357D01*
X143582235Y-115126357D02*
X143867950Y-115269214D01*
X143867950Y-115269214D02*
X144010807Y-115412071D01*
X144010807Y-115412071D02*
X144153664Y-115697785D01*
X144153664Y-115697785D02*
X144153664Y-116126357D01*
X144153664Y-116126357D02*
X144010807Y-116412071D01*
X144010807Y-116412071D02*
X143867950Y-116554928D01*
X143867950Y-116554928D02*
X143582235Y-116697785D01*
X143582235Y-116697785D02*
X142439378Y-116697785D01*
X145296521Y-117983500D02*
X145725093Y-118126357D01*
X145725093Y-118126357D02*
X146439378Y-118126357D01*
X146439378Y-118126357D02*
X146725093Y-117983500D01*
X146725093Y-117983500D02*
X146867950Y-117840642D01*
X146867950Y-117840642D02*
X147010807Y-117554928D01*
X147010807Y-117554928D02*
X147010807Y-117269214D01*
X147010807Y-117269214D02*
X146867950Y-116983500D01*
X146867950Y-116983500D02*
X146725093Y-116840642D01*
X146725093Y-116840642D02*
X146439378Y-116697785D01*
X146439378Y-116697785D02*
X145867950Y-116554928D01*
X145867950Y-116554928D02*
X145582235Y-116412071D01*
X145582235Y-116412071D02*
X145439378Y-116269214D01*
X145439378Y-116269214D02*
X145296521Y-115983500D01*
X145296521Y-115983500D02*
X145296521Y-115697785D01*
X145296521Y-115697785D02*
X145439378Y-115412071D01*
X145439378Y-115412071D02*
X145582235Y-115269214D01*
X145582235Y-115269214D02*
X145867950Y-115126357D01*
X145867950Y-115126357D02*
X146582235Y-115126357D01*
X146582235Y-115126357D02*
X147010807Y-115269214D01*
D11*
X136336779Y-118869819D02*
X136336779Y-119679342D01*
X136336779Y-119679342D02*
X136384398Y-119774580D01*
X136384398Y-119774580D02*
X136432017Y-119822200D01*
X136432017Y-119822200D02*
X136527255Y-119869819D01*
X136527255Y-119869819D02*
X136717731Y-119869819D01*
X136717731Y-119869819D02*
X136812969Y-119822200D01*
X136812969Y-119822200D02*
X136860588Y-119774580D01*
X136860588Y-119774580D02*
X136908207Y-119679342D01*
X136908207Y-119679342D02*
X136908207Y-118869819D01*
X137384398Y-119203152D02*
X137384398Y-119869819D01*
X137384398Y-119298390D02*
X137432017Y-119250771D01*
X137432017Y-119250771D02*
X137527255Y-119203152D01*
X137527255Y-119203152D02*
X137670112Y-119203152D01*
X137670112Y-119203152D02*
X137765350Y-119250771D01*
X137765350Y-119250771D02*
X137812969Y-119346009D01*
X137812969Y-119346009D02*
X137812969Y-119869819D01*
X138289160Y-119869819D02*
X138289160Y-119203152D01*
X138289160Y-118869819D02*
X138241541Y-118917438D01*
X138241541Y-118917438D02*
X138289160Y-118965057D01*
X138289160Y-118965057D02*
X138336779Y-118917438D01*
X138336779Y-118917438D02*
X138289160Y-118869819D01*
X138289160Y-118869819D02*
X138289160Y-118965057D01*
X138765350Y-119203152D02*
X138765350Y-120203152D01*
X138765350Y-119250771D02*
X138860588Y-119203152D01*
X138860588Y-119203152D02*
X139051064Y-119203152D01*
X139051064Y-119203152D02*
X139146302Y-119250771D01*
X139146302Y-119250771D02*
X139193921Y-119298390D01*
X139193921Y-119298390D02*
X139241540Y-119393628D01*
X139241540Y-119393628D02*
X139241540Y-119679342D01*
X139241540Y-119679342D02*
X139193921Y-119774580D01*
X139193921Y-119774580D02*
X139146302Y-119822200D01*
X139146302Y-119822200D02*
X139051064Y-119869819D01*
X139051064Y-119869819D02*
X138860588Y-119869819D01*
X138860588Y-119869819D02*
X138765350Y-119822200D01*
X139812969Y-119869819D02*
X139717731Y-119822200D01*
X139717731Y-119822200D02*
X139670112Y-119774580D01*
X139670112Y-119774580D02*
X139622493Y-119679342D01*
X139622493Y-119679342D02*
X139622493Y-119393628D01*
X139622493Y-119393628D02*
X139670112Y-119298390D01*
X139670112Y-119298390D02*
X139717731Y-119250771D01*
X139717731Y-119250771D02*
X139812969Y-119203152D01*
X139812969Y-119203152D02*
X139955826Y-119203152D01*
X139955826Y-119203152D02*
X140051064Y-119250771D01*
X140051064Y-119250771D02*
X140098683Y-119298390D01*
X140098683Y-119298390D02*
X140146302Y-119393628D01*
X140146302Y-119393628D02*
X140146302Y-119679342D01*
X140146302Y-119679342D02*
X140098683Y-119774580D01*
X140098683Y-119774580D02*
X140051064Y-119822200D01*
X140051064Y-119822200D02*
X139955826Y-119869819D01*
X139955826Y-119869819D02*
X139812969Y-119869819D01*
X140717731Y-119869819D02*
X140622493Y-119822200D01*
X140622493Y-119822200D02*
X140574874Y-119726961D01*
X140574874Y-119726961D02*
X140574874Y-118869819D01*
X141098684Y-119869819D02*
X141098684Y-119203152D01*
X141098684Y-118869819D02*
X141051065Y-118917438D01*
X141051065Y-118917438D02*
X141098684Y-118965057D01*
X141098684Y-118965057D02*
X141146303Y-118917438D01*
X141146303Y-118917438D02*
X141098684Y-118869819D01*
X141098684Y-118869819D02*
X141098684Y-118965057D01*
X142812969Y-119869819D02*
X142336779Y-119869819D01*
X142336779Y-119869819D02*
X142336779Y-118869819D01*
X143146303Y-119869819D02*
X143146303Y-119203152D01*
X143146303Y-118869819D02*
X143098684Y-118917438D01*
X143098684Y-118917438D02*
X143146303Y-118965057D01*
X143146303Y-118965057D02*
X143193922Y-118917438D01*
X143193922Y-118917438D02*
X143146303Y-118869819D01*
X143146303Y-118869819D02*
X143146303Y-118965057D01*
X143622493Y-119203152D02*
X143622493Y-119869819D01*
X143622493Y-119298390D02*
X143670112Y-119250771D01*
X143670112Y-119250771D02*
X143765350Y-119203152D01*
X143765350Y-119203152D02*
X143908207Y-119203152D01*
X143908207Y-119203152D02*
X144003445Y-119250771D01*
X144003445Y-119250771D02*
X144051064Y-119346009D01*
X144051064Y-119346009D02*
X144051064Y-119869819D01*
X144908207Y-119822200D02*
X144812969Y-119869819D01*
X144812969Y-119869819D02*
X144622493Y-119869819D01*
X144622493Y-119869819D02*
X144527255Y-119822200D01*
X144527255Y-119822200D02*
X144479636Y-119726961D01*
X144479636Y-119726961D02*
X144479636Y-119346009D01*
X144479636Y-119346009D02*
X144527255Y-119250771D01*
X144527255Y-119250771D02*
X144622493Y-119203152D01*
X144622493Y-119203152D02*
X144812969Y-119203152D01*
X144812969Y-119203152D02*
X144908207Y-119250771D01*
X144908207Y-119250771D02*
X144955826Y-119346009D01*
X144955826Y-119346009D02*
X144955826Y-119441247D01*
X144955826Y-119441247D02*
X144479636Y-119536485D01*
X146479636Y-119346009D02*
X146146303Y-119346009D01*
X146146303Y-119869819D02*
X146146303Y-118869819D01*
X146146303Y-118869819D02*
X146622493Y-118869819D01*
X147146303Y-119869819D02*
X147051065Y-119822200D01*
X147051065Y-119822200D02*
X147003446Y-119774580D01*
X147003446Y-119774580D02*
X146955827Y-119679342D01*
X146955827Y-119679342D02*
X146955827Y-119393628D01*
X146955827Y-119393628D02*
X147003446Y-119298390D01*
X147003446Y-119298390D02*
X147051065Y-119250771D01*
X147051065Y-119250771D02*
X147146303Y-119203152D01*
X147146303Y-119203152D02*
X147289160Y-119203152D01*
X147289160Y-119203152D02*
X147384398Y-119250771D01*
X147384398Y-119250771D02*
X147432017Y-119298390D01*
X147432017Y-119298390D02*
X147479636Y-119393628D01*
X147479636Y-119393628D02*
X147479636Y-119679342D01*
X147479636Y-119679342D02*
X147432017Y-119774580D01*
X147432017Y-119774580D02*
X147384398Y-119822200D01*
X147384398Y-119822200D02*
X147289160Y-119869819D01*
X147289160Y-119869819D02*
X147146303Y-119869819D01*
X148051065Y-119869819D02*
X147955827Y-119822200D01*
X147955827Y-119822200D02*
X147908208Y-119726961D01*
X147908208Y-119726961D02*
X147908208Y-118869819D01*
X148574875Y-119869819D02*
X148479637Y-119822200D01*
X148479637Y-119822200D02*
X148432018Y-119726961D01*
X148432018Y-119726961D02*
X148432018Y-118869819D01*
X149098685Y-119869819D02*
X149003447Y-119822200D01*
X149003447Y-119822200D02*
X148955828Y-119774580D01*
X148955828Y-119774580D02*
X148908209Y-119679342D01*
X148908209Y-119679342D02*
X148908209Y-119393628D01*
X148908209Y-119393628D02*
X148955828Y-119298390D01*
X148955828Y-119298390D02*
X149003447Y-119250771D01*
X149003447Y-119250771D02*
X149098685Y-119203152D01*
X149098685Y-119203152D02*
X149241542Y-119203152D01*
X149241542Y-119203152D02*
X149336780Y-119250771D01*
X149336780Y-119250771D02*
X149384399Y-119298390D01*
X149384399Y-119298390D02*
X149432018Y-119393628D01*
X149432018Y-119393628D02*
X149432018Y-119679342D01*
X149432018Y-119679342D02*
X149384399Y-119774580D01*
X149384399Y-119774580D02*
X149336780Y-119822200D01*
X149336780Y-119822200D02*
X149241542Y-119869819D01*
X149241542Y-119869819D02*
X149098685Y-119869819D01*
X149765352Y-119203152D02*
X149955828Y-119869819D01*
X149955828Y-119869819D02*
X150146304Y-119393628D01*
X150146304Y-119393628D02*
X150336780Y-119869819D01*
X150336780Y-119869819D02*
X150527256Y-119203152D01*
X151289161Y-119822200D02*
X151193923Y-119869819D01*
X151193923Y-119869819D02*
X151003447Y-119869819D01*
X151003447Y-119869819D02*
X150908209Y-119822200D01*
X150908209Y-119822200D02*
X150860590Y-119726961D01*
X150860590Y-119726961D02*
X150860590Y-119346009D01*
X150860590Y-119346009D02*
X150908209Y-119250771D01*
X150908209Y-119250771D02*
X151003447Y-119203152D01*
X151003447Y-119203152D02*
X151193923Y-119203152D01*
X151193923Y-119203152D02*
X151289161Y-119250771D01*
X151289161Y-119250771D02*
X151336780Y-119346009D01*
X151336780Y-119346009D02*
X151336780Y-119441247D01*
X151336780Y-119441247D02*
X150860590Y-119536485D01*
X151765352Y-119869819D02*
X151765352Y-119203152D01*
X151765352Y-119393628D02*
X151812971Y-119298390D01*
X151812971Y-119298390D02*
X151860590Y-119250771D01*
X151860590Y-119250771D02*
X151955828Y-119203152D01*
X151955828Y-119203152D02*
X152051066Y-119203152D01*
X152336781Y-119822200D02*
X152432019Y-119869819D01*
X152432019Y-119869819D02*
X152622495Y-119869819D01*
X152622495Y-119869819D02*
X152717733Y-119822200D01*
X152717733Y-119822200D02*
X152765352Y-119726961D01*
X152765352Y-119726961D02*
X152765352Y-119679342D01*
X152765352Y-119679342D02*
X152717733Y-119584104D01*
X152717733Y-119584104D02*
X152622495Y-119536485D01*
X152622495Y-119536485D02*
X152479638Y-119536485D01*
X152479638Y-119536485D02*
X152384400Y-119488866D01*
X152384400Y-119488866D02*
X152336781Y-119393628D01*
X152336781Y-119393628D02*
X152336781Y-119346009D01*
X152336781Y-119346009D02*
X152384400Y-119250771D01*
X152384400Y-119250771D02*
X152479638Y-119203152D01*
X152479638Y-119203152D02*
X152622495Y-119203152D01*
X152622495Y-119203152D02*
X152717733Y-119250771D01*
X90238095Y-113304819D02*
X90238095Y-112304819D01*
X90238095Y-112781009D02*
X90809523Y-112781009D01*
X90809523Y-113304819D02*
X90809523Y-112304819D01*
X91761904Y-112304819D02*
X91285714Y-112304819D01*
X91285714Y-112304819D02*
X91238095Y-112781009D01*
X91238095Y-112781009D02*
X91285714Y-112733390D01*
X91285714Y-112733390D02*
X91380952Y-112685771D01*
X91380952Y-112685771D02*
X91619047Y-112685771D01*
X91619047Y-112685771D02*
X91714285Y-112733390D01*
X91714285Y-112733390D02*
X91761904Y-112781009D01*
X91761904Y-112781009D02*
X91809523Y-112876247D01*
X91809523Y-112876247D02*
X91809523Y-113114342D01*
X91809523Y-113114342D02*
X91761904Y-113209580D01*
X91761904Y-113209580D02*
X91714285Y-113257200D01*
X91714285Y-113257200D02*
X91619047Y-113304819D01*
X91619047Y-113304819D02*
X91380952Y-113304819D01*
X91380952Y-113304819D02*
X91285714Y-113257200D01*
X91285714Y-113257200D02*
X91238095Y-113209580D01*
X121454819Y-109541904D02*
X122264342Y-109541904D01*
X122264342Y-109541904D02*
X122359580Y-109494285D01*
X122359580Y-109494285D02*
X122407200Y-109446666D01*
X122407200Y-109446666D02*
X122454819Y-109351428D01*
X122454819Y-109351428D02*
X122454819Y-109160952D01*
X122454819Y-109160952D02*
X122407200Y-109065714D01*
X122407200Y-109065714D02*
X122359580Y-109018095D01*
X122359580Y-109018095D02*
X122264342Y-108970476D01*
X122264342Y-108970476D02*
X121454819Y-108970476D01*
X121550057Y-108541904D02*
X121502438Y-108494285D01*
X121502438Y-108494285D02*
X121454819Y-108399047D01*
X121454819Y-108399047D02*
X121454819Y-108160952D01*
X121454819Y-108160952D02*
X121502438Y-108065714D01*
X121502438Y-108065714D02*
X121550057Y-108018095D01*
X121550057Y-108018095D02*
X121645295Y-107970476D01*
X121645295Y-107970476D02*
X121740533Y-107970476D01*
X121740533Y-107970476D02*
X121883390Y-108018095D01*
X121883390Y-108018095D02*
X122454819Y-108589523D01*
X122454819Y-108589523D02*
X122454819Y-107970476D01*
X87761905Y-74454819D02*
X87761905Y-73454819D01*
X87761905Y-73454819D02*
X88000000Y-73454819D01*
X88000000Y-73454819D02*
X88142857Y-73502438D01*
X88142857Y-73502438D02*
X88238095Y-73597676D01*
X88238095Y-73597676D02*
X88285714Y-73692914D01*
X88285714Y-73692914D02*
X88333333Y-73883390D01*
X88333333Y-73883390D02*
X88333333Y-74026247D01*
X88333333Y-74026247D02*
X88285714Y-74216723D01*
X88285714Y-74216723D02*
X88238095Y-74311961D01*
X88238095Y-74311961D02*
X88142857Y-74407200D01*
X88142857Y-74407200D02*
X88000000Y-74454819D01*
X88000000Y-74454819D02*
X87761905Y-74454819D01*
X89285714Y-74454819D02*
X88714286Y-74454819D01*
X89000000Y-74454819D02*
X89000000Y-73454819D01*
X89000000Y-73454819D02*
X88904762Y-73597676D01*
X88904762Y-73597676D02*
X88809524Y-73692914D01*
X88809524Y-73692914D02*
X88714286Y-73740533D01*
X87761905Y-80954819D02*
X87761905Y-79954819D01*
X87761905Y-79954819D02*
X88000000Y-79954819D01*
X88000000Y-79954819D02*
X88142857Y-80002438D01*
X88142857Y-80002438D02*
X88238095Y-80097676D01*
X88238095Y-80097676D02*
X88285714Y-80192914D01*
X88285714Y-80192914D02*
X88333333Y-80383390D01*
X88333333Y-80383390D02*
X88333333Y-80526247D01*
X88333333Y-80526247D02*
X88285714Y-80716723D01*
X88285714Y-80716723D02*
X88238095Y-80811961D01*
X88238095Y-80811961D02*
X88142857Y-80907200D01*
X88142857Y-80907200D02*
X88000000Y-80954819D01*
X88000000Y-80954819D02*
X87761905Y-80954819D01*
X88714286Y-80050057D02*
X88761905Y-80002438D01*
X88761905Y-80002438D02*
X88857143Y-79954819D01*
X88857143Y-79954819D02*
X89095238Y-79954819D01*
X89095238Y-79954819D02*
X89190476Y-80002438D01*
X89190476Y-80002438D02*
X89238095Y-80050057D01*
X89238095Y-80050057D02*
X89285714Y-80145295D01*
X89285714Y-80145295D02*
X89285714Y-80240533D01*
X89285714Y-80240533D02*
X89238095Y-80383390D01*
X89238095Y-80383390D02*
X88666667Y-80954819D01*
X88666667Y-80954819D02*
X89285714Y-80954819D01*
X92916667Y-92407200D02*
X93059524Y-92454819D01*
X93059524Y-92454819D02*
X93297619Y-92454819D01*
X93297619Y-92454819D02*
X93392857Y-92407200D01*
X93392857Y-92407200D02*
X93440476Y-92359580D01*
X93440476Y-92359580D02*
X93488095Y-92264342D01*
X93488095Y-92264342D02*
X93488095Y-92169104D01*
X93488095Y-92169104D02*
X93440476Y-92073866D01*
X93440476Y-92073866D02*
X93392857Y-92026247D01*
X93392857Y-92026247D02*
X93297619Y-91978628D01*
X93297619Y-91978628D02*
X93107143Y-91931009D01*
X93107143Y-91931009D02*
X93011905Y-91883390D01*
X93011905Y-91883390D02*
X92964286Y-91835771D01*
X92964286Y-91835771D02*
X92916667Y-91740533D01*
X92916667Y-91740533D02*
X92916667Y-91645295D01*
X92916667Y-91645295D02*
X92964286Y-91550057D01*
X92964286Y-91550057D02*
X93011905Y-91502438D01*
X93011905Y-91502438D02*
X93107143Y-91454819D01*
X93107143Y-91454819D02*
X93345238Y-91454819D01*
X93345238Y-91454819D02*
X93488095Y-91502438D01*
X93821429Y-91454819D02*
X94059524Y-92454819D01*
X94059524Y-92454819D02*
X94250000Y-91740533D01*
X94250000Y-91740533D02*
X94440476Y-92454819D01*
X94440476Y-92454819D02*
X94678572Y-91454819D01*
X95583333Y-92454819D02*
X95011905Y-92454819D01*
X95297619Y-92454819D02*
X95297619Y-91454819D01*
X95297619Y-91454819D02*
X95202381Y-91597676D01*
X95202381Y-91597676D02*
X95107143Y-91692914D01*
X95107143Y-91692914D02*
X95011905Y-91740533D01*
X150324819Y-85356666D02*
X149848628Y-85689999D01*
X150324819Y-85928094D02*
X149324819Y-85928094D01*
X149324819Y-85928094D02*
X149324819Y-85547142D01*
X149324819Y-85547142D02*
X149372438Y-85451904D01*
X149372438Y-85451904D02*
X149420057Y-85404285D01*
X149420057Y-85404285D02*
X149515295Y-85356666D01*
X149515295Y-85356666D02*
X149658152Y-85356666D01*
X149658152Y-85356666D02*
X149753390Y-85404285D01*
X149753390Y-85404285D02*
X149801009Y-85451904D01*
X149801009Y-85451904D02*
X149848628Y-85547142D01*
X149848628Y-85547142D02*
X149848628Y-85928094D01*
X150324819Y-84404285D02*
X150324819Y-84975713D01*
X150324819Y-84689999D02*
X149324819Y-84689999D01*
X149324819Y-84689999D02*
X149467676Y-84785237D01*
X149467676Y-84785237D02*
X149562914Y-84880475D01*
X149562914Y-84880475D02*
X149610533Y-84975713D01*
X101374819Y-95309523D02*
X100374819Y-95309523D01*
X100374819Y-95309523D02*
X101089104Y-94976190D01*
X101089104Y-94976190D02*
X100374819Y-94642857D01*
X100374819Y-94642857D02*
X101374819Y-94642857D01*
X100470057Y-94214285D02*
X100422438Y-94166666D01*
X100422438Y-94166666D02*
X100374819Y-94071428D01*
X100374819Y-94071428D02*
X100374819Y-93833333D01*
X100374819Y-93833333D02*
X100422438Y-93738095D01*
X100422438Y-93738095D02*
X100470057Y-93690476D01*
X100470057Y-93690476D02*
X100565295Y-93642857D01*
X100565295Y-93642857D02*
X100660533Y-93642857D01*
X100660533Y-93642857D02*
X100803390Y-93690476D01*
X100803390Y-93690476D02*
X101374819Y-94261904D01*
X101374819Y-94261904D02*
X101374819Y-93642857D01*
X153834819Y-95809523D02*
X152834819Y-95809523D01*
X152834819Y-95809523D02*
X153549104Y-95476190D01*
X153549104Y-95476190D02*
X152834819Y-95142857D01*
X152834819Y-95142857D02*
X153834819Y-95142857D01*
X153834819Y-94142857D02*
X153834819Y-94714285D01*
X153834819Y-94428571D02*
X152834819Y-94428571D01*
X152834819Y-94428571D02*
X152977676Y-94523809D01*
X152977676Y-94523809D02*
X153072914Y-94619047D01*
X153072914Y-94619047D02*
X153120533Y-94714285D01*
X154166666Y-78454819D02*
X154166666Y-79169104D01*
X154166666Y-79169104D02*
X154119047Y-79311961D01*
X154119047Y-79311961D02*
X154023809Y-79407200D01*
X154023809Y-79407200D02*
X153880952Y-79454819D01*
X153880952Y-79454819D02*
X153785714Y-79454819D01*
X155119047Y-78454819D02*
X154642857Y-78454819D01*
X154642857Y-78454819D02*
X154595238Y-78931009D01*
X154595238Y-78931009D02*
X154642857Y-78883390D01*
X154642857Y-78883390D02*
X154738095Y-78835771D01*
X154738095Y-78835771D02*
X154976190Y-78835771D01*
X154976190Y-78835771D02*
X155071428Y-78883390D01*
X155071428Y-78883390D02*
X155119047Y-78931009D01*
X155119047Y-78931009D02*
X155166666Y-79026247D01*
X155166666Y-79026247D02*
X155166666Y-79264342D01*
X155166666Y-79264342D02*
X155119047Y-79359580D01*
X155119047Y-79359580D02*
X155071428Y-79407200D01*
X155071428Y-79407200D02*
X154976190Y-79454819D01*
X154976190Y-79454819D02*
X154738095Y-79454819D01*
X154738095Y-79454819D02*
X154642857Y-79407200D01*
X154642857Y-79407200D02*
X154595238Y-79359580D01*
X149034819Y-75833333D02*
X149749104Y-75833333D01*
X149749104Y-75833333D02*
X149891961Y-75880952D01*
X149891961Y-75880952D02*
X149987200Y-75976190D01*
X149987200Y-75976190D02*
X150034819Y-76119047D01*
X150034819Y-76119047D02*
X150034819Y-76214285D01*
X149368152Y-74928571D02*
X150034819Y-74928571D01*
X148987200Y-75166666D02*
X149701485Y-75404761D01*
X149701485Y-75404761D02*
X149701485Y-74785714D01*
X138034819Y-74333333D02*
X138749104Y-74333333D01*
X138749104Y-74333333D02*
X138891961Y-74380952D01*
X138891961Y-74380952D02*
X138987200Y-74476190D01*
X138987200Y-74476190D02*
X139034819Y-74619047D01*
X139034819Y-74619047D02*
X139034819Y-74714285D01*
X138034819Y-73952380D02*
X138034819Y-73333333D01*
X138034819Y-73333333D02*
X138415771Y-73666666D01*
X138415771Y-73666666D02*
X138415771Y-73523809D01*
X138415771Y-73523809D02*
X138463390Y-73428571D01*
X138463390Y-73428571D02*
X138511009Y-73380952D01*
X138511009Y-73380952D02*
X138606247Y-73333333D01*
X138606247Y-73333333D02*
X138844342Y-73333333D01*
X138844342Y-73333333D02*
X138939580Y-73380952D01*
X138939580Y-73380952D02*
X138987200Y-73428571D01*
X138987200Y-73428571D02*
X139034819Y-73523809D01*
X139034819Y-73523809D02*
X139034819Y-73809523D01*
X139034819Y-73809523D02*
X138987200Y-73904761D01*
X138987200Y-73904761D02*
X138939580Y-73952380D01*
X155238095Y-95304819D02*
X155238095Y-94304819D01*
X155238095Y-94781009D02*
X155809523Y-94781009D01*
X155809523Y-95304819D02*
X155809523Y-94304819D01*
X156190476Y-94304819D02*
X156809523Y-94304819D01*
X156809523Y-94304819D02*
X156476190Y-94685771D01*
X156476190Y-94685771D02*
X156619047Y-94685771D01*
X156619047Y-94685771D02*
X156714285Y-94733390D01*
X156714285Y-94733390D02*
X156761904Y-94781009D01*
X156761904Y-94781009D02*
X156809523Y-94876247D01*
X156809523Y-94876247D02*
X156809523Y-95114342D01*
X156809523Y-95114342D02*
X156761904Y-95209580D01*
X156761904Y-95209580D02*
X156714285Y-95257200D01*
X156714285Y-95257200D02*
X156619047Y-95304819D01*
X156619047Y-95304819D02*
X156333333Y-95304819D01*
X156333333Y-95304819D02*
X156238095Y-95257200D01*
X156238095Y-95257200D02*
X156190476Y-95209580D01*
X155238095Y-113304819D02*
X155238095Y-112304819D01*
X155238095Y-112781009D02*
X155809523Y-112781009D01*
X155809523Y-113304819D02*
X155809523Y-112304819D01*
X156714285Y-112638152D02*
X156714285Y-113304819D01*
X156476190Y-112257200D02*
X156238095Y-112971485D01*
X156238095Y-112971485D02*
X156857142Y-112971485D01*
X90238095Y-95304819D02*
X90238095Y-94304819D01*
X90238095Y-94781009D02*
X90809523Y-94781009D01*
X90809523Y-95304819D02*
X90809523Y-94304819D01*
X91714285Y-94304819D02*
X91523809Y-94304819D01*
X91523809Y-94304819D02*
X91428571Y-94352438D01*
X91428571Y-94352438D02*
X91380952Y-94400057D01*
X91380952Y-94400057D02*
X91285714Y-94542914D01*
X91285714Y-94542914D02*
X91238095Y-94733390D01*
X91238095Y-94733390D02*
X91238095Y-95114342D01*
X91238095Y-95114342D02*
X91285714Y-95209580D01*
X91285714Y-95209580D02*
X91333333Y-95257200D01*
X91333333Y-95257200D02*
X91428571Y-95304819D01*
X91428571Y-95304819D02*
X91619047Y-95304819D01*
X91619047Y-95304819D02*
X91714285Y-95257200D01*
X91714285Y-95257200D02*
X91761904Y-95209580D01*
X91761904Y-95209580D02*
X91809523Y-95114342D01*
X91809523Y-95114342D02*
X91809523Y-94876247D01*
X91809523Y-94876247D02*
X91761904Y-94781009D01*
X91761904Y-94781009D02*
X91714285Y-94733390D01*
X91714285Y-94733390D02*
X91619047Y-94685771D01*
X91619047Y-94685771D02*
X91428571Y-94685771D01*
X91428571Y-94685771D02*
X91333333Y-94733390D01*
X91333333Y-94733390D02*
X91285714Y-94781009D01*
X91285714Y-94781009D02*
X91238095Y-94876247D01*
X142738095Y-70304819D02*
X142738095Y-69304819D01*
X142738095Y-69781009D02*
X143309523Y-69781009D01*
X143309523Y-70304819D02*
X143309523Y-69304819D01*
X143738095Y-69400057D02*
X143785714Y-69352438D01*
X143785714Y-69352438D02*
X143880952Y-69304819D01*
X143880952Y-69304819D02*
X144119047Y-69304819D01*
X144119047Y-69304819D02*
X144214285Y-69352438D01*
X144214285Y-69352438D02*
X144261904Y-69400057D01*
X144261904Y-69400057D02*
X144309523Y-69495295D01*
X144309523Y-69495295D02*
X144309523Y-69590533D01*
X144309523Y-69590533D02*
X144261904Y-69733390D01*
X144261904Y-69733390D02*
X143690476Y-70304819D01*
X143690476Y-70304819D02*
X144309523Y-70304819D01*
X102738095Y-70304819D02*
X102738095Y-69304819D01*
X102738095Y-69781009D02*
X103309523Y-69781009D01*
X103309523Y-70304819D02*
X103309523Y-69304819D01*
X104309523Y-70304819D02*
X103738095Y-70304819D01*
X104023809Y-70304819D02*
X104023809Y-69304819D01*
X104023809Y-69304819D02*
X103928571Y-69447676D01*
X103928571Y-69447676D02*
X103833333Y-69542914D01*
X103833333Y-69542914D02*
X103738095Y-69590533D01*
%TO.C,U2*%
D12*
X130770000Y-119050000D02*
X132040000Y-119050000D01*
X112990000Y-119050000D02*
X111720000Y-119050000D01*
X130770000Y-98730000D02*
X132040000Y-98730000D01*
X112990000Y-98730000D02*
X111720000Y-98730000D01*
X115380000Y-98730000D02*
X128380000Y-98730000D01*
X115380000Y-119050000D02*
X128380000Y-119050000D01*
D13*
X114360000Y-98161800D02*
G75*
G02*
X114160000Y-98161800I-100000J0D01*
G01*
X114160000Y-98161800D02*
G75*
G02*
X114360000Y-98161800I100000J0D01*
G01*
D12*
X132040000Y-119050000D02*
X132040000Y-98730000D01*
X111720000Y-98730000D02*
X111720000Y-119050000D01*
%TO.C,D1*%
D14*
X90210000Y-72455000D02*
X90210000Y-75545000D01*
X90210000Y-72455170D02*
G75*
G02*
X95760000Y-74000000I2560000J-1544830D01*
G01*
X95760000Y-74000000D02*
G75*
G02*
X90210000Y-75544830I-2990000J0D01*
G01*
X95270000Y-74000000D02*
G75*
G02*
X90270000Y-74000000I-2500000J0D01*
G01*
X90270000Y-74000000D02*
G75*
G02*
X95270000Y-74000000I2500000J0D01*
G01*
%TO.C,D2*%
X90210000Y-78955000D02*
X90210000Y-82045000D01*
X90210000Y-78955170D02*
G75*
G02*
X95760000Y-80500000I2560000J-1544830D01*
G01*
X95760000Y-80500000D02*
G75*
G02*
X90210000Y-82044830I-2990000J0D01*
G01*
X95270000Y-80500000D02*
G75*
G02*
X90270000Y-80500000I-2500000J0D01*
G01*
X90270000Y-80500000D02*
G75*
G02*
X95270000Y-80500000I2500000J0D01*
G01*
%TO.C,SW1*%
X97750000Y-88500000D02*
X97750000Y-87000000D01*
X96500000Y-84500000D02*
X92000000Y-84500000D01*
X92000000Y-91000000D02*
X96500000Y-91000000D01*
X90750000Y-87000000D02*
X90750000Y-88500000D01*
%TO.C,R1*%
X148870000Y-81920000D02*
X148870000Y-88460000D01*
X148540000Y-81920000D02*
X148870000Y-81920000D01*
X146460000Y-81920000D02*
X146130000Y-81920000D01*
X146130000Y-81920000D02*
X146130000Y-88460000D01*
X148870000Y-88460000D02*
X148540000Y-88460000D01*
X146130000Y-88460000D02*
X146460000Y-88460000D01*
%TO.C,M2*%
X99920000Y-93120000D02*
X99920000Y-94500000D01*
X98540000Y-93120000D02*
X99920000Y-93120000D01*
X97270000Y-93120000D02*
X94620000Y-93120000D01*
X97270000Y-93120000D02*
X97270000Y-95880000D01*
X94620000Y-93120000D02*
X94620000Y-95880000D01*
X97270000Y-95880000D02*
X94620000Y-95880000D01*
%TO.C,M1*%
X152380000Y-93620000D02*
X152380000Y-95000000D01*
X151000000Y-93620000D02*
X152380000Y-93620000D01*
X149730000Y-93620000D02*
X147080000Y-93620000D01*
X149730000Y-93620000D02*
X149730000Y-96380000D01*
X147080000Y-93620000D02*
X147080000Y-96380000D01*
X149730000Y-96380000D02*
X147080000Y-96380000D01*
%TO.C,J5*%
X153120000Y-80120000D02*
X154500000Y-80120000D01*
X153120000Y-81500000D02*
X153120000Y-80120000D01*
X153120000Y-82770000D02*
X153120000Y-87960000D01*
X153120000Y-82770000D02*
X155880000Y-82770000D01*
X153120000Y-87960000D02*
X155880000Y-87960000D01*
X155880000Y-82770000D02*
X155880000Y-87960000D01*
%TO.C,J4*%
X150580000Y-76880000D02*
X150580000Y-75500000D01*
X151960000Y-76880000D02*
X150580000Y-76880000D01*
X153230000Y-76880000D02*
X155880000Y-76880000D01*
X153230000Y-76880000D02*
X153230000Y-74120000D01*
X155880000Y-76880000D02*
X155880000Y-74120000D01*
X153230000Y-74120000D02*
X155880000Y-74120000D01*
%TO.C,J3*%
X137580000Y-72620000D02*
X137580000Y-74000000D01*
X136200000Y-72620000D02*
X137580000Y-72620000D01*
X134930000Y-72620000D02*
X109420000Y-72620000D01*
X134930000Y-72620000D02*
X134930000Y-75380000D01*
X109420000Y-72620000D02*
X109420000Y-75380000D01*
X134930000Y-75380000D02*
X109420000Y-75380000D01*
%TD*%
M02*
