%TF.GenerationSoftware,KiCad,Pcbnew,10.0.3*%
%TF.CreationDate,2026-06-02T02:06:23-06:00*%
%TF.ProjectId,asda,61736461-2e6b-4696-9361-645f70636258,rev?*%
%TF.SameCoordinates,Original*%
%TF.FileFunction,Copper,L1,Top*%
%TF.FilePolarity,Positive*%
%FSLAX46Y46*%
G04 Gerber Fmt 4.6, Leading zero omitted, Abs format (unit mm)*
G04 Created by KiCad (PCBNEW 10.0.3) date 2026-06-02 02:06:23*
%MOMM*%
%LPD*%
G01*
G04 APERTURE LIST*
%TA.AperFunction,ComponentPad*%
%ADD10O,1.700000X1.700000*%
%TD*%
%TA.AperFunction,ComponentPad*%
%ADD11R,1.700000X1.700000*%
%TD*%
%TA.AperFunction,ComponentPad*%
%ADD12C,1.980000*%
%TD*%
%TA.AperFunction,ComponentPad*%
%ADD13R,1.800000X1.800000*%
%TD*%
%TA.AperFunction,ComponentPad*%
%ADD14C,1.800000*%
%TD*%
%TA.AperFunction,ComponentPad*%
%ADD15C,2.000000*%
%TD*%
%TA.AperFunction,ComponentPad*%
%ADD16C,1.600000*%
%TD*%
%TA.AperFunction,ComponentPad*%
%ADD17C,1.700000*%
%TD*%
%TA.AperFunction,ViaPad*%
%ADD18C,0.600000*%
%TD*%
%TA.AperFunction,Conductor*%
%ADD19C,0.250000*%
%TD*%
%TA.AperFunction,Conductor*%
%ADD20C,0.450000*%
%TD*%
%TA.AperFunction,Conductor*%
%ADD21C,0.650000*%
%TD*%
%TA.AperFunction,Conductor*%
%ADD22C,0.350000*%
%TD*%
%TA.AperFunction,Conductor*%
%ADD23C,0.550000*%
%TD*%
%TA.AperFunction,Conductor*%
%ADD24C,0.500000*%
%TD*%
G04 APERTURE END LIST*
D10*
%TO.P,J2,15,Pin_15_15*%
%TO.N,/D1{slash}TX*%
X103880000Y-95000000D03*
%TO.P,J2,14,Pin_14_14*%
%TO.N,/D0{slash}RX*%
X106420000Y-95000000D03*
%TO.P,J2,13,Pin_13_13*%
%TO.N,/~{RESET}*%
X108960000Y-95000000D03*
%TO.P,J2,12,Pin_12_12*%
%TO.N,GND*%
X111500000Y-95000000D03*
%TO.P,J2,11,Pin_11_11*%
%TO.N,/D2*%
X114040000Y-95000000D03*
%TO.P,J2,10,Pin_10_10*%
%TO.N,/\u002AD3*%
X116580000Y-95000000D03*
%TO.P,J2,9,Pin_9_9*%
%TO.N,/D4*%
X119120000Y-95000000D03*
%TO.P,J2,8,Pin_8_8*%
%TO.N,/\u002AD5*%
X121660000Y-95000000D03*
%TO.P,J2,7,Pin_7_7*%
%TO.N,/\u002AD6*%
X124200000Y-95000000D03*
%TO.P,J2,6,Pin_6_6*%
%TO.N,/D7*%
X126740000Y-95000000D03*
%TO.P,J2,5,Pin_5_5*%
%TO.N,/D8*%
X129280000Y-95000000D03*
%TO.P,J2,4,Pin_4_4*%
%TO.N,/\u002AD9*%
X131820000Y-95000000D03*
%TO.P,J2,3,Pin_3_3*%
%TO.N,/\u002AD10{slash}SS*%
X134360000Y-95000000D03*
%TO.P,J2,2,Pin_2_2*%
%TO.N,/\u002AD11{slash}MOSI*%
X136900000Y-95000000D03*
D11*
%TO.P,J2,1,Pin_1_1*%
%TO.N,/D12{slash}MISO*%
X139440000Y-95000000D03*
%TD*%
D12*
%TO.P,U2,9,GND_9*%
%TO.N,GND*%
X129500000Y-117780000D03*
%TO.P,U2,10,PWMB_10*%
%TO.N,/\u002AD6*%
X129500000Y-115240000D03*
%TO.P,U2,11,BI2_11*%
%TO.N,/\u002AD10{slash}SS*%
X129500000Y-112700000D03*
%TO.P,U2,12,BI1_12*%
%TO.N,/\u002AD9*%
X129500000Y-110160000D03*
%TO.P,U2,13,STBY_13*%
%TO.N,/\u002AD3*%
X129500000Y-107620000D03*
%TO.P,U2,14,AI1_14*%
%TO.N,/D7*%
X129500000Y-105080000D03*
%TO.P,U2,15,AI2_15*%
%TO.N,/D8*%
X129500000Y-102540000D03*
%TO.P,U2,16,PWMA_16*%
%TO.N,/\u002AD5*%
X129500000Y-100000000D03*
%TO.P,U2,1,VM_1*%
%TO.N,VCC*%
X114260000Y-100000000D03*
%TO.P,U2,2,VCC_2*%
%TO.N,+3V3*%
X114260000Y-102540000D03*
%TO.P,U2,3,GND_3*%
%TO.N,GND*%
X114260000Y-105080000D03*
%TO.P,U2,4,A01_4*%
%TO.N,Net-(M2-+)*%
X114260000Y-107620000D03*
%TO.P,U2,5,A02_5*%
%TO.N,Net-(M2--)*%
X114260000Y-110160000D03*
%TO.P,U2,6,B02_6*%
%TO.N,Net-(M1--)*%
X114260000Y-112700000D03*
%TO.P,U2,7,B01_7*%
%TO.N,Net-(M1-+)*%
X114260000Y-115240000D03*
%TO.P,U2,8,GND_8*%
%TO.N,GND*%
X114260000Y-117780000D03*
%TD*%
D13*
%TO.P,D1,1,K_1*%
%TO.N,GND*%
X91500000Y-74000000D03*
D14*
%TO.P,D1,2,A_2*%
%TO.N,/D1{slash}TX*%
X94040000Y-74000000D03*
%TD*%
D13*
%TO.P,D2,1,K_1*%
%TO.N,GND*%
X91500000Y-80500000D03*
D14*
%TO.P,D2,2,A_2*%
%TO.N,/D0{slash}RX*%
X94040000Y-80500000D03*
%TD*%
D15*
%TO.P,SW1,1,1_1*%
%TO.N,/\u002AD11{slash}MOSI*%
X97500000Y-90000000D03*
X91000000Y-90000000D03*
%TO.P,SW1,2,2_2*%
%TO.N,+5V*%
X97500000Y-85500000D03*
X91000000Y-85500000D03*
%TD*%
D16*
%TO.P,R1,1*%
%TO.N,GND*%
X147500000Y-81380000D03*
%TO.P,R1,2*%
%TO.N,/\u002AD11{slash}MOSI*%
X147500000Y-89000000D03*
%TD*%
D11*
%TO.P,M2,1,+_1*%
%TO.N,Net-(M2-+)*%
X98540000Y-94500000D03*
D17*
%TO.P,M2,2,-_2*%
%TO.N,Net-(M2--)*%
X96000000Y-94500000D03*
%TD*%
D11*
%TO.P,M1,1,+_1*%
%TO.N,Net-(M1-+)*%
X151000000Y-95000000D03*
D17*
%TO.P,M1,2,-_2*%
%TO.N,Net-(M1--)*%
X148460000Y-95000000D03*
%TD*%
D11*
%TO.P,J5,1,Pin_1_1*%
%TO.N,unconnected-(J5-Pin_1-Pad1)*%
X154500000Y-81500000D03*
D17*
%TO.P,J5,2,Pin_2_2*%
%TO.N,Net-(J4-Pin_2)*%
X154500000Y-84040000D03*
%TO.P,J5,3,Pin_3_3*%
%TO.N,VCC*%
X154500000Y-86580000D03*
%TD*%
D11*
%TO.P,J4,1,Pin_1_1*%
%TO.N,GND*%
X151960000Y-75500000D03*
D17*
%TO.P,J4,2,Pin_2_2*%
%TO.N,Net-(J4-Pin_2)*%
X154500000Y-75500000D03*
%TD*%
D11*
%TO.P,J3,1,Pin_1_1*%
%TO.N,GND*%
X136200000Y-74000000D03*
D17*
%TO.P,J3,2,Pin_2_2*%
%TO.N,/D2*%
X133660000Y-74000000D03*
%TO.P,J3,3,Pin_3_3*%
%TO.N,/A0*%
X131120000Y-74000000D03*
%TO.P,J3,4,Pin_4_4*%
%TO.N,/A1*%
X128580000Y-74000000D03*
%TO.P,J3,5,Pin_5_5*%
%TO.N,/A2*%
X126040000Y-74000000D03*
%TO.P,J3,6,Pin_6_6*%
%TO.N,/A3*%
X123500000Y-74000000D03*
%TO.P,J3,7,Pin_7_7*%
%TO.N,/A4{slash}SDA*%
X120960000Y-74000000D03*
%TO.P,J3,8,Pin_8_8*%
%TO.N,/A5{slash}SCL*%
X118420000Y-74000000D03*
%TO.P,J3,9,Pin_9_9*%
%TO.N,/A6*%
X115880000Y-74000000D03*
%TO.P,J3,10,Pin_10_10*%
%TO.N,/A7*%
X113340000Y-74000000D03*
%TO.P,J3,11,Pin_11_11*%
%TO.N,+5V*%
X110800000Y-74000000D03*
%TD*%
D10*
%TO.P,J1,15,Pin_15_15*%
%TO.N,VCC*%
X103880000Y-79760000D03*
%TO.P,J1,14,Pin_14_14*%
%TO.N,GND*%
X106420000Y-79760000D03*
%TO.P,J1,13,Pin_13_13*%
%TO.N,/~{RESET}*%
X108960000Y-79760000D03*
%TO.P,J1,12,Pin_12_12*%
%TO.N,+5V*%
X111500000Y-79760000D03*
%TO.P,J1,11,Pin_11_11*%
%TO.N,/A7*%
X114040000Y-79760000D03*
%TO.P,J1,10,Pin_10_10*%
%TO.N,/A6*%
X116580000Y-79760000D03*
%TO.P,J1,9,Pin_9_9*%
%TO.N,/A5{slash}SCL*%
X119120000Y-79760000D03*
%TO.P,J1,8,Pin_8_8*%
%TO.N,/A4{slash}SDA*%
X121660000Y-79760000D03*
%TO.P,J1,7,Pin_7_7*%
%TO.N,/A3*%
X124200000Y-79760000D03*
%TO.P,J1,6,Pin_6_6*%
%TO.N,/A2*%
X126740000Y-79760000D03*
%TO.P,J1,5,Pin_5_5*%
%TO.N,/A1*%
X129280000Y-79760000D03*
%TO.P,J1,4,Pin_4_4*%
%TO.N,/A0*%
X131820000Y-79760000D03*
%TO.P,J1,3,Pin_3_3*%
%TO.N,/AREF*%
X134360000Y-79760000D03*
%TO.P,J1,2,Pin_2_2*%
%TO.N,+3V3*%
X136900000Y-79760000D03*
D11*
%TO.P,J1,1,Pin_1_1*%
%TO.N,/D13{slash}SCK*%
X139440000Y-79760000D03*
%TD*%
D18*
%TO.N,/\u002AD6*%
X117802500Y-96500000D03*
%TD*%
%TO.N,/\u002AD6*%
D19*
X123023300Y-95000000D02*
X124200000Y-95000000D01*
X123023300Y-95367800D02*
X123023300Y-95000000D01*
X117944900Y-96500000D02*
X121891100Y-96500000D01*
X117802500Y-96357600D02*
X117944900Y-96500000D01*
X121891100Y-96500000D02*
X123023300Y-95367800D01*
X117802500Y-96500000D02*
X117802500Y-96357600D01*
%TO.N,VCC*%
D20*
X145660500Y-91839500D02*
X145660500Y-91006900D01*
X141250000Y-96250000D02*
X145660500Y-91839500D01*
X140277540Y-96661800D02*
X140689340Y-96250000D01*
X140689340Y-96250000D02*
X141250000Y-96250000D01*
X140005600Y-96661800D02*
X140277540Y-96661800D01*
%TO.N,Net-(M1--)*%
D21*
X130479615Y-97634999D02*
X128635000Y-97635000D01*
X141000000Y-97000000D02*
X140000000Y-98000000D01*
X128635000Y-97635000D02*
X128500000Y-97500000D01*
X146000000Y-95000000D02*
X144000000Y-97000000D01*
X134352081Y-97649999D02*
X130494616Y-97650000D01*
X148460000Y-95000000D02*
X146000000Y-95000000D01*
X144000000Y-97000000D02*
X141000000Y-97000000D01*
X140000000Y-98000000D02*
X134702082Y-98000000D01*
X130494616Y-97650000D02*
X130479615Y-97634999D01*
X134702082Y-98000000D02*
X134352081Y-97649999D01*
%TO.N,Net-(M1-+)*%
X121880100Y-107619900D02*
X114260000Y-115240000D01*
X121880100Y-105738300D02*
X121880100Y-107619900D01*
X127985000Y-99633400D02*
X121880100Y-105738300D01*
X127985000Y-99372466D02*
X127985000Y-99633400D01*
X128000000Y-99357466D02*
X127985000Y-99372466D01*
X128717082Y-98485000D02*
X128000000Y-99202082D01*
X128000000Y-99202082D02*
X128000000Y-99357466D01*
X130127534Y-98485000D02*
X128717082Y-98485000D01*
X130142534Y-98500000D02*
X130127534Y-98485000D01*
X142500000Y-101500000D02*
X137000000Y-101500000D01*
X137000000Y-101500000D02*
X134000000Y-98500000D01*
X134000000Y-98500000D02*
X130142534Y-98500000D01*
X147066500Y-96933500D02*
X142500000Y-101500000D01*
X151000000Y-97000000D02*
X149000000Y-97000000D01*
X149000000Y-97000000D02*
X148933500Y-96933500D01*
X148933500Y-96933500D02*
X147066500Y-96933500D01*
X151000000Y-95000000D02*
X151000000Y-97000000D01*
%TO.N,GND*%
D22*
X107596700Y-79320177D02*
X108000000Y-78916877D01*
D20*
X107596700Y-79760000D02*
X107596700Y-79320177D01*
X108500000Y-77500000D02*
X108000000Y-78000000D01*
X124259900Y-77500000D02*
X108500000Y-77500000D01*
X126484900Y-75275000D02*
X124259900Y-77500000D01*
X124770000Y-74533123D02*
X125511877Y-75275000D01*
X124028123Y-75275000D02*
X124770000Y-74533123D01*
X122971877Y-75275000D02*
X124028123Y-75275000D01*
X122230000Y-74533123D02*
X122971877Y-75275000D01*
X120431877Y-75275000D02*
X121488123Y-75275000D01*
D22*
X108000000Y-78000000D02*
X108000000Y-78916877D01*
D20*
X114610000Y-74533123D02*
X115351877Y-75275000D01*
X113868123Y-75275000D02*
X114610000Y-74533123D01*
X112070000Y-74533123D02*
X112811877Y-75275000D01*
X110271877Y-75275000D02*
X111328123Y-75275000D01*
X109525000Y-73471877D02*
X109525000Y-74528123D01*
X109525000Y-74528123D02*
X110271877Y-75275000D01*
X111328123Y-72725000D02*
X110271877Y-72725000D01*
X112070000Y-73466877D02*
X111328123Y-72725000D01*
X119690000Y-74533123D02*
X120431877Y-75275000D01*
X112811877Y-72725000D02*
X112070000Y-73466877D01*
X115351877Y-72725000D02*
X114610000Y-73466877D01*
X117891877Y-75275000D02*
X118948123Y-75275000D01*
X116408123Y-72725000D02*
X115351877Y-72725000D01*
X117150000Y-73466877D02*
X116408123Y-72725000D01*
X118948123Y-72725000D02*
X117891877Y-72725000D01*
X121488123Y-72725000D02*
X120431877Y-72725000D01*
X122971877Y-72725000D02*
X122230000Y-73466877D01*
X111328123Y-75275000D02*
X112070000Y-74533123D01*
X121488123Y-75275000D02*
X122230000Y-74533123D01*
X124028123Y-72725000D02*
X122971877Y-72725000D01*
X125511877Y-75275000D02*
X126484900Y-75275000D01*
X124770000Y-73466877D02*
X124028123Y-72725000D01*
X113868123Y-72725000D02*
X112811877Y-72725000D01*
X125511877Y-72725000D02*
X124770000Y-73466877D01*
X115351877Y-75275000D02*
X116408123Y-75275000D01*
X126568123Y-72725000D02*
X125511877Y-72725000D01*
X127310000Y-73466877D02*
X126568123Y-72725000D01*
X128051877Y-72725000D02*
X127310000Y-73466877D01*
X122230000Y-73466877D02*
X121488123Y-72725000D01*
X129108123Y-72725000D02*
X128051877Y-72725000D01*
X117891877Y-72725000D02*
X117150000Y-73466877D01*
X129154123Y-72771000D02*
X129108123Y-72725000D01*
X119690000Y-73466877D02*
X118948123Y-72725000D01*
X130545877Y-72771000D02*
X129154123Y-72771000D01*
X130591877Y-72725000D02*
X130545877Y-72771000D01*
X131648123Y-72725000D02*
X130591877Y-72725000D01*
X110271877Y-72725000D02*
X109525000Y-73471877D01*
X133131877Y-72725000D02*
X133085877Y-72771000D01*
X117150000Y-74533123D02*
X117891877Y-75275000D01*
X118948123Y-75275000D02*
X119690000Y-74533123D01*
X131694123Y-72771000D02*
X131648123Y-72725000D01*
X134188123Y-72725000D02*
X133131877Y-72725000D01*
X133085877Y-72771000D02*
X131694123Y-72771000D01*
X114610000Y-73466877D02*
X113868123Y-72725000D01*
X134935000Y-73471877D02*
X134188123Y-72725000D01*
X120431877Y-72725000D02*
X119690000Y-73466877D01*
X134935000Y-73544000D02*
X134935000Y-73471877D01*
X112811877Y-75275000D02*
X113868123Y-75275000D01*
X135023300Y-73632300D02*
X134935000Y-73544000D01*
X116408123Y-75275000D02*
X117150000Y-74533123D01*
%TO.N,Net-(M1--)*%
D23*
X118500000Y-108500000D02*
X118500000Y-107500000D01*
D19*
X118460000Y-108500000D02*
X118500000Y-108500000D01*
D23*
X118500000Y-107500000D02*
X128500000Y-97500000D01*
X114260000Y-112700000D02*
X118460000Y-108500000D01*
%TO.N,VCC*%
D24*
X124838200Y-96661800D02*
X140005600Y-96661800D01*
X123000000Y-98500000D02*
X124838200Y-96661800D01*
X117302100Y-98500000D02*
X123000000Y-98500000D01*
X115802100Y-100000000D02*
X117302100Y-98500000D01*
%TO.N,Net-(M1--)*%
D19*
X114260000Y-111740000D02*
X114260000Y-112700000D01*
%TO.N,/\u002AD11{slash}MOSI*%
X136900000Y-95000000D02*
X138076700Y-95000000D01*
X138076700Y-93198100D02*
X138076700Y-95000000D01*
X142274800Y-89000000D02*
X138076700Y-93198100D01*
X147500000Y-89000000D02*
X142274800Y-89000000D01*
X100698100Y-93198100D02*
X97500000Y-90000000D01*
X138076700Y-93198100D02*
X100698100Y-93198100D01*
X91000000Y-90000000D02*
X97500000Y-90000000D01*
%TO.N,/A0*%
X131820000Y-74700000D02*
X131120000Y-74000000D01*
X131820000Y-79760000D02*
X131820000Y-74700000D01*
%TO.N,/A1*%
X129280000Y-74700000D02*
X128580000Y-74000000D01*
X129280000Y-79760000D02*
X129280000Y-74700000D01*
%TO.N,+5V*%
X104951000Y-85500000D02*
X97500000Y-85500000D01*
X110323300Y-80127700D02*
X104951000Y-85500000D01*
X110323300Y-79760000D02*
X110323300Y-80127700D01*
X111500000Y-79760000D02*
X110323300Y-79760000D01*
X91000000Y-85500000D02*
X97500000Y-85500000D01*
%TO.N,VCC*%
D21*
X114260000Y-100000000D02*
X115802100Y-100000000D01*
%TO.N,GND*%
D19*
X106420000Y-79760000D02*
X105243300Y-79760000D01*
X91500000Y-80500000D02*
X92726700Y-80500000D01*
X92726700Y-80960100D02*
X92726700Y-80500000D01*
X93493300Y-81726700D02*
X92726700Y-80960100D01*
X103644300Y-81726700D02*
X93493300Y-81726700D01*
X105243300Y-80127700D02*
X103644300Y-81726700D01*
X105243300Y-79760000D02*
X105243300Y-80127700D01*
D20*
X150315900Y-75967400D02*
X150783300Y-75500000D01*
X139344100Y-75967400D02*
X150315900Y-75967400D01*
X137376700Y-74000000D02*
X139344100Y-75967400D01*
X136200000Y-74000000D02*
X137376700Y-74000000D01*
X151960000Y-75500000D02*
X150783300Y-75500000D01*
D23*
X135023300Y-74000000D02*
X135023300Y-73632300D01*
D20*
X136200000Y-74000000D02*
X135023300Y-74000000D01*
X106420000Y-79760000D02*
X107596700Y-79760000D01*
D23*
X129500000Y-117780000D02*
X114260000Y-117780000D01*
%TO.N,VCC*%
D21*
X150073100Y-91006900D02*
X154500000Y-86580000D01*
X145660500Y-91006900D02*
X150073100Y-91006900D01*
%TD*%
%TA.AperFunction,Conductor*%
%TO.N,GND*%
G36*
X127239341Y-97439985D02*
G01*
X127285096Y-97492789D01*
X127295040Y-97561947D01*
X127266015Y-97625503D01*
X127259983Y-97631981D01*
X118000548Y-106891416D01*
X117945981Y-106945983D01*
X117891414Y-107000549D01*
X117805669Y-107128876D01*
X117746609Y-107271460D01*
X117746607Y-107271468D01*
X117716500Y-107422827D01*
X117716500Y-108084102D01*
X117696815Y-108151141D01*
X117680181Y-108171783D01*
X115937611Y-109914352D01*
X115876288Y-109947837D01*
X115806596Y-109942853D01*
X115750663Y-109900981D01*
X115727457Y-109846072D01*
X115721602Y-109809100D01*
X115648715Y-109584776D01*
X115541632Y-109374615D01*
X115402992Y-109183793D01*
X115236207Y-109017008D01*
X115236203Y-109017004D01*
X115199473Y-108990319D01*
X115156806Y-108934989D01*
X115150827Y-108865376D01*
X115183432Y-108803581D01*
X115199473Y-108789681D01*
X115236203Y-108762995D01*
X115236203Y-108762994D01*
X115236207Y-108762992D01*
X115402992Y-108596207D01*
X115541632Y-108405385D01*
X115648715Y-108195224D01*
X115721602Y-107970900D01*
X115747267Y-107808859D01*
X115758500Y-107737940D01*
X115758500Y-107502059D01*
X115737034Y-107366534D01*
X115721602Y-107269100D01*
X115648715Y-107044776D01*
X115541632Y-106834615D01*
X115402992Y-106643793D01*
X115236207Y-106477008D01*
X115236201Y-106477004D01*
X115199471Y-106450318D01*
X115170793Y-106429482D01*
X115128128Y-106374154D01*
X115120061Y-106319434D01*
X115121945Y-106295498D01*
X114515141Y-105688695D01*
X114572627Y-105664884D01*
X114680725Y-105592655D01*
X114772655Y-105500725D01*
X114844884Y-105392627D01*
X114868695Y-105335141D01*
X115475499Y-105941946D01*
X115475499Y-105941945D01*
X115534361Y-105860930D01*
X115640835Y-105651965D01*
X115713310Y-105428909D01*
X115750000Y-105197265D01*
X115750000Y-104962734D01*
X115713310Y-104731090D01*
X115640835Y-104508034D01*
X115534359Y-104299066D01*
X115475500Y-104218053D01*
X115475499Y-104218052D01*
X114868694Y-104824857D01*
X114844884Y-104767373D01*
X114772655Y-104659275D01*
X114680725Y-104567345D01*
X114572627Y-104495116D01*
X114515141Y-104471304D01*
X115121945Y-103864500D01*
X115120061Y-103840566D01*
X115134424Y-103772188D01*
X115170793Y-103730517D01*
X115236207Y-103682992D01*
X115402992Y-103516207D01*
X115541632Y-103325385D01*
X115648715Y-103115224D01*
X115721602Y-102890900D01*
X115740611Y-102770877D01*
X115758500Y-102657940D01*
X115758500Y-102422059D01*
X115729448Y-102238637D01*
X115721602Y-102189100D01*
X115648715Y-101964776D01*
X115541632Y-101754615D01*
X115402992Y-101563793D01*
X115236207Y-101397008D01*
X115236203Y-101397004D01*
X115199473Y-101370319D01*
X115156806Y-101314989D01*
X115150827Y-101245376D01*
X115183432Y-101183581D01*
X115199473Y-101169681D01*
X115236203Y-101142995D01*
X115236203Y-101142994D01*
X115236207Y-101142992D01*
X115402992Y-100976207D01*
X115469536Y-100884615D01*
X115524866Y-100841949D01*
X115569855Y-100833500D01*
X115884195Y-100833500D01*
X115884196Y-100833499D01*
X116045223Y-100801469D01*
X116196910Y-100738638D01*
X116196910Y-100738637D01*
X116196912Y-100738637D01*
X116264709Y-100693335D01*
X116333425Y-100647422D01*
X116449522Y-100531325D01*
X116540738Y-100394810D01*
X116574268Y-100313857D01*
X116601144Y-100273635D01*
X117579962Y-99294819D01*
X117641285Y-99261334D01*
X117667643Y-99258500D01*
X123074708Y-99258500D01*
X123114743Y-99250536D01*
X123174799Y-99238590D01*
X123221247Y-99229351D01*
X123359284Y-99172174D01*
X123483515Y-99089166D01*
X125116062Y-97456619D01*
X125177385Y-97423134D01*
X125203743Y-97420300D01*
X127172302Y-97420300D01*
X127239341Y-97439985D01*
G37*
%TD.AperFunction*%
%TA.AperFunction,Conductor*%
G36*
X160892539Y-70545185D02*
G01*
X160938294Y-70597989D01*
X160949500Y-70649500D01*
X160949500Y-120550500D01*
X160929815Y-120617539D01*
X160877011Y-120663294D01*
X160825500Y-120674500D01*
X86174500Y-120674500D01*
X86107461Y-120654815D01*
X86061706Y-120602011D01*
X86050500Y-120550500D01*
X86050500Y-116874038D01*
X89399500Y-116874038D01*
X89399500Y-117125961D01*
X89438910Y-117374785D01*
X89516760Y-117614383D01*
X89631132Y-117838848D01*
X89779201Y-118042649D01*
X89779205Y-118042654D01*
X89957345Y-118220794D01*
X89957350Y-118220798D01*
X90135117Y-118349952D01*
X90161155Y-118368870D01*
X90300756Y-118440000D01*
X90385616Y-118483239D01*
X90385618Y-118483239D01*
X90385621Y-118483241D01*
X90625215Y-118561090D01*
X90874038Y-118600500D01*
X90874039Y-118600500D01*
X91125961Y-118600500D01*
X91125962Y-118600500D01*
X91374785Y-118561090D01*
X91614379Y-118483241D01*
X91838845Y-118368870D01*
X92042656Y-118220793D01*
X92220793Y-118042656D01*
X92368870Y-117838845D01*
X92483241Y-117614379D01*
X92561090Y-117374785D01*
X92600500Y-117125962D01*
X92600500Y-116874038D01*
X92561090Y-116625215D01*
X92483241Y-116385621D01*
X92483239Y-116385618D01*
X92483239Y-116385616D01*
X92396918Y-116216203D01*
X92368870Y-116161155D01*
X92270228Y-116025385D01*
X92220798Y-115957350D01*
X92220794Y-115957345D01*
X92042654Y-115779205D01*
X92042649Y-115779201D01*
X91838848Y-115631132D01*
X91838847Y-115631131D01*
X91838845Y-115631130D01*
X91759889Y-115590900D01*
X91614383Y-115516760D01*
X91374785Y-115438910D01*
X91125962Y-115399500D01*
X90874038Y-115399500D01*
X90749626Y-115419205D01*
X90625214Y-115438910D01*
X90385616Y-115516760D01*
X90161151Y-115631132D01*
X89957350Y-115779201D01*
X89957345Y-115779205D01*
X89779205Y-115957345D01*
X89779201Y-115957350D01*
X89631132Y-116161151D01*
X89516760Y-116385616D01*
X89438910Y-116625214D01*
X89399500Y-116874038D01*
X86050500Y-116874038D01*
X86050500Y-98874038D01*
X89399500Y-98874038D01*
X89399500Y-99125962D01*
X89420183Y-99256548D01*
X89438910Y-99374785D01*
X89516760Y-99614383D01*
X89631132Y-99838848D01*
X89779201Y-100042649D01*
X89779205Y-100042654D01*
X89957345Y-100220794D01*
X89957350Y-100220798D01*
X90085443Y-100313862D01*
X90161155Y-100368870D01*
X90304184Y-100441747D01*
X90385616Y-100483239D01*
X90385618Y-100483239D01*
X90385621Y-100483241D01*
X90625215Y-100561090D01*
X90874038Y-100600500D01*
X90874039Y-100600500D01*
X91125961Y-100600500D01*
X91125962Y-100600500D01*
X91374785Y-100561090D01*
X91614379Y-100483241D01*
X91838845Y-100368870D01*
X92042656Y-100220793D01*
X92220793Y-100042656D01*
X92368870Y-99838845D01*
X92483241Y-99614379D01*
X92561090Y-99374785D01*
X92600500Y-99125962D01*
X92600500Y-98874038D01*
X92579055Y-98738638D01*
X92566909Y-98661952D01*
X92564801Y-98648641D01*
X100444000Y-98648641D01*
X100444000Y-98811358D01*
X100475740Y-98970927D01*
X100475742Y-98970935D01*
X100538006Y-99121255D01*
X100538011Y-99121264D01*
X100628403Y-99256544D01*
X100628406Y-99256548D01*
X100743451Y-99371593D01*
X100743455Y-99371596D01*
X100878735Y-99461988D01*
X100878741Y-99461991D01*
X100878742Y-99461992D01*
X101029065Y-99524258D01*
X101188641Y-99555999D01*
X101188645Y-99556000D01*
X101188646Y-99556000D01*
X101351355Y-99556000D01*
X101351356Y-99555999D01*
X101510935Y-99524258D01*
X101661258Y-99461992D01*
X101796545Y-99371596D01*
X101911596Y-99256545D01*
X102001992Y-99121258D01*
X102064258Y-98970935D01*
X102096000Y-98811354D01*
X102096000Y-98648646D01*
X102064258Y-98489065D01*
X102001992Y-98338742D01*
X102001991Y-98338741D01*
X102001988Y-98338735D01*
X101911596Y-98203455D01*
X101911593Y-98203451D01*
X101796548Y-98088406D01*
X101796544Y-98088403D01*
X101661264Y-97998011D01*
X101661255Y-97998006D01*
X101510935Y-97935742D01*
X101510927Y-97935740D01*
X101351358Y-97904000D01*
X101351354Y-97904000D01*
X101188646Y-97904000D01*
X101188641Y-97904000D01*
X101029072Y-97935740D01*
X101029064Y-97935742D01*
X100878744Y-97998006D01*
X100878735Y-97998011D01*
X100743455Y-98088403D01*
X100743451Y-98088406D01*
X100628406Y-98203451D01*
X100628403Y-98203455D01*
X100538011Y-98338735D01*
X100538006Y-98338744D01*
X100475742Y-98489064D01*
X100475740Y-98489072D01*
X100444000Y-98648641D01*
X92564801Y-98648641D01*
X92564607Y-98647419D01*
X92561090Y-98625215D01*
X92483241Y-98385621D01*
X92483239Y-98385618D01*
X92483239Y-98385616D01*
X92430124Y-98281373D01*
X92368870Y-98161155D01*
X92316015Y-98088406D01*
X92220798Y-97957350D01*
X92220794Y-97957345D01*
X92042654Y-97779205D01*
X92042649Y-97779201D01*
X91838848Y-97631132D01*
X91838847Y-97631131D01*
X91838845Y-97631130D01*
X91703066Y-97561947D01*
X91614383Y-97516760D01*
X91374785Y-97438910D01*
X91257287Y-97420300D01*
X91125962Y-97399500D01*
X90874038Y-97399500D01*
X90749626Y-97419205D01*
X90625214Y-97438910D01*
X90385616Y-97516760D01*
X90161151Y-97631132D01*
X89957350Y-97779201D01*
X89957345Y-97779205D01*
X89779205Y-97957345D01*
X89779201Y-97957350D01*
X89631132Y-98161151D01*
X89516760Y-98385616D01*
X89438910Y-98625214D01*
X89420945Y-98738638D01*
X89399500Y-98874038D01*
X86050500Y-98874038D01*
X86050500Y-89881272D01*
X89491500Y-89881272D01*
X89491500Y-90118727D01*
X89528643Y-90353241D01*
X89602019Y-90579067D01*
X89664252Y-90701205D01*
X89709815Y-90790627D01*
X89849380Y-90982722D01*
X90017278Y-91150620D01*
X90209373Y-91290185D01*
X90309328Y-91341114D01*
X90420932Y-91397980D01*
X90420934Y-91397980D01*
X90420937Y-91397982D01*
X90479041Y-91416861D01*
X90646758Y-91471356D01*
X90881273Y-91508500D01*
X90881278Y-91508500D01*
X91118727Y-91508500D01*
X91353241Y-91471356D01*
X91355592Y-91470592D01*
X91579063Y-91397982D01*
X91790627Y-91290185D01*
X91982722Y-91150620D01*
X92150620Y-90982722D01*
X92290185Y-90790627D01*
X92335748Y-90701205D01*
X92383723Y-90650409D01*
X92446233Y-90633500D01*
X96053767Y-90633500D01*
X96120806Y-90653185D01*
X96164252Y-90701205D01*
X96209815Y-90790627D01*
X96349380Y-90982722D01*
X96517278Y-91150620D01*
X96709373Y-91290185D01*
X96809328Y-91341114D01*
X96920932Y-91397980D01*
X96920934Y-91397980D01*
X96920937Y-91397982D01*
X96979041Y-91416861D01*
X97146758Y-91471356D01*
X97381273Y-91508500D01*
X97381278Y-91508500D01*
X97618727Y-91508500D01*
X97725321Y-91491616D01*
X97853241Y-91471356D01*
X97948691Y-91440341D01*
X98018529Y-91438347D01*
X98074688Y-91470592D01*
X99534156Y-92930060D01*
X99567641Y-92991383D01*
X99562657Y-93061075D01*
X99520785Y-93117008D01*
X99455321Y-93141425D01*
X99439867Y-93141565D01*
X99438649Y-93141500D01*
X99438638Y-93141500D01*
X97641362Y-93141500D01*
X97641345Y-93141500D01*
X97580797Y-93148011D01*
X97580795Y-93148011D01*
X97443795Y-93199111D01*
X97326739Y-93286739D01*
X97239111Y-93403795D01*
X97194043Y-93524625D01*
X97152171Y-93580558D01*
X97086707Y-93604974D01*
X97018434Y-93590122D01*
X96990181Y-93568971D01*
X96885006Y-93463796D01*
X96885004Y-93463794D01*
X96712009Y-93338106D01*
X96521483Y-93241027D01*
X96521480Y-93241026D01*
X96318117Y-93174951D01*
X96212516Y-93158225D01*
X96106916Y-93141500D01*
X95893084Y-93141500D01*
X95822684Y-93152650D01*
X95681882Y-93174951D01*
X95478519Y-93241026D01*
X95478516Y-93241027D01*
X95287990Y-93338106D01*
X95114993Y-93463796D01*
X94963796Y-93614993D01*
X94838106Y-93787990D01*
X94741027Y-93978516D01*
X94741026Y-93978519D01*
X94674951Y-94181882D01*
X94641500Y-94393084D01*
X94641500Y-94606915D01*
X94674951Y-94818117D01*
X94741026Y-95021480D01*
X94741027Y-95021483D01*
X94784558Y-95106916D01*
X94838106Y-95212009D01*
X94963794Y-95385004D01*
X95114996Y-95536206D01*
X95287991Y-95661894D01*
X95374560Y-95706003D01*
X95478516Y-95758972D01*
X95478519Y-95758973D01*
X95580200Y-95792010D01*
X95681884Y-95825049D01*
X95893084Y-95858500D01*
X95893085Y-95858500D01*
X96106915Y-95858500D01*
X96106916Y-95858500D01*
X96318116Y-95825049D01*
X96521483Y-95758972D01*
X96712009Y-95661894D01*
X96885004Y-95536206D01*
X96990184Y-95431025D01*
X97051503Y-95397543D01*
X97121195Y-95402527D01*
X97177129Y-95444398D01*
X97194043Y-95475375D01*
X97239110Y-95596203D01*
X97239111Y-95596204D01*
X97326739Y-95713261D01*
X97443796Y-95800889D01*
X97580799Y-95851989D01*
X97605895Y-95854687D01*
X97641345Y-95858499D01*
X97641362Y-95858500D01*
X99438638Y-95858500D01*
X99438654Y-95858499D01*
X99465692Y-95855591D01*
X99499201Y-95851989D01*
X99636204Y-95800889D01*
X99753261Y-95713261D01*
X99840889Y-95596204D01*
X99891989Y-95459201D01*
X99895591Y-95425692D01*
X99898499Y-95398654D01*
X99898500Y-95398637D01*
X99898500Y-93601352D01*
X99898436Y-93600158D01*
X99898500Y-93599887D01*
X99898500Y-93598041D01*
X99898936Y-93598041D01*
X99904267Y-93575482D01*
X99906076Y-93550190D01*
X99912167Y-93542053D01*
X99914505Y-93532161D01*
X99932753Y-93514553D01*
X99947948Y-93494257D01*
X99957470Y-93490705D01*
X99964786Y-93483647D01*
X99989655Y-93478700D01*
X100013412Y-93469840D01*
X100023344Y-93472000D01*
X100033313Y-93470018D01*
X100056907Y-93479302D01*
X100081685Y-93484692D01*
X100093960Y-93493881D01*
X100098331Y-93495601D01*
X100109939Y-93505843D01*
X100206029Y-93601933D01*
X100252107Y-93648011D01*
X100294268Y-93690172D01*
X100398018Y-93759496D01*
X100398024Y-93759499D01*
X100398025Y-93759500D01*
X100513315Y-93807255D01*
X100609911Y-93826469D01*
X100635701Y-93831599D01*
X100635705Y-93831600D01*
X100635706Y-93831600D01*
X102827828Y-93831600D01*
X102894867Y-93851285D01*
X102940622Y-93904089D01*
X102950566Y-93973247D01*
X102921541Y-94036803D01*
X102915509Y-94043281D01*
X102843796Y-94114993D01*
X102718106Y-94287990D01*
X102621027Y-94478516D01*
X102621026Y-94478519D01*
X102554951Y-94681882D01*
X102521500Y-94893084D01*
X102521500Y-95106915D01*
X102554951Y-95318117D01*
X102621026Y-95521480D01*
X102621027Y-95521483D01*
X102713917Y-95703788D01*
X102718106Y-95712009D01*
X102843794Y-95885004D01*
X102994996Y-96036206D01*
X103167991Y-96161894D01*
X103261438Y-96209507D01*
X103358516Y-96258972D01*
X103358519Y-96258973D01*
X103441942Y-96286078D01*
X103561884Y-96325049D01*
X103773084Y-96358500D01*
X103773085Y-96358500D01*
X103986915Y-96358500D01*
X103986916Y-96358500D01*
X104198116Y-96325049D01*
X104401483Y-96258972D01*
X104592009Y-96161894D01*
X104765004Y-96036206D01*
X104916206Y-95885004D01*
X105041894Y-95712009D01*
X105041896Y-95712004D01*
X105044270Y-95708132D01*
X105096080Y-95661254D01*
X105165009Y-95649829D01*
X105229173Y-95677483D01*
X105255730Y-95708132D01*
X105258103Y-95712005D01*
X105258105Y-95712008D01*
X105258106Y-95712009D01*
X105383794Y-95885004D01*
X105534996Y-96036206D01*
X105707991Y-96161894D01*
X105801438Y-96209507D01*
X105898516Y-96258972D01*
X105898519Y-96258973D01*
X105981942Y-96286078D01*
X106101884Y-96325049D01*
X106313084Y-96358500D01*
X106313085Y-96358500D01*
X106526915Y-96358500D01*
X106526916Y-96358500D01*
X106738116Y-96325049D01*
X106941483Y-96258972D01*
X107132009Y-96161894D01*
X107305004Y-96036206D01*
X107456206Y-95885004D01*
X107581894Y-95712009D01*
X107581896Y-95712004D01*
X107584270Y-95708132D01*
X107636080Y-95661254D01*
X107705009Y-95649829D01*
X107769173Y-95677483D01*
X107795730Y-95708132D01*
X107798103Y-95712005D01*
X107798105Y-95712008D01*
X107798106Y-95712009D01*
X107923794Y-95885004D01*
X108074996Y-96036206D01*
X108247991Y-96161894D01*
X108341438Y-96209507D01*
X108438516Y-96258972D01*
X108438519Y-96258973D01*
X108521942Y-96286078D01*
X108641884Y-96325049D01*
X108853084Y-96358500D01*
X108853085Y-96358500D01*
X109066915Y-96358500D01*
X109066916Y-96358500D01*
X109278116Y-96325049D01*
X109481483Y-96258972D01*
X109672009Y-96161894D01*
X109845004Y-96036206D01*
X109996206Y-95885004D01*
X110121894Y-95712009D01*
X110124283Y-95707319D01*
X110172254Y-95656522D01*
X110240074Y-95639724D01*
X110306210Y-95662258D01*
X110342201Y-95703788D01*
X110342832Y-95703402D01*
X110345164Y-95707207D01*
X110345251Y-95707308D01*
X110345376Y-95707554D01*
X110470272Y-95879459D01*
X110470276Y-95879464D01*
X110620535Y-96029723D01*
X110620540Y-96029727D01*
X110792442Y-96154620D01*
X110981782Y-96251095D01*
X111183871Y-96316757D01*
X111250000Y-96327231D01*
X111250000Y-95433012D01*
X111307007Y-95465925D01*
X111434174Y-95500000D01*
X111565826Y-95500000D01*
X111692993Y-95465925D01*
X111750000Y-95433012D01*
X111750000Y-96327230D01*
X111816126Y-96316757D01*
X111816129Y-96316757D01*
X112018217Y-96251095D01*
X112207557Y-96154620D01*
X112379459Y-96029727D01*
X112379464Y-96029723D01*
X112529723Y-95879464D01*
X112529727Y-95879459D01*
X112654619Y-95707560D01*
X112654738Y-95707327D01*
X112654808Y-95707252D01*
X112657168Y-95703402D01*
X112657976Y-95703897D01*
X112702707Y-95656526D01*
X112770526Y-95639723D01*
X112836663Y-95662254D01*
X112875712Y-95707311D01*
X112878105Y-95712008D01*
X112912227Y-95758972D01*
X113003794Y-95885004D01*
X113154996Y-96036206D01*
X113327991Y-96161894D01*
X113421438Y-96209507D01*
X113518516Y-96258972D01*
X113518519Y-96258973D01*
X113601942Y-96286078D01*
X113721884Y-96325049D01*
X113933084Y-96358500D01*
X113933085Y-96358500D01*
X114146915Y-96358500D01*
X114146916Y-96358500D01*
X114358116Y-96325049D01*
X114561483Y-96258972D01*
X114752009Y-96161894D01*
X114925004Y-96036206D01*
X115076206Y-95885004D01*
X115201894Y-95712009D01*
X115201896Y-95712004D01*
X115204270Y-95708132D01*
X115256080Y-95661254D01*
X115325009Y-95649829D01*
X115389173Y-95677483D01*
X115415730Y-95708132D01*
X115418103Y-95712005D01*
X115418105Y-95712008D01*
X115418106Y-95712009D01*
X115543794Y-95885004D01*
X115694996Y-96036206D01*
X115867991Y-96161894D01*
X115961438Y-96209507D01*
X116058516Y-96258972D01*
X116058519Y-96258973D01*
X116141942Y-96286078D01*
X116261884Y-96325049D01*
X116473084Y-96358500D01*
X116473085Y-96358500D01*
X116686915Y-96358500D01*
X116686916Y-96358500D01*
X116850603Y-96332574D01*
X116919895Y-96341528D01*
X116973347Y-96386524D01*
X116993987Y-96453276D01*
X116994000Y-96455047D01*
X116994000Y-96579634D01*
X117025068Y-96735823D01*
X117025070Y-96735831D01*
X117086017Y-96882969D01*
X117174495Y-97015387D01*
X117174501Y-97015394D01*
X117287105Y-97127998D01*
X117287112Y-97128004D01*
X117419530Y-97216482D01*
X117419531Y-97216482D01*
X117419532Y-97216483D01*
X117566669Y-97277430D01*
X117722865Y-97308499D01*
X117722869Y-97308500D01*
X117722870Y-97308500D01*
X117882131Y-97308500D01*
X117882132Y-97308499D01*
X118038331Y-97277430D01*
X118185468Y-97216483D01*
X118278387Y-97154396D01*
X118345064Y-97133520D01*
X118347277Y-97133500D01*
X121953495Y-97133500D01*
X121953496Y-97133499D01*
X122075885Y-97109155D01*
X122191175Y-97061400D01*
X122294933Y-96992071D01*
X123202928Y-96084075D01*
X123264249Y-96050592D01*
X123333940Y-96055576D01*
X123363487Y-96071436D01*
X123487991Y-96161894D01*
X123581438Y-96209507D01*
X123678516Y-96258972D01*
X123678522Y-96258974D01*
X123855775Y-96316566D01*
X123913451Y-96356003D01*
X123940650Y-96420361D01*
X123928736Y-96489208D01*
X123905139Y-96522178D01*
X122722138Y-97705181D01*
X122660815Y-97738666D01*
X122634457Y-97741500D01*
X117227390Y-97741500D01*
X117154124Y-97756074D01*
X117080860Y-97770646D01*
X117080856Y-97770648D01*
X117080854Y-97770648D01*
X117080853Y-97770649D01*
X117060197Y-97779205D01*
X117023674Y-97794333D01*
X116942819Y-97827824D01*
X116942809Y-97827829D01*
X116845092Y-97893123D01*
X116845091Y-97893124D01*
X116818581Y-97910836D01*
X116818580Y-97910837D01*
X115633004Y-99096414D01*
X115571681Y-99129899D01*
X115501989Y-99124915D01*
X115446056Y-99083043D01*
X115445005Y-99081618D01*
X115402997Y-99023799D01*
X115402993Y-99023794D01*
X115236209Y-98857010D01*
X115236203Y-98857005D01*
X115045388Y-98718370D01*
X115045387Y-98718369D01*
X115045385Y-98718368D01*
X114908539Y-98648641D01*
X114835221Y-98611283D01*
X114610901Y-98538398D01*
X114377940Y-98501500D01*
X114377935Y-98501500D01*
X114142065Y-98501500D01*
X114142060Y-98501500D01*
X113909098Y-98538398D01*
X113684778Y-98611283D01*
X113474611Y-98718370D01*
X113283796Y-98857005D01*
X113283790Y-98857010D01*
X113117010Y-99023790D01*
X113117005Y-99023796D01*
X112978370Y-99214611D01*
X112871283Y-99424778D01*
X112798398Y-99649098D01*
X112761500Y-99882059D01*
X112761500Y-100117940D01*
X112798398Y-100350901D01*
X112871283Y-100575221D01*
X112908070Y-100647419D01*
X112977242Y-100783176D01*
X112978370Y-100785388D01*
X113019464Y-100841949D01*
X113117008Y-100976207D01*
X113283793Y-101142992D01*
X113320529Y-101169682D01*
X113363194Y-101225013D01*
X113369173Y-101294626D01*
X113336567Y-101356421D01*
X113320531Y-101370315D01*
X113304649Y-101381854D01*
X113283791Y-101397009D01*
X113117010Y-101563790D01*
X113117005Y-101563796D01*
X112978370Y-101754611D01*
X112871283Y-101964778D01*
X112798398Y-102189098D01*
X112761500Y-102422059D01*
X112761500Y-102657940D01*
X112798398Y-102890901D01*
X112871283Y-103115221D01*
X112871285Y-103115224D01*
X112978368Y-103325385D01*
X113117008Y-103516207D01*
X113283793Y-103682992D01*
X113283796Y-103682994D01*
X113349204Y-103730516D01*
X113391870Y-103785846D01*
X113399937Y-103840563D01*
X113398053Y-103864500D01*
X114004858Y-104471304D01*
X113947373Y-104495116D01*
X113839275Y-104567345D01*
X113747345Y-104659275D01*
X113675116Y-104767373D01*
X113651304Y-104824858D01*
X113044499Y-104218053D01*
X113044498Y-104218053D01*
X112985639Y-104299068D01*
X112879164Y-104508034D01*
X112806689Y-104731090D01*
X112770000Y-104962734D01*
X112770000Y-105197265D01*
X112806689Y-105428909D01*
X112879164Y-105651965D01*
X112985640Y-105860933D01*
X113044498Y-105941945D01*
X113044499Y-105941945D01*
X113651304Y-105335140D01*
X113675116Y-105392627D01*
X113747345Y-105500725D01*
X113839275Y-105592655D01*
X113947373Y-105664884D01*
X114004858Y-105688695D01*
X113398053Y-106295498D01*
X113399937Y-106319436D01*
X113385573Y-106387813D01*
X113349205Y-106429482D01*
X113283799Y-106477003D01*
X113283790Y-106477010D01*
X113117010Y-106643790D01*
X113117005Y-106643796D01*
X112978370Y-106834611D01*
X112871283Y-107044778D01*
X112798398Y-107269098D01*
X112761500Y-107502059D01*
X112761500Y-107737940D01*
X112798398Y-107970901D01*
X112871283Y-108195221D01*
X112871285Y-108195224D01*
X112978368Y-108405385D01*
X113117008Y-108596207D01*
X113283793Y-108762992D01*
X113320529Y-108789682D01*
X113363194Y-108845013D01*
X113369173Y-108914626D01*
X113336567Y-108976421D01*
X113320531Y-108990315D01*
X113307957Y-108999452D01*
X113283791Y-109017009D01*
X113117010Y-109183790D01*
X113117005Y-109183796D01*
X112978370Y-109374611D01*
X112871283Y-109584778D01*
X112798398Y-109809098D01*
X112761500Y-110042059D01*
X112761500Y-110277940D01*
X112798398Y-110510901D01*
X112871283Y-110735221D01*
X112871285Y-110735224D01*
X112978368Y-110945385D01*
X113117008Y-111136207D01*
X113283793Y-111302992D01*
X113320529Y-111329682D01*
X113363194Y-111385013D01*
X113369173Y-111454626D01*
X113336567Y-111516421D01*
X113320531Y-111530315D01*
X113304649Y-111541854D01*
X113283791Y-111557009D01*
X113117010Y-111723790D01*
X113117005Y-111723796D01*
X112978370Y-111914611D01*
X112871283Y-112124778D01*
X112798398Y-112349098D01*
X112761500Y-112582059D01*
X112761500Y-112817940D01*
X112798398Y-113050901D01*
X112871283Y-113275221D01*
X112871285Y-113275224D01*
X112978368Y-113485385D01*
X113117008Y-113676207D01*
X113283793Y-113842992D01*
X113320529Y-113869682D01*
X113363194Y-113925013D01*
X113369173Y-113994626D01*
X113336567Y-114056421D01*
X113320531Y-114070315D01*
X113304649Y-114081854D01*
X113283791Y-114097009D01*
X113117010Y-114263790D01*
X113117005Y-114263796D01*
X112978370Y-114454611D01*
X112871283Y-114664778D01*
X112798398Y-114889098D01*
X112761500Y-115122059D01*
X112761500Y-115357940D01*
X112798398Y-115590901D01*
X112871283Y-115815221D01*
X112978370Y-116025388D01*
X113077010Y-116161155D01*
X113117008Y-116216207D01*
X113283793Y-116382992D01*
X113283796Y-116382994D01*
X113349204Y-116430516D01*
X113391870Y-116485846D01*
X113399937Y-116540563D01*
X113398053Y-116564500D01*
X114004858Y-117171304D01*
X113947373Y-117195116D01*
X113839275Y-117267345D01*
X113747345Y-117359275D01*
X113675116Y-117467373D01*
X113651304Y-117524858D01*
X113044499Y-116918053D01*
X113044498Y-116918053D01*
X112985639Y-116999068D01*
X112879164Y-117208034D01*
X112806689Y-117431090D01*
X112770000Y-117662734D01*
X112770000Y-117897265D01*
X112806689Y-118128909D01*
X112879164Y-118351965D01*
X112985640Y-118560933D01*
X113044498Y-118641945D01*
X113044499Y-118641945D01*
X113651304Y-118035140D01*
X113675116Y-118092627D01*
X113747345Y-118200725D01*
X113839275Y-118292655D01*
X113947373Y-118364884D01*
X114004858Y-118388695D01*
X113398052Y-118995499D01*
X113398053Y-118995500D01*
X113479066Y-119054359D01*
X113688034Y-119160835D01*
X113911090Y-119233310D01*
X114142735Y-119270000D01*
X114377265Y-119270000D01*
X114608909Y-119233310D01*
X114831965Y-119160835D01*
X115040930Y-119054361D01*
X115121945Y-118995499D01*
X115121946Y-118995499D01*
X114515141Y-118388695D01*
X114572627Y-118364884D01*
X114680725Y-118292655D01*
X114772655Y-118200725D01*
X114844884Y-118092627D01*
X114868695Y-118035141D01*
X115475499Y-118641946D01*
X115475499Y-118641945D01*
X115534361Y-118560930D01*
X115640835Y-118351965D01*
X115713310Y-118128909D01*
X115750000Y-117897265D01*
X115750000Y-117662734D01*
X115713310Y-117431090D01*
X115640835Y-117208034D01*
X115534359Y-116999066D01*
X115475500Y-116918053D01*
X115475499Y-116918052D01*
X114868694Y-117524857D01*
X114844884Y-117467373D01*
X114772655Y-117359275D01*
X114680725Y-117267345D01*
X114572627Y-117195116D01*
X114515141Y-117171304D01*
X115121945Y-116564500D01*
X115120061Y-116540566D01*
X115134424Y-116472188D01*
X115170793Y-116430517D01*
X115225825Y-116390534D01*
X115236203Y-116382995D01*
X115236203Y-116382994D01*
X115236207Y-116382992D01*
X115402992Y-116216207D01*
X115541632Y-116025385D01*
X115648715Y-115815224D01*
X115721602Y-115590900D01*
X115751917Y-115399500D01*
X115758500Y-115357940D01*
X115758500Y-115122067D01*
X115758499Y-115122059D01*
X115740788Y-115010241D01*
X115749742Y-114940952D01*
X115775577Y-114903168D01*
X122527522Y-108151225D01*
X122618738Y-108014710D01*
X122681569Y-107863023D01*
X122713600Y-107701993D01*
X122713600Y-107537807D01*
X122713600Y-106134908D01*
X122733285Y-106067869D01*
X122749914Y-106047232D01*
X128028766Y-100768379D01*
X128090087Y-100734896D01*
X128159779Y-100739880D01*
X128215712Y-100781752D01*
X128216763Y-100783176D01*
X128218368Y-100785385D01*
X128357008Y-100976207D01*
X128523793Y-101142992D01*
X128560529Y-101169682D01*
X128603194Y-101225013D01*
X128609173Y-101294626D01*
X128576567Y-101356421D01*
X128560531Y-101370315D01*
X128544649Y-101381854D01*
X128523791Y-101397009D01*
X128357010Y-101563790D01*
X128357005Y-101563796D01*
X128218370Y-101754611D01*
X128111283Y-101964778D01*
X128038398Y-102189098D01*
X128001500Y-102422059D01*
X128001500Y-102657940D01*
X128038398Y-102890901D01*
X128111283Y-103115221D01*
X128111285Y-103115224D01*
X128218368Y-103325385D01*
X128357008Y-103516207D01*
X128523793Y-103682992D01*
X128560529Y-103709682D01*
X128603194Y-103765013D01*
X128609173Y-103834626D01*
X128576567Y-103896421D01*
X128560531Y-103910315D01*
X128544649Y-103921854D01*
X128523791Y-103937009D01*
X128357010Y-104103790D01*
X128357005Y-104103796D01*
X128218370Y-104294611D01*
X128111283Y-104504778D01*
X128038398Y-104729098D01*
X128001500Y-104962059D01*
X128001500Y-105197940D01*
X128038398Y-105430901D01*
X128111283Y-105655221D01*
X128111285Y-105655224D01*
X128218368Y-105865385D01*
X128357008Y-106056207D01*
X128523793Y-106222992D01*
X128560529Y-106249682D01*
X128603194Y-106305013D01*
X128609173Y-106374626D01*
X128576567Y-106436421D01*
X128560531Y-106450315D01*
X128544649Y-106461854D01*
X128523791Y-106477009D01*
X128357010Y-106643790D01*
X128357005Y-106643796D01*
X128218370Y-106834611D01*
X128111283Y-107044778D01*
X128038398Y-107269098D01*
X128001500Y-107502059D01*
X128001500Y-107737940D01*
X128038398Y-107970901D01*
X128111283Y-108195221D01*
X128111285Y-108195224D01*
X128218368Y-108405385D01*
X128357008Y-108596207D01*
X128523793Y-108762992D01*
X128560529Y-108789682D01*
X128603194Y-108845013D01*
X128609173Y-108914626D01*
X128576567Y-108976421D01*
X128560531Y-108990315D01*
X128547957Y-108999452D01*
X128523791Y-109017009D01*
X128357010Y-109183790D01*
X128357005Y-109183796D01*
X128218370Y-109374611D01*
X128111283Y-109584778D01*
X128038398Y-109809098D01*
X128001500Y-110042059D01*
X128001500Y-110277940D01*
X128038398Y-110510901D01*
X128111283Y-110735221D01*
X128111285Y-110735224D01*
X128218368Y-110945385D01*
X128357008Y-111136207D01*
X128523793Y-111302992D01*
X128560529Y-111329682D01*
X128603194Y-111385013D01*
X128609173Y-111454626D01*
X128576567Y-111516421D01*
X128560531Y-111530315D01*
X128544649Y-111541854D01*
X128523791Y-111557009D01*
X128357010Y-111723790D01*
X128357005Y-111723796D01*
X128218370Y-111914611D01*
X128111283Y-112124778D01*
X128038398Y-112349098D01*
X128001500Y-112582059D01*
X128001500Y-112817940D01*
X128038398Y-113050901D01*
X128111283Y-113275221D01*
X128111285Y-113275224D01*
X128218368Y-113485385D01*
X128357008Y-113676207D01*
X128523793Y-113842992D01*
X128560529Y-113869682D01*
X128603194Y-113925013D01*
X128609173Y-113994626D01*
X128576567Y-114056421D01*
X128560531Y-114070315D01*
X128544649Y-114081854D01*
X128523791Y-114097009D01*
X128357010Y-114263790D01*
X128357005Y-114263796D01*
X128218370Y-114454611D01*
X128111283Y-114664778D01*
X128038398Y-114889098D01*
X128001500Y-115122059D01*
X128001500Y-115357940D01*
X128038398Y-115590901D01*
X128111283Y-115815221D01*
X128218370Y-116025388D01*
X128317010Y-116161155D01*
X128357008Y-116216207D01*
X128523793Y-116382992D01*
X128523796Y-116382994D01*
X128589204Y-116430516D01*
X128631870Y-116485846D01*
X128639937Y-116540563D01*
X128638053Y-116564500D01*
X129244858Y-117171304D01*
X129187373Y-117195116D01*
X129079275Y-117267345D01*
X128987345Y-117359275D01*
X128915116Y-117467373D01*
X128891304Y-117524858D01*
X128284499Y-116918053D01*
X128284498Y-116918053D01*
X128225639Y-116999068D01*
X128119164Y-117208034D01*
X128046689Y-117431090D01*
X128010000Y-117662734D01*
X128010000Y-117897265D01*
X128046689Y-118128909D01*
X128119164Y-118351965D01*
X128225640Y-118560933D01*
X128284498Y-118641945D01*
X128284499Y-118641945D01*
X128891304Y-118035140D01*
X128915116Y-118092627D01*
X128987345Y-118200725D01*
X129079275Y-118292655D01*
X129187373Y-118364884D01*
X129244858Y-118388695D01*
X128638052Y-118995499D01*
X128638053Y-118995500D01*
X128719066Y-119054359D01*
X128928034Y-119160835D01*
X129151090Y-119233310D01*
X129382735Y-119270000D01*
X129617265Y-119270000D01*
X129848909Y-119233310D01*
X130071965Y-119160835D01*
X130280930Y-119054361D01*
X130361945Y-118995499D01*
X130361946Y-118995499D01*
X129755141Y-118388695D01*
X129812627Y-118364884D01*
X129920725Y-118292655D01*
X130012655Y-118200725D01*
X130084884Y-118092627D01*
X130108695Y-118035141D01*
X130715499Y-118641946D01*
X130715499Y-118641945D01*
X130774361Y-118560930D01*
X130880835Y-118351965D01*
X130953310Y-118128909D01*
X130990000Y-117897265D01*
X130990000Y-117662734D01*
X130953310Y-117431090D01*
X130880835Y-117208034D01*
X130774359Y-116999066D01*
X130732938Y-116942054D01*
X130732935Y-116942051D01*
X130715499Y-116918052D01*
X130108694Y-117524857D01*
X130084884Y-117467373D01*
X130012655Y-117359275D01*
X129920725Y-117267345D01*
X129812627Y-117195116D01*
X129755141Y-117171304D01*
X130052407Y-116874038D01*
X154399500Y-116874038D01*
X154399500Y-117125961D01*
X154438910Y-117374785D01*
X154516760Y-117614383D01*
X154631132Y-117838848D01*
X154779201Y-118042649D01*
X154779205Y-118042654D01*
X154957345Y-118220794D01*
X154957350Y-118220798D01*
X155135117Y-118349952D01*
X155161155Y-118368870D01*
X155300756Y-118440000D01*
X155385616Y-118483239D01*
X155385618Y-118483239D01*
X155385621Y-118483241D01*
X155625215Y-118561090D01*
X155874038Y-118600500D01*
X155874039Y-118600500D01*
X156125961Y-118600500D01*
X156125962Y-118600500D01*
X156374785Y-118561090D01*
X156614379Y-118483241D01*
X156838845Y-118368870D01*
X157042656Y-118220793D01*
X157220793Y-118042656D01*
X157368870Y-117838845D01*
X157483241Y-117614379D01*
X157561090Y-117374785D01*
X157600500Y-117125962D01*
X157600500Y-116874038D01*
X157561090Y-116625215D01*
X157483241Y-116385621D01*
X157483239Y-116385618D01*
X157483239Y-116385616D01*
X157396918Y-116216203D01*
X157368870Y-116161155D01*
X157270228Y-116025385D01*
X157220798Y-115957350D01*
X157220794Y-115957345D01*
X157042654Y-115779205D01*
X157042649Y-115779201D01*
X156838848Y-115631132D01*
X156838847Y-115631131D01*
X156838845Y-115631130D01*
X156759889Y-115590900D01*
X156614383Y-115516760D01*
X156374785Y-115438910D01*
X156125962Y-115399500D01*
X155874038Y-115399500D01*
X155749626Y-115419205D01*
X155625214Y-115438910D01*
X155385616Y-115516760D01*
X155161151Y-115631132D01*
X154957350Y-115779201D01*
X154957345Y-115779205D01*
X154779205Y-115957345D01*
X154779201Y-115957350D01*
X154631132Y-116161151D01*
X154516760Y-116385616D01*
X154438910Y-116625214D01*
X154399500Y-116874038D01*
X130052407Y-116874038D01*
X130361945Y-116564500D01*
X130360061Y-116540566D01*
X130374424Y-116472188D01*
X130410793Y-116430517D01*
X130465825Y-116390534D01*
X130476203Y-116382995D01*
X130476203Y-116382994D01*
X130476207Y-116382992D01*
X130642992Y-116216207D01*
X130781632Y-116025385D01*
X130888715Y-115815224D01*
X130961602Y-115590900D01*
X130991917Y-115399500D01*
X130998500Y-115357940D01*
X130998500Y-115122059D01*
X130977034Y-114986534D01*
X130961602Y-114889100D01*
X130888715Y-114664776D01*
X130781632Y-114454615D01*
X130642992Y-114263793D01*
X130476207Y-114097008D01*
X130476203Y-114097004D01*
X130439473Y-114070319D01*
X130396806Y-114014989D01*
X130390827Y-113945376D01*
X130423432Y-113883581D01*
X130439473Y-113869681D01*
X130476203Y-113842995D01*
X130476203Y-113842994D01*
X130476207Y-113842992D01*
X130642992Y-113676207D01*
X130781632Y-113485385D01*
X130888715Y-113275224D01*
X130961602Y-113050900D01*
X130980611Y-112930877D01*
X130998500Y-112817940D01*
X130998500Y-112582059D01*
X130977034Y-112446534D01*
X130961602Y-112349100D01*
X130888715Y-112124776D01*
X130781632Y-111914615D01*
X130642992Y-111723793D01*
X130476207Y-111557008D01*
X130476203Y-111557004D01*
X130439473Y-111530319D01*
X130396806Y-111474989D01*
X130390827Y-111405376D01*
X130423432Y-111343581D01*
X130439473Y-111329681D01*
X130476203Y-111302995D01*
X130476203Y-111302994D01*
X130476207Y-111302992D01*
X130642992Y-111136207D01*
X130781632Y-110945385D01*
X130888715Y-110735224D01*
X130961602Y-110510900D01*
X130980611Y-110390877D01*
X130998500Y-110277940D01*
X130998500Y-110042059D01*
X130977034Y-109906534D01*
X130961602Y-109809100D01*
X130888715Y-109584776D01*
X130781632Y-109374615D01*
X130642992Y-109183793D01*
X130476207Y-109017008D01*
X130476203Y-109017004D01*
X130439473Y-108990319D01*
X130396806Y-108934989D01*
X130390827Y-108865376D01*
X130423432Y-108803581D01*
X130439473Y-108789681D01*
X130476203Y-108762995D01*
X130476203Y-108762994D01*
X130476207Y-108762992D01*
X130642992Y-108596207D01*
X130781632Y-108405385D01*
X130888715Y-108195224D01*
X130961602Y-107970900D01*
X130987267Y-107808859D01*
X130998500Y-107737940D01*
X130998500Y-107502059D01*
X130977034Y-107366534D01*
X130961602Y-107269100D01*
X130888715Y-107044776D01*
X130781632Y-106834615D01*
X130642992Y-106643793D01*
X130476207Y-106477008D01*
X130476203Y-106477004D01*
X130439473Y-106450319D01*
X130396806Y-106394989D01*
X130390827Y-106325376D01*
X130423432Y-106263581D01*
X130439473Y-106249681D01*
X130476203Y-106222995D01*
X130476203Y-106222994D01*
X130476207Y-106222992D01*
X130642992Y-106056207D01*
X130781632Y-105865385D01*
X130888715Y-105655224D01*
X130961602Y-105430900D01*
X130986688Y-105272515D01*
X130998500Y-105197940D01*
X130998500Y-104962059D01*
X130977034Y-104826534D01*
X130961602Y-104729100D01*
X130888715Y-104504776D01*
X130781632Y-104294615D01*
X130642992Y-104103793D01*
X130476207Y-103937008D01*
X130476203Y-103937004D01*
X130439473Y-103910319D01*
X130396806Y-103854989D01*
X130390827Y-103785376D01*
X130423432Y-103723581D01*
X130439473Y-103709681D01*
X130476203Y-103682995D01*
X130476203Y-103682994D01*
X130476207Y-103682992D01*
X130642992Y-103516207D01*
X130781632Y-103325385D01*
X130888715Y-103115224D01*
X130961602Y-102890900D01*
X130980611Y-102770877D01*
X130998500Y-102657940D01*
X130998500Y-102422059D01*
X130969448Y-102238637D01*
X130961602Y-102189100D01*
X130888715Y-101964776D01*
X130781632Y-101754615D01*
X130642992Y-101563793D01*
X130476207Y-101397008D01*
X130476203Y-101397004D01*
X130439473Y-101370319D01*
X130396806Y-101314989D01*
X130390827Y-101245376D01*
X130423432Y-101183581D01*
X130439473Y-101169681D01*
X130476203Y-101142995D01*
X130476203Y-101142994D01*
X130476207Y-101142992D01*
X130642992Y-100976207D01*
X130781632Y-100785385D01*
X130888715Y-100575224D01*
X130961602Y-100350900D01*
X130982209Y-100220793D01*
X130998500Y-100117940D01*
X130998500Y-99882059D01*
X130961602Y-99649099D01*
X130911798Y-99495818D01*
X130909803Y-99425977D01*
X130945883Y-99366144D01*
X131008584Y-99335316D01*
X131029729Y-99333500D01*
X133603391Y-99333500D01*
X133670430Y-99353185D01*
X133691072Y-99369819D01*
X136468671Y-102147419D01*
X136468679Y-102147425D01*
X136605187Y-102238637D01*
X136649616Y-102257040D01*
X136756877Y-102301469D01*
X136917902Y-102333499D01*
X136917905Y-102333500D01*
X136917907Y-102333500D01*
X142582095Y-102333500D01*
X142582096Y-102333499D01*
X142743123Y-102301469D01*
X142894810Y-102238638D01*
X142894810Y-102238637D01*
X142894812Y-102238637D01*
X142968952Y-102189098D01*
X143031325Y-102147422D01*
X146304709Y-98874038D01*
X154399500Y-98874038D01*
X154399500Y-99125962D01*
X154420183Y-99256548D01*
X154438910Y-99374785D01*
X154516760Y-99614383D01*
X154631132Y-99838848D01*
X154779201Y-100042649D01*
X154779205Y-100042654D01*
X154957345Y-100220794D01*
X154957350Y-100220798D01*
X155085443Y-100313862D01*
X155161155Y-100368870D01*
X155304184Y-100441747D01*
X155385616Y-100483239D01*
X155385618Y-100483239D01*
X155385621Y-100483241D01*
X155625215Y-100561090D01*
X155874038Y-100600500D01*
X155874039Y-100600500D01*
X156125961Y-100600500D01*
X156125962Y-100600500D01*
X156374785Y-100561090D01*
X156614379Y-100483241D01*
X156838845Y-100368870D01*
X157042656Y-100220793D01*
X157220793Y-100042656D01*
X157368870Y-99838845D01*
X157483241Y-99614379D01*
X157561090Y-99374785D01*
X157600500Y-99125962D01*
X157600500Y-98874038D01*
X157561090Y-98625215D01*
X157483241Y-98385621D01*
X157483239Y-98385618D01*
X157483239Y-98385616D01*
X157430124Y-98281373D01*
X157368870Y-98161155D01*
X157316015Y-98088406D01*
X157220798Y-97957350D01*
X157220794Y-97957345D01*
X157042654Y-97779205D01*
X157042649Y-97779201D01*
X156838848Y-97631132D01*
X156838847Y-97631131D01*
X156838845Y-97631130D01*
X156703066Y-97561947D01*
X156614383Y-97516760D01*
X156374785Y-97438910D01*
X156257287Y-97420300D01*
X156125962Y-97399500D01*
X155874038Y-97399500D01*
X155749626Y-97419205D01*
X155625214Y-97438910D01*
X155385616Y-97516760D01*
X155161151Y-97631132D01*
X154957350Y-97779201D01*
X154957345Y-97779205D01*
X154779205Y-97957345D01*
X154779201Y-97957350D01*
X154631132Y-98161151D01*
X154516760Y-98385616D01*
X154438910Y-98625214D01*
X154420945Y-98738638D01*
X154399500Y-98874038D01*
X146304709Y-98874038D01*
X147375428Y-97803319D01*
X147436751Y-97769834D01*
X147463109Y-97767000D01*
X148648997Y-97767000D01*
X148696449Y-97776438D01*
X148756877Y-97801469D01*
X148889372Y-97827824D01*
X148917902Y-97833499D01*
X148917905Y-97833500D01*
X148917907Y-97833500D01*
X151082095Y-97833500D01*
X151082096Y-97833499D01*
X151243123Y-97801469D01*
X151394810Y-97738638D01*
X151394810Y-97738637D01*
X151394812Y-97738637D01*
X151462609Y-97693335D01*
X151531325Y-97647422D01*
X151647422Y-97531325D01*
X151708453Y-97439985D01*
X151738637Y-97394812D01*
X151738638Y-97394810D01*
X151801469Y-97243123D01*
X151833500Y-97082093D01*
X151833500Y-96476886D01*
X151853185Y-96409847D01*
X151905989Y-96364092D01*
X151944239Y-96353597D01*
X151959201Y-96351989D01*
X151959206Y-96351987D01*
X151959207Y-96351987D01*
X151987248Y-96341528D01*
X152096204Y-96300889D01*
X152213261Y-96213261D01*
X152300889Y-96096204D01*
X152351989Y-95959201D01*
X152357999Y-95903300D01*
X152358499Y-95898654D01*
X152358500Y-95898637D01*
X152358500Y-94101362D01*
X152358499Y-94101345D01*
X152355018Y-94068971D01*
X152351989Y-94040799D01*
X152345956Y-94024625D01*
X152321820Y-93959914D01*
X152300889Y-93903796D01*
X152213261Y-93786739D01*
X152096204Y-93699111D01*
X152072238Y-93690172D01*
X151959203Y-93648011D01*
X151898654Y-93641500D01*
X151898638Y-93641500D01*
X150101362Y-93641500D01*
X150101345Y-93641500D01*
X150040797Y-93648011D01*
X150040795Y-93648011D01*
X149903795Y-93699111D01*
X149786739Y-93786739D01*
X149699111Y-93903795D01*
X149654043Y-94024625D01*
X149612171Y-94080558D01*
X149546707Y-94104974D01*
X149478434Y-94090122D01*
X149450181Y-94068971D01*
X149345006Y-93963796D01*
X149345004Y-93963794D01*
X149172009Y-93838106D01*
X149171483Y-93837838D01*
X148981483Y-93741027D01*
X148981480Y-93741026D01*
X148778117Y-93674951D01*
X148672516Y-93658225D01*
X148566916Y-93641500D01*
X148353084Y-93641500D01*
X148282684Y-93652650D01*
X148141882Y-93674951D01*
X147938519Y-93741026D01*
X147938516Y-93741027D01*
X147747990Y-93838106D01*
X147574993Y-93963796D01*
X147423796Y-94114993D01*
X147423791Y-94114999D01*
X147423507Y-94115391D01*
X147423360Y-94115503D01*
X147420630Y-94118701D01*
X147419958Y-94118127D01*
X147368175Y-94158053D01*
X147323193Y-94166500D01*
X145917904Y-94166500D01*
X145756884Y-94198529D01*
X145756876Y-94198531D01*
X145605187Y-94261362D01*
X145468679Y-94352574D01*
X145468671Y-94352580D01*
X143691072Y-96130181D01*
X143629749Y-96163666D01*
X143603391Y-96166500D01*
X142670187Y-96166500D01*
X142603148Y-96146815D01*
X142557393Y-96094011D01*
X142547449Y-96024853D01*
X142576474Y-95961297D01*
X142582506Y-95954819D01*
X143464836Y-95072489D01*
X146121010Y-92416313D01*
X146121017Y-92416308D01*
X146128077Y-92409248D01*
X146128079Y-92409247D01*
X146230247Y-92307079D01*
X146278366Y-92235062D01*
X146310519Y-92186943D01*
X146326713Y-92147844D01*
X146365812Y-92053454D01*
X146388338Y-91940209D01*
X146420722Y-91878298D01*
X146481438Y-91843724D01*
X146509955Y-91840400D01*
X150155195Y-91840400D01*
X150155196Y-91840399D01*
X150316223Y-91808369D01*
X150467910Y-91745538D01*
X150467910Y-91745537D01*
X150467912Y-91745537D01*
X150535709Y-91700235D01*
X150604425Y-91654322D01*
X154285530Y-87973215D01*
X154346851Y-87939732D01*
X154388185Y-87938552D01*
X154388220Y-87938118D01*
X154392263Y-87938436D01*
X154392614Y-87938426D01*
X154393081Y-87938500D01*
X154393084Y-87938500D01*
X154606915Y-87938500D01*
X154606916Y-87938500D01*
X154818116Y-87905049D01*
X155021483Y-87838972D01*
X155212009Y-87741894D01*
X155385004Y-87616206D01*
X155536206Y-87465004D01*
X155661894Y-87292009D01*
X155758972Y-87101483D01*
X155825049Y-86898116D01*
X155858500Y-86686916D01*
X155858500Y-86473084D01*
X155825049Y-86261884D01*
X155783335Y-86133499D01*
X155758973Y-86058519D01*
X155758972Y-86058516D01*
X155661893Y-85867990D01*
X155536206Y-85694996D01*
X155385004Y-85543794D01*
X155212009Y-85418106D01*
X155212005Y-85418103D01*
X155208132Y-85415730D01*
X155161254Y-85363920D01*
X155149829Y-85294991D01*
X155177483Y-85230827D01*
X155208132Y-85204270D01*
X155212005Y-85201896D01*
X155212004Y-85201896D01*
X155212009Y-85201894D01*
X155385004Y-85076206D01*
X155536206Y-84925004D01*
X155661894Y-84752009D01*
X155758972Y-84561483D01*
X155825049Y-84358116D01*
X155858500Y-84146916D01*
X155858500Y-83933084D01*
X155825049Y-83721884D01*
X155758972Y-83518517D01*
X155758972Y-83518516D01*
X155661893Y-83327990D01*
X155604556Y-83249072D01*
X155536206Y-83154996D01*
X155431028Y-83049818D01*
X155397543Y-82988495D01*
X155402527Y-82918803D01*
X155444399Y-82862870D01*
X155475367Y-82845959D01*
X155596204Y-82800889D01*
X155713261Y-82713261D01*
X155800889Y-82596204D01*
X155851989Y-82459201D01*
X155855591Y-82425692D01*
X155858499Y-82398654D01*
X155858500Y-82398637D01*
X155858500Y-80601362D01*
X155858499Y-80601345D01*
X155853972Y-80559244D01*
X155851989Y-80540799D01*
X155800889Y-80403796D01*
X155713261Y-80286739D01*
X155596204Y-80199111D01*
X155459203Y-80148011D01*
X155398654Y-80141500D01*
X155398638Y-80141500D01*
X153601362Y-80141500D01*
X153601345Y-80141500D01*
X153540797Y-80148011D01*
X153540795Y-80148011D01*
X153403795Y-80199111D01*
X153286739Y-80286739D01*
X153199111Y-80403795D01*
X153148011Y-80540795D01*
X153148011Y-80540797D01*
X153141500Y-80601345D01*
X153141500Y-82398654D01*
X153148011Y-82459202D01*
X153148011Y-82459204D01*
X153194841Y-82584755D01*
X153199111Y-82596204D01*
X153286739Y-82713261D01*
X153403796Y-82800889D01*
X153524626Y-82845956D01*
X153580557Y-82887827D01*
X153604974Y-82953291D01*
X153590122Y-83021564D01*
X153568972Y-83049818D01*
X153463793Y-83154997D01*
X153338106Y-83327990D01*
X153241027Y-83518516D01*
X153241026Y-83518519D01*
X153174951Y-83721882D01*
X153141500Y-83933084D01*
X153141500Y-84146915D01*
X153174951Y-84358117D01*
X153241026Y-84561480D01*
X153241027Y-84561483D01*
X153316381Y-84709372D01*
X153338106Y-84752009D01*
X153463794Y-84925004D01*
X153614996Y-85076206D01*
X153787991Y-85201894D01*
X153791873Y-85204273D01*
X153838748Y-85256086D01*
X153850169Y-85325016D01*
X153822512Y-85389178D01*
X153791873Y-85415727D01*
X153787991Y-85418105D01*
X153614993Y-85543796D01*
X153463796Y-85694993D01*
X153338106Y-85867990D01*
X153241027Y-86058516D01*
X153241026Y-86058519D01*
X153174951Y-86261882D01*
X153141500Y-86473084D01*
X153141500Y-86686918D01*
X153141576Y-86687399D01*
X153141552Y-86687583D01*
X153141882Y-86691778D01*
X153141000Y-86691847D01*
X153132616Y-86756691D01*
X153106782Y-86794469D01*
X149764172Y-90137081D01*
X149702849Y-90170566D01*
X149676491Y-90173400D01*
X148476460Y-90173400D01*
X148409421Y-90153715D01*
X148363666Y-90100911D01*
X148353722Y-90031753D01*
X148382747Y-89968197D01*
X148388779Y-89961719D01*
X148498068Y-89852430D01*
X148619129Y-89685803D01*
X148712634Y-89502290D01*
X148776280Y-89306408D01*
X148808500Y-89102981D01*
X148808500Y-88897019D01*
X148800955Y-88849380D01*
X148776280Y-88693591D01*
X148722685Y-88528644D01*
X148712634Y-88497710D01*
X148712632Y-88497707D01*
X148712632Y-88497705D01*
X148658182Y-88390843D01*
X148619129Y-88314197D01*
X148603661Y-88292908D01*
X148498073Y-88147576D01*
X148498069Y-88147571D01*
X148352428Y-88001930D01*
X148352423Y-88001926D01*
X148185806Y-87880873D01*
X148185805Y-87880872D01*
X148185803Y-87880871D01*
X148103572Y-87838972D01*
X148002294Y-87787367D01*
X147806408Y-87723719D01*
X147630794Y-87695905D01*
X147602981Y-87691500D01*
X147397019Y-87691500D01*
X147372550Y-87695375D01*
X147193591Y-87723719D01*
X146997705Y-87787367D01*
X146814193Y-87880873D01*
X146647576Y-88001926D01*
X146647571Y-88001930D01*
X146501930Y-88147571D01*
X146501926Y-88147576D01*
X146380007Y-88315385D01*
X146324677Y-88358051D01*
X146279689Y-88366500D01*
X142212401Y-88366500D01*
X142090022Y-88390843D01*
X142090014Y-88390845D01*
X141974727Y-88438598D01*
X141974718Y-88438603D01*
X141870967Y-88507928D01*
X141870963Y-88507931D01*
X137850615Y-92528281D01*
X137789292Y-92561766D01*
X137762934Y-92564600D01*
X101011866Y-92564600D01*
X100944827Y-92544915D01*
X100924185Y-92528281D01*
X98970592Y-90574688D01*
X98937107Y-90513365D01*
X98940341Y-90448691D01*
X98971356Y-90353241D01*
X99002958Y-90153715D01*
X99008500Y-90118727D01*
X99008500Y-89881272D01*
X98971356Y-89646758D01*
X98897980Y-89420932D01*
X98790184Y-89209372D01*
X98650620Y-89017278D01*
X98482722Y-88849380D01*
X98290627Y-88709815D01*
X98079067Y-88602019D01*
X97853241Y-88528643D01*
X97618727Y-88491500D01*
X97618722Y-88491500D01*
X97381278Y-88491500D01*
X97381273Y-88491500D01*
X97146758Y-88528643D01*
X96920932Y-88602019D01*
X96709372Y-88709815D01*
X96517275Y-88849382D01*
X96349382Y-89017275D01*
X96209815Y-89209372D01*
X96164252Y-89298795D01*
X96116277Y-89349591D01*
X96053767Y-89366500D01*
X92446233Y-89366500D01*
X92379194Y-89346815D01*
X92335748Y-89298795D01*
X92290184Y-89209372D01*
X92150620Y-89017278D01*
X91982722Y-88849380D01*
X91790627Y-88709815D01*
X91579067Y-88602019D01*
X91353241Y-88528643D01*
X91118727Y-88491500D01*
X91118722Y-88491500D01*
X90881278Y-88491500D01*
X90881273Y-88491500D01*
X90646758Y-88528643D01*
X90420932Y-88602019D01*
X90209372Y-88709815D01*
X90017275Y-88849382D01*
X89849382Y-89017275D01*
X89709815Y-89209372D01*
X89602019Y-89420932D01*
X89528643Y-89646758D01*
X89491500Y-89881272D01*
X86050500Y-89881272D01*
X86050500Y-85381272D01*
X89491500Y-85381272D01*
X89491500Y-85618727D01*
X89528643Y-85853241D01*
X89602019Y-86079067D01*
X89664252Y-86201205D01*
X89709815Y-86290627D01*
X89849380Y-86482722D01*
X90017278Y-86650620D01*
X90209373Y-86790185D01*
X90309328Y-86841114D01*
X90420932Y-86897980D01*
X90420934Y-86897980D01*
X90420937Y-86897982D01*
X90541984Y-86937312D01*
X90646758Y-86971356D01*
X90881273Y-87008500D01*
X90881278Y-87008500D01*
X91118727Y-87008500D01*
X91353241Y-86971356D01*
X91579063Y-86897982D01*
X91790627Y-86790185D01*
X91982722Y-86650620D01*
X92150620Y-86482722D01*
X92290185Y-86290627D01*
X92335748Y-86201205D01*
X92383723Y-86150409D01*
X92446233Y-86133500D01*
X96053767Y-86133500D01*
X96120806Y-86153185D01*
X96164252Y-86201205D01*
X96209815Y-86290627D01*
X96349380Y-86482722D01*
X96517278Y-86650620D01*
X96709373Y-86790185D01*
X96809328Y-86841114D01*
X96920932Y-86897980D01*
X96920934Y-86897980D01*
X96920937Y-86897982D01*
X97041984Y-86937312D01*
X97146758Y-86971356D01*
X97381273Y-87008500D01*
X97381278Y-87008500D01*
X97618727Y-87008500D01*
X97853241Y-86971356D01*
X98079063Y-86897982D01*
X98290627Y-86790185D01*
X98482722Y-86650620D01*
X98650620Y-86482722D01*
X98790185Y-86290627D01*
X98835748Y-86201205D01*
X98883723Y-86150409D01*
X98946233Y-86133500D01*
X105013395Y-86133500D01*
X105013396Y-86133499D01*
X105135785Y-86109155D01*
X105251075Y-86061400D01*
X105354833Y-85992071D01*
X107938262Y-83408641D01*
X141084000Y-83408641D01*
X141084000Y-83571358D01*
X141115740Y-83730927D01*
X141115742Y-83730935D01*
X141178006Y-83881255D01*
X141178011Y-83881264D01*
X141268403Y-84016544D01*
X141268406Y-84016548D01*
X141383451Y-84131593D01*
X141383455Y-84131596D01*
X141518735Y-84221988D01*
X141518741Y-84221991D01*
X141518742Y-84221992D01*
X141669065Y-84284258D01*
X141828641Y-84315999D01*
X141828645Y-84316000D01*
X141828646Y-84316000D01*
X141991355Y-84316000D01*
X141991356Y-84315999D01*
X142150935Y-84284258D01*
X142301258Y-84221992D01*
X142436545Y-84131596D01*
X142551596Y-84016545D01*
X142641992Y-83881258D01*
X142704258Y-83730935D01*
X142736000Y-83571354D01*
X142736000Y-83408646D01*
X142704258Y-83249065D01*
X142641992Y-83098742D01*
X142641991Y-83098741D01*
X142641988Y-83098735D01*
X142551596Y-82963455D01*
X142551593Y-82963451D01*
X142436548Y-82848406D01*
X142436544Y-82848403D01*
X142301264Y-82758011D01*
X142301255Y-82758006D01*
X142150935Y-82695742D01*
X142150927Y-82695740D01*
X141991358Y-82664000D01*
X141991354Y-82664000D01*
X141828646Y-82664000D01*
X141828641Y-82664000D01*
X141669072Y-82695740D01*
X141669064Y-82695742D01*
X141518744Y-82758006D01*
X141518735Y-82758011D01*
X141383455Y-82848403D01*
X141383451Y-82848406D01*
X141268406Y-82963451D01*
X141268403Y-82963455D01*
X141178011Y-83098735D01*
X141178006Y-83098744D01*
X141115742Y-83249064D01*
X141115740Y-83249072D01*
X141084000Y-83408641D01*
X107938262Y-83408641D01*
X110069221Y-81277682D01*
X146200000Y-81277682D01*
X146200000Y-81482317D01*
X146232009Y-81684417D01*
X146295244Y-81879031D01*
X146388141Y-82061350D01*
X146388147Y-82061359D01*
X146420523Y-82105921D01*
X146420524Y-82105922D01*
X147100000Y-81426446D01*
X147100000Y-81432661D01*
X147127259Y-81534394D01*
X147179920Y-81625606D01*
X147254394Y-81700080D01*
X147345606Y-81752741D01*
X147447339Y-81780000D01*
X147453553Y-81780000D01*
X146774076Y-82459474D01*
X146818650Y-82491859D01*
X147000968Y-82584755D01*
X147195582Y-82647990D01*
X147397683Y-82680000D01*
X147602317Y-82680000D01*
X147804417Y-82647990D01*
X147999031Y-82584755D01*
X148181349Y-82491859D01*
X148225921Y-82459474D01*
X147546447Y-81780000D01*
X147552661Y-81780000D01*
X147654394Y-81752741D01*
X147745606Y-81700080D01*
X147820080Y-81625606D01*
X147872741Y-81534394D01*
X147900000Y-81432661D01*
X147900000Y-81426447D01*
X148579474Y-82105921D01*
X148611859Y-82061349D01*
X148704755Y-81879031D01*
X148767990Y-81684417D01*
X148800000Y-81482317D01*
X148800000Y-81277682D01*
X148767990Y-81075582D01*
X148704755Y-80880968D01*
X148611859Y-80698650D01*
X148579474Y-80654077D01*
X148579474Y-80654076D01*
X147900000Y-81333551D01*
X147900000Y-81327339D01*
X147872741Y-81225606D01*
X147820080Y-81134394D01*
X147745606Y-81059920D01*
X147654394Y-81007259D01*
X147552661Y-80980000D01*
X147546446Y-80980000D01*
X148225922Y-80300524D01*
X148225921Y-80300523D01*
X148181359Y-80268147D01*
X148181350Y-80268141D01*
X147999031Y-80175244D01*
X147804417Y-80112009D01*
X147602317Y-80080000D01*
X147397683Y-80080000D01*
X147195582Y-80112009D01*
X147000968Y-80175244D01*
X146818644Y-80268143D01*
X146774077Y-80300523D01*
X146774077Y-80300524D01*
X147453554Y-80980000D01*
X147447339Y-80980000D01*
X147345606Y-81007259D01*
X147254394Y-81059920D01*
X147179920Y-81134394D01*
X147127259Y-81225606D01*
X147100000Y-81327339D01*
X147100000Y-81333553D01*
X146420524Y-80654077D01*
X146420523Y-80654077D01*
X146388143Y-80698644D01*
X146295244Y-80880968D01*
X146232009Y-81075582D01*
X146200000Y-81277682D01*
X110069221Y-81277682D01*
X110502870Y-80844033D01*
X110564191Y-80810550D01*
X110633883Y-80815534D01*
X110663430Y-80831395D01*
X110787991Y-80921894D01*
X110843152Y-80950000D01*
X110978516Y-81018972D01*
X110978519Y-81018973D01*
X111045316Y-81040676D01*
X111181884Y-81085049D01*
X111393084Y-81118500D01*
X111393085Y-81118500D01*
X111606915Y-81118500D01*
X111606916Y-81118500D01*
X111818116Y-81085049D01*
X112021483Y-81018972D01*
X112212009Y-80921894D01*
X112385004Y-80796206D01*
X112536206Y-80645004D01*
X112661894Y-80472009D01*
X112661896Y-80472004D01*
X112664270Y-80468132D01*
X112716080Y-80421254D01*
X112785009Y-80409829D01*
X112849173Y-80437483D01*
X112875730Y-80468132D01*
X112878103Y-80472005D01*
X112878105Y-80472008D01*
X112878106Y-80472009D01*
X113003794Y-80645004D01*
X113154996Y-80796206D01*
X113327991Y-80921894D01*
X113383152Y-80950000D01*
X113518516Y-81018972D01*
X113518519Y-81018973D01*
X113585316Y-81040676D01*
X113721884Y-81085049D01*
X113933084Y-81118500D01*
X113933085Y-81118500D01*
X114146915Y-81118500D01*
X114146916Y-81118500D01*
X114358116Y-81085049D01*
X114561483Y-81018972D01*
X114752009Y-80921894D01*
X114925004Y-80796206D01*
X115076206Y-80645004D01*
X115201894Y-80472009D01*
X115201896Y-80472004D01*
X115204270Y-80468132D01*
X115256080Y-80421254D01*
X115325009Y-80409829D01*
X115389173Y-80437483D01*
X115415730Y-80468132D01*
X115418103Y-80472005D01*
X115418105Y-80472008D01*
X115418106Y-80472009D01*
X115543794Y-80645004D01*
X115694996Y-80796206D01*
X115867991Y-80921894D01*
X115923152Y-80950000D01*
X116058516Y-81018972D01*
X116058519Y-81018973D01*
X116125316Y-81040676D01*
X116261884Y-81085049D01*
X116473084Y-81118500D01*
X116473085Y-81118500D01*
X116686915Y-81118500D01*
X116686916Y-81118500D01*
X116898116Y-81085049D01*
X117101483Y-81018972D01*
X117292009Y-80921894D01*
X117465004Y-80796206D01*
X117616206Y-80645004D01*
X117741894Y-80472009D01*
X117741896Y-80472004D01*
X117744270Y-80468132D01*
X117796080Y-80421254D01*
X117865009Y-80409829D01*
X117929173Y-80437483D01*
X117955730Y-80468132D01*
X117958103Y-80472005D01*
X117958105Y-80472008D01*
X117958106Y-80472009D01*
X118083794Y-80645004D01*
X118234996Y-80796206D01*
X118407991Y-80921894D01*
X118463152Y-80950000D01*
X118598516Y-81018972D01*
X118598519Y-81018973D01*
X118665316Y-81040676D01*
X118801884Y-81085049D01*
X119013084Y-81118500D01*
X119013085Y-81118500D01*
X119226915Y-81118500D01*
X119226916Y-81118500D01*
X119438116Y-81085049D01*
X119641483Y-81018972D01*
X119832009Y-80921894D01*
X120005004Y-80796206D01*
X120156206Y-80645004D01*
X120281894Y-80472009D01*
X120281896Y-80472004D01*
X120284270Y-80468132D01*
X120336080Y-80421254D01*
X120405009Y-80409829D01*
X120469173Y-80437483D01*
X120495730Y-80468132D01*
X120498103Y-80472005D01*
X120498105Y-80472008D01*
X120498106Y-80472009D01*
X120623794Y-80645004D01*
X120774996Y-80796206D01*
X120947991Y-80921894D01*
X121003152Y-80950000D01*
X121138516Y-81018972D01*
X121138519Y-81018973D01*
X121205316Y-81040676D01*
X121341884Y-81085049D01*
X121553084Y-81118500D01*
X121553085Y-81118500D01*
X121766915Y-81118500D01*
X121766916Y-81118500D01*
X121978116Y-81085049D01*
X122181483Y-81018972D01*
X122372009Y-80921894D01*
X122545004Y-80796206D01*
X122696206Y-80645004D01*
X122821894Y-80472009D01*
X122821896Y-80472004D01*
X122824270Y-80468132D01*
X122876080Y-80421254D01*
X122945009Y-80409829D01*
X123009173Y-80437483D01*
X123035730Y-80468132D01*
X123038103Y-80472005D01*
X123038105Y-80472008D01*
X123038106Y-80472009D01*
X123163794Y-80645004D01*
X123314996Y-80796206D01*
X123487991Y-80921894D01*
X123543152Y-80950000D01*
X123678516Y-81018972D01*
X123678519Y-81018973D01*
X123745316Y-81040676D01*
X123881884Y-81085049D01*
X124093084Y-81118500D01*
X124093085Y-81118500D01*
X124306915Y-81118500D01*
X124306916Y-81118500D01*
X124518116Y-81085049D01*
X124721483Y-81018972D01*
X124912009Y-80921894D01*
X125085004Y-80796206D01*
X125236206Y-80645004D01*
X125361894Y-80472009D01*
X125361896Y-80472004D01*
X125364270Y-80468132D01*
X125416080Y-80421254D01*
X125485009Y-80409829D01*
X125549173Y-80437483D01*
X125575730Y-80468132D01*
X125578103Y-80472005D01*
X125578105Y-80472008D01*
X125578106Y-80472009D01*
X125703794Y-80645004D01*
X125854996Y-80796206D01*
X126027991Y-80921894D01*
X126083152Y-80950000D01*
X126218516Y-81018972D01*
X126218519Y-81018973D01*
X126285316Y-81040676D01*
X126421884Y-81085049D01*
X126633084Y-81118500D01*
X126633085Y-81118500D01*
X126846915Y-81118500D01*
X126846916Y-81118500D01*
X127058116Y-81085049D01*
X127261483Y-81018972D01*
X127452009Y-80921894D01*
X127625004Y-80796206D01*
X127776206Y-80645004D01*
X127901894Y-80472009D01*
X127901896Y-80472004D01*
X127904270Y-80468132D01*
X127956080Y-80421254D01*
X128025009Y-80409829D01*
X128089173Y-80437483D01*
X128115730Y-80468132D01*
X128118103Y-80472005D01*
X128118105Y-80472008D01*
X128118106Y-80472009D01*
X128243794Y-80645004D01*
X128394996Y-80796206D01*
X128567991Y-80921894D01*
X128623152Y-80950000D01*
X128758516Y-81018972D01*
X128758519Y-81018973D01*
X128825316Y-81040676D01*
X128961884Y-81085049D01*
X129173084Y-81118500D01*
X129173085Y-81118500D01*
X129386915Y-81118500D01*
X129386916Y-81118500D01*
X129598116Y-81085049D01*
X129801483Y-81018972D01*
X129992009Y-80921894D01*
X130165004Y-80796206D01*
X130316206Y-80645004D01*
X130441894Y-80472009D01*
X130441896Y-80472004D01*
X130444270Y-80468132D01*
X130496080Y-80421254D01*
X130565009Y-80409829D01*
X130629173Y-80437483D01*
X130655730Y-80468132D01*
X130658103Y-80472005D01*
X130658105Y-80472008D01*
X130658106Y-80472009D01*
X130783794Y-80645004D01*
X130934996Y-80796206D01*
X131107991Y-80921894D01*
X131163152Y-80950000D01*
X131298516Y-81018972D01*
X131298519Y-81018973D01*
X131365316Y-81040676D01*
X131501884Y-81085049D01*
X131713084Y-81118500D01*
X131713085Y-81118500D01*
X131926915Y-81118500D01*
X131926916Y-81118500D01*
X132138116Y-81085049D01*
X132341483Y-81018972D01*
X132532009Y-80921894D01*
X132705004Y-80796206D01*
X132856206Y-80645004D01*
X132981894Y-80472009D01*
X132981896Y-80472004D01*
X132984270Y-80468132D01*
X133036080Y-80421254D01*
X133105009Y-80409829D01*
X133169173Y-80437483D01*
X133195730Y-80468132D01*
X133198103Y-80472005D01*
X133198105Y-80472008D01*
X133198106Y-80472009D01*
X133323794Y-80645004D01*
X133474996Y-80796206D01*
X133647991Y-80921894D01*
X133703152Y-80950000D01*
X133838516Y-81018972D01*
X133838519Y-81018973D01*
X133905316Y-81040676D01*
X134041884Y-81085049D01*
X134253084Y-81118500D01*
X134253085Y-81118500D01*
X134466915Y-81118500D01*
X134466916Y-81118500D01*
X134678116Y-81085049D01*
X134881483Y-81018972D01*
X135072009Y-80921894D01*
X135245004Y-80796206D01*
X135396206Y-80645004D01*
X135521894Y-80472009D01*
X135521896Y-80472004D01*
X135524270Y-80468132D01*
X135576080Y-80421254D01*
X135645009Y-80409829D01*
X135709173Y-80437483D01*
X135735730Y-80468132D01*
X135738103Y-80472005D01*
X135738105Y-80472008D01*
X135738106Y-80472009D01*
X135863794Y-80645004D01*
X136014996Y-80796206D01*
X136187991Y-80921894D01*
X136243152Y-80950000D01*
X136378516Y-81018972D01*
X136378519Y-81018973D01*
X136445316Y-81040676D01*
X136581884Y-81085049D01*
X136793084Y-81118500D01*
X136793085Y-81118500D01*
X137006915Y-81118500D01*
X137006916Y-81118500D01*
X137218116Y-81085049D01*
X137421483Y-81018972D01*
X137612009Y-80921894D01*
X137785004Y-80796206D01*
X137890184Y-80691025D01*
X137951503Y-80657543D01*
X138021195Y-80662527D01*
X138077129Y-80704398D01*
X138094043Y-80735375D01*
X138139110Y-80856203D01*
X138139111Y-80856204D01*
X138226739Y-80973261D01*
X138343796Y-81060889D01*
X138480799Y-81111989D01*
X138508050Y-81114918D01*
X138541345Y-81118499D01*
X138541362Y-81118500D01*
X140338638Y-81118500D01*
X140338654Y-81118499D01*
X140365692Y-81115591D01*
X140399201Y-81111989D01*
X140536204Y-81060889D01*
X140653261Y-80973261D01*
X140740889Y-80856204D01*
X140791989Y-80719201D01*
X140795591Y-80685692D01*
X140798499Y-80658654D01*
X140798500Y-80658637D01*
X140798500Y-78861362D01*
X140798499Y-78861345D01*
X140795018Y-78828971D01*
X140791989Y-78800799D01*
X140785956Y-78784625D01*
X140765685Y-78730276D01*
X140740889Y-78663796D01*
X140653261Y-78546739D01*
X140536204Y-78459111D01*
X140399203Y-78408011D01*
X140338654Y-78401500D01*
X140338638Y-78401500D01*
X138541362Y-78401500D01*
X138541345Y-78401500D01*
X138480797Y-78408011D01*
X138480795Y-78408011D01*
X138343795Y-78459111D01*
X138226739Y-78546739D01*
X138139111Y-78663795D01*
X138094043Y-78784625D01*
X138052171Y-78840558D01*
X137986707Y-78864974D01*
X137918434Y-78850122D01*
X137890181Y-78828971D01*
X137785006Y-78723796D01*
X137785004Y-78723794D01*
X137612009Y-78598106D01*
X137601203Y-78592600D01*
X137421483Y-78501027D01*
X137421480Y-78501026D01*
X137218117Y-78434951D01*
X137112516Y-78418225D01*
X137006916Y-78401500D01*
X136793084Y-78401500D01*
X136722684Y-78412650D01*
X136581882Y-78434951D01*
X136378519Y-78501026D01*
X136378516Y-78501027D01*
X136187990Y-78598106D01*
X136014993Y-78723796D01*
X135863796Y-78874993D01*
X135738105Y-79047991D01*
X135735727Y-79051873D01*
X135683914Y-79098748D01*
X135614984Y-79110169D01*
X135550822Y-79082512D01*
X135524273Y-79051873D01*
X135521894Y-79047991D01*
X135521893Y-79047990D01*
X135396206Y-78874996D01*
X135245004Y-78723794D01*
X135072009Y-78598106D01*
X135061203Y-78592600D01*
X134881483Y-78501027D01*
X134881480Y-78501026D01*
X134678117Y-78434951D01*
X134572516Y-78418225D01*
X134466916Y-78401500D01*
X134253084Y-78401500D01*
X134182684Y-78412650D01*
X134041882Y-78434951D01*
X133838519Y-78501026D01*
X133838516Y-78501027D01*
X133647990Y-78598106D01*
X133474993Y-78723796D01*
X133323796Y-78874993D01*
X133198105Y-79047991D01*
X133195727Y-79051873D01*
X133143914Y-79098748D01*
X133074984Y-79110169D01*
X133010822Y-79082512D01*
X132984273Y-79051873D01*
X132981894Y-79047991D01*
X132981893Y-79047990D01*
X132856206Y-78874996D01*
X132705004Y-78723794D01*
X132532009Y-78598106D01*
X132532008Y-78598105D01*
X132532006Y-78598104D01*
X132521204Y-78592600D01*
X132470408Y-78544625D01*
X132453500Y-78482116D01*
X132453500Y-75014072D01*
X132473185Y-74947033D01*
X132525989Y-74901278D01*
X132595147Y-74891334D01*
X132658703Y-74920359D01*
X132665181Y-74926391D01*
X132774996Y-75036206D01*
X132947991Y-75161894D01*
X132987220Y-75181882D01*
X133138516Y-75258972D01*
X133138519Y-75258973D01*
X133240200Y-75292010D01*
X133341884Y-75325049D01*
X133553084Y-75358500D01*
X133553085Y-75358500D01*
X133766915Y-75358500D01*
X133766916Y-75358500D01*
X133978116Y-75325049D01*
X134181483Y-75258972D01*
X134372009Y-75161894D01*
X134545004Y-75036206D01*
X134656791Y-74924418D01*
X134718110Y-74890936D01*
X134787802Y-74895920D01*
X134843736Y-74937791D01*
X134860651Y-74968769D01*
X134906645Y-75092086D01*
X134906649Y-75092093D01*
X134992809Y-75207187D01*
X134992812Y-75207190D01*
X135107906Y-75293350D01*
X135107913Y-75293354D01*
X135242620Y-75343596D01*
X135242627Y-75343598D01*
X135302155Y-75349999D01*
X135302172Y-75350000D01*
X135950000Y-75350000D01*
X135950000Y-74433012D01*
X136007007Y-74465925D01*
X136134174Y-74500000D01*
X136265826Y-74500000D01*
X136392993Y-74465925D01*
X136450000Y-74433012D01*
X136450000Y-75350000D01*
X137097828Y-75350000D01*
X137097844Y-75349999D01*
X137157372Y-75343598D01*
X137157379Y-75343596D01*
X137292086Y-75293354D01*
X137292093Y-75293350D01*
X137407187Y-75207190D01*
X137407190Y-75207187D01*
X137493350Y-75092093D01*
X137493354Y-75092086D01*
X137543596Y-74957379D01*
X137543598Y-74957372D01*
X137549999Y-74897844D01*
X137550000Y-74897827D01*
X137550000Y-74250000D01*
X136633012Y-74250000D01*
X136665925Y-74192993D01*
X136700000Y-74065826D01*
X136700000Y-73934174D01*
X136683886Y-73874038D01*
X141899500Y-73874038D01*
X141899500Y-74125962D01*
X141917725Y-74241027D01*
X141938910Y-74374785D01*
X142016760Y-74614383D01*
X142131132Y-74838848D01*
X142279201Y-75042649D01*
X142279205Y-75042654D01*
X142457345Y-75220794D01*
X142457350Y-75220798D01*
X142600839Y-75325048D01*
X142661155Y-75368870D01*
X142804184Y-75441747D01*
X142885616Y-75483239D01*
X142885618Y-75483239D01*
X142885621Y-75483241D01*
X143125215Y-75561090D01*
X143374038Y-75600500D01*
X143374039Y-75600500D01*
X143625961Y-75600500D01*
X143625962Y-75600500D01*
X143874785Y-75561090D01*
X144114379Y-75483241D01*
X144338845Y-75368870D01*
X144542656Y-75220793D01*
X144720793Y-75042656D01*
X144868870Y-74838845D01*
X144983241Y-74614379D01*
X144987213Y-74602155D01*
X150610000Y-74602155D01*
X150610000Y-75250000D01*
X151526988Y-75250000D01*
X151494075Y-75307007D01*
X151460000Y-75434174D01*
X151460000Y-75565826D01*
X151494075Y-75692993D01*
X151526988Y-75750000D01*
X150610000Y-75750000D01*
X150610000Y-76397844D01*
X150616401Y-76457372D01*
X150616403Y-76457379D01*
X150666645Y-76592086D01*
X150666649Y-76592093D01*
X150752809Y-76707187D01*
X150752812Y-76707190D01*
X150867906Y-76793350D01*
X150867913Y-76793354D01*
X151002620Y-76843596D01*
X151002627Y-76843598D01*
X151062155Y-76849999D01*
X151062172Y-76850000D01*
X151710000Y-76850000D01*
X151710000Y-75933012D01*
X151767007Y-75965925D01*
X151894174Y-76000000D01*
X152025826Y-76000000D01*
X152152993Y-75965925D01*
X152210000Y-75933012D01*
X152210000Y-76850000D01*
X152857828Y-76850000D01*
X152857844Y-76849999D01*
X152917372Y-76843598D01*
X152917379Y-76843596D01*
X153052086Y-76793354D01*
X153052093Y-76793350D01*
X153167187Y-76707190D01*
X153167190Y-76707187D01*
X153253350Y-76592093D01*
X153253355Y-76592084D01*
X153299348Y-76468770D01*
X153341219Y-76412836D01*
X153406683Y-76388418D01*
X153474956Y-76403269D01*
X153503211Y-76424421D01*
X153614996Y-76536206D01*
X153787991Y-76661894D01*
X153876883Y-76707187D01*
X153978516Y-76758972D01*
X153978519Y-76758973D01*
X154080200Y-76792010D01*
X154181884Y-76825049D01*
X154393084Y-76858500D01*
X154393085Y-76858500D01*
X154606915Y-76858500D01*
X154606916Y-76858500D01*
X154818116Y-76825049D01*
X155021483Y-76758972D01*
X155212009Y-76661894D01*
X155385004Y-76536206D01*
X155536206Y-76385004D01*
X155661894Y-76212009D01*
X155758972Y-76021483D01*
X155825049Y-75818116D01*
X155858500Y-75606916D01*
X155858500Y-75393084D01*
X155825049Y-75181884D01*
X155779811Y-75042654D01*
X155758973Y-74978519D01*
X155758972Y-74978516D01*
X155661893Y-74787990D01*
X155536206Y-74614996D01*
X155385004Y-74463794D01*
X155212009Y-74338106D01*
X155195755Y-74329824D01*
X155021483Y-74241027D01*
X155021480Y-74241026D01*
X154818117Y-74174951D01*
X154700997Y-74156401D01*
X154606916Y-74141500D01*
X154393084Y-74141500D01*
X154322684Y-74152650D01*
X154181882Y-74174951D01*
X153978519Y-74241026D01*
X153978516Y-74241027D01*
X153787990Y-74338106D01*
X153614997Y-74463793D01*
X153503211Y-74575579D01*
X153441888Y-74609063D01*
X153372196Y-74604079D01*
X153316263Y-74562207D01*
X153299348Y-74531230D01*
X153253354Y-74407913D01*
X153253350Y-74407906D01*
X153167190Y-74292812D01*
X153167187Y-74292809D01*
X153052093Y-74206649D01*
X153052086Y-74206645D01*
X152917379Y-74156403D01*
X152917372Y-74156401D01*
X152857844Y-74150000D01*
X152210000Y-74150000D01*
X152210000Y-75066988D01*
X152152993Y-75034075D01*
X152025826Y-75000000D01*
X151894174Y-75000000D01*
X151767007Y-75034075D01*
X151710000Y-75066988D01*
X151710000Y-74150000D01*
X151062155Y-74150000D01*
X151002627Y-74156401D01*
X151002620Y-74156403D01*
X150867913Y-74206645D01*
X150867906Y-74206649D01*
X150752812Y-74292809D01*
X150752809Y-74292812D01*
X150666649Y-74407906D01*
X150666645Y-74407913D01*
X150616403Y-74542620D01*
X150616401Y-74542627D01*
X150610000Y-74602155D01*
X144987213Y-74602155D01*
X145036651Y-74450000D01*
X145061089Y-74374789D01*
X145061089Y-74374788D01*
X145061090Y-74374785D01*
X145100500Y-74125962D01*
X145100500Y-73874038D01*
X145061090Y-73625215D01*
X144983241Y-73385621D01*
X144983239Y-73385618D01*
X144983239Y-73385616D01*
X144933496Y-73287991D01*
X144868870Y-73161155D01*
X144835331Y-73114993D01*
X144720798Y-72957350D01*
X144720794Y-72957345D01*
X144542654Y-72779205D01*
X144542649Y-72779201D01*
X144338848Y-72631132D01*
X144338847Y-72631131D01*
X144338845Y-72631130D01*
X144261067Y-72591500D01*
X144114383Y-72516760D01*
X143874785Y-72438910D01*
X143625962Y-72399500D01*
X143374038Y-72399500D01*
X143249626Y-72419205D01*
X143125214Y-72438910D01*
X142885616Y-72516760D01*
X142661151Y-72631132D01*
X142457350Y-72779201D01*
X142457345Y-72779205D01*
X142279205Y-72957345D01*
X142279201Y-72957350D01*
X142131132Y-73161151D01*
X142016760Y-73385616D01*
X141938910Y-73625214D01*
X141931789Y-73670175D01*
X141899500Y-73874038D01*
X136683886Y-73874038D01*
X136665925Y-73807007D01*
X136633012Y-73750000D01*
X137550000Y-73750000D01*
X137550000Y-73102172D01*
X137549999Y-73102155D01*
X137543598Y-73042627D01*
X137543596Y-73042620D01*
X137493354Y-72907913D01*
X137493350Y-72907906D01*
X137407190Y-72792812D01*
X137407187Y-72792809D01*
X137292093Y-72706649D01*
X137292086Y-72706645D01*
X137157379Y-72656403D01*
X137157372Y-72656401D01*
X137097844Y-72650000D01*
X136450000Y-72650000D01*
X136450000Y-73566988D01*
X136392993Y-73534075D01*
X136265826Y-73500000D01*
X136134174Y-73500000D01*
X136007007Y-73534075D01*
X135950000Y-73566988D01*
X135950000Y-72650000D01*
X135302155Y-72650000D01*
X135242627Y-72656401D01*
X135242620Y-72656403D01*
X135107913Y-72706645D01*
X135107906Y-72706649D01*
X134992812Y-72792809D01*
X134992809Y-72792812D01*
X134906649Y-72907906D01*
X134906645Y-72907913D01*
X134860651Y-73031230D01*
X134818779Y-73087164D01*
X134753315Y-73111581D01*
X134685042Y-73096729D01*
X134656788Y-73075578D01*
X134545006Y-72963796D01*
X134545004Y-72963794D01*
X134372009Y-72838106D01*
X134181483Y-72741027D01*
X134181480Y-72741026D01*
X133978117Y-72674951D01*
X133860997Y-72656401D01*
X133766916Y-72641500D01*
X133553084Y-72641500D01*
X133482684Y-72652650D01*
X133341882Y-72674951D01*
X133138519Y-72741026D01*
X133138516Y-72741027D01*
X132947990Y-72838106D01*
X132774993Y-72963796D01*
X132623796Y-73114993D01*
X132498105Y-73287991D01*
X132495727Y-73291873D01*
X132443914Y-73338748D01*
X132374984Y-73350169D01*
X132310822Y-73322512D01*
X132284273Y-73291873D01*
X132281894Y-73287991D01*
X132262854Y-73261785D01*
X132156206Y-73114996D01*
X132005004Y-72963794D01*
X131832009Y-72838106D01*
X131641483Y-72741027D01*
X131641480Y-72741026D01*
X131438117Y-72674951D01*
X131320997Y-72656401D01*
X131226916Y-72641500D01*
X131013084Y-72641500D01*
X130942684Y-72652650D01*
X130801882Y-72674951D01*
X130598519Y-72741026D01*
X130598516Y-72741027D01*
X130407990Y-72838106D01*
X130234993Y-72963796D01*
X130083796Y-73114993D01*
X129958105Y-73287991D01*
X129955727Y-73291873D01*
X129903914Y-73338748D01*
X129834984Y-73350169D01*
X129770822Y-73322512D01*
X129744273Y-73291873D01*
X129741894Y-73287991D01*
X129722854Y-73261785D01*
X129616206Y-73114996D01*
X129465004Y-72963794D01*
X129292009Y-72838106D01*
X129101483Y-72741027D01*
X129101480Y-72741026D01*
X128898117Y-72674951D01*
X128780997Y-72656401D01*
X128686916Y-72641500D01*
X128473084Y-72641500D01*
X128402684Y-72652650D01*
X128261882Y-72674951D01*
X128058519Y-72741026D01*
X128058516Y-72741027D01*
X127867990Y-72838106D01*
X127694993Y-72963796D01*
X127543796Y-73114993D01*
X127418105Y-73287991D01*
X127415727Y-73291873D01*
X127363914Y-73338748D01*
X127294984Y-73350169D01*
X127230822Y-73322512D01*
X127204273Y-73291873D01*
X127201894Y-73287991D01*
X127182854Y-73261785D01*
X127076206Y-73114996D01*
X126925004Y-72963794D01*
X126752009Y-72838106D01*
X126561483Y-72741027D01*
X126561480Y-72741026D01*
X126358117Y-72674951D01*
X126240997Y-72656401D01*
X126146916Y-72641500D01*
X125933084Y-72641500D01*
X125862684Y-72652650D01*
X125721882Y-72674951D01*
X125518519Y-72741026D01*
X125518516Y-72741027D01*
X125327990Y-72838106D01*
X125154993Y-72963796D01*
X125003796Y-73114993D01*
X124878105Y-73287991D01*
X124875727Y-73291873D01*
X124823914Y-73338748D01*
X124754984Y-73350169D01*
X124690822Y-73322512D01*
X124664273Y-73291873D01*
X124661894Y-73287991D01*
X124642854Y-73261785D01*
X124536206Y-73114996D01*
X124385004Y-72963794D01*
X124212009Y-72838106D01*
X124021483Y-72741027D01*
X124021480Y-72741026D01*
X123818117Y-72674951D01*
X123700997Y-72656401D01*
X123606916Y-72641500D01*
X123393084Y-72641500D01*
X123322684Y-72652650D01*
X123181882Y-72674951D01*
X122978519Y-72741026D01*
X122978516Y-72741027D01*
X122787990Y-72838106D01*
X122614993Y-72963796D01*
X122463796Y-73114993D01*
X122338105Y-73287991D01*
X122335727Y-73291873D01*
X122283914Y-73338748D01*
X122214984Y-73350169D01*
X122150822Y-73322512D01*
X122124273Y-73291873D01*
X122121894Y-73287991D01*
X122102854Y-73261785D01*
X121996206Y-73114996D01*
X121845004Y-72963794D01*
X121672009Y-72838106D01*
X121481483Y-72741027D01*
X121481480Y-72741026D01*
X121278117Y-72674951D01*
X121160997Y-72656401D01*
X121066916Y-72641500D01*
X120853084Y-72641500D01*
X120782684Y-72652650D01*
X120641882Y-72674951D01*
X120438519Y-72741026D01*
X120438516Y-72741027D01*
X120247990Y-72838106D01*
X120074993Y-72963796D01*
X119923796Y-73114993D01*
X119798105Y-73287991D01*
X119795727Y-73291873D01*
X119743914Y-73338748D01*
X119674984Y-73350169D01*
X119610822Y-73322512D01*
X119584273Y-73291873D01*
X119581894Y-73287991D01*
X119562854Y-73261785D01*
X119456206Y-73114996D01*
X119305004Y-72963794D01*
X119132009Y-72838106D01*
X118941483Y-72741027D01*
X118941480Y-72741026D01*
X118738117Y-72674951D01*
X118620997Y-72656401D01*
X118526916Y-72641500D01*
X118313084Y-72641500D01*
X118242684Y-72652650D01*
X118101882Y-72674951D01*
X117898519Y-72741026D01*
X117898516Y-72741027D01*
X117707990Y-72838106D01*
X117534993Y-72963796D01*
X117383796Y-73114993D01*
X117258105Y-73287991D01*
X117255727Y-73291873D01*
X117203914Y-73338748D01*
X117134984Y-73350169D01*
X117070822Y-73322512D01*
X117044273Y-73291873D01*
X117041894Y-73287991D01*
X117022854Y-73261785D01*
X116916206Y-73114996D01*
X116765004Y-72963794D01*
X116592009Y-72838106D01*
X116401483Y-72741027D01*
X116401480Y-72741026D01*
X116198117Y-72674951D01*
X116080997Y-72656401D01*
X115986916Y-72641500D01*
X115773084Y-72641500D01*
X115702684Y-72652650D01*
X115561882Y-72674951D01*
X115358519Y-72741026D01*
X115358516Y-72741027D01*
X115167990Y-72838106D01*
X114994993Y-72963796D01*
X114843796Y-73114993D01*
X114718105Y-73287991D01*
X114715727Y-73291873D01*
X114663914Y-73338748D01*
X114594984Y-73350169D01*
X114530822Y-73322512D01*
X114504273Y-73291873D01*
X114501894Y-73287991D01*
X114482854Y-73261785D01*
X114376206Y-73114996D01*
X114225004Y-72963794D01*
X114052009Y-72838106D01*
X113861483Y-72741027D01*
X113861480Y-72741026D01*
X113658117Y-72674951D01*
X113540997Y-72656401D01*
X113446916Y-72641500D01*
X113233084Y-72641500D01*
X113162684Y-72652650D01*
X113021882Y-72674951D01*
X112818519Y-72741026D01*
X112818516Y-72741027D01*
X112627990Y-72838106D01*
X112454993Y-72963796D01*
X112303796Y-73114993D01*
X112178105Y-73287991D01*
X112175727Y-73291873D01*
X112123914Y-73338748D01*
X112054984Y-73350169D01*
X111990822Y-73322512D01*
X111964273Y-73291873D01*
X111961894Y-73287991D01*
X111942854Y-73261785D01*
X111836206Y-73114996D01*
X111685004Y-72963794D01*
X111512009Y-72838106D01*
X111321483Y-72741027D01*
X111321480Y-72741026D01*
X111118117Y-72674951D01*
X111000997Y-72656401D01*
X110906916Y-72641500D01*
X110693084Y-72641500D01*
X110622684Y-72652650D01*
X110481882Y-72674951D01*
X110278519Y-72741026D01*
X110278516Y-72741027D01*
X110087990Y-72838106D01*
X109914993Y-72963796D01*
X109763796Y-73114993D01*
X109638106Y-73287990D01*
X109541027Y-73478516D01*
X109541026Y-73478519D01*
X109474951Y-73681882D01*
X109474951Y-73681884D01*
X109441500Y-73893084D01*
X109441500Y-74106916D01*
X109444517Y-74125962D01*
X109474951Y-74318117D01*
X109541026Y-74521480D01*
X109541027Y-74521483D01*
X109612245Y-74661254D01*
X109638106Y-74712009D01*
X109763794Y-74885004D01*
X109914996Y-75036206D01*
X110087991Y-75161894D01*
X110127220Y-75181882D01*
X110278516Y-75258972D01*
X110278519Y-75258973D01*
X110380200Y-75292010D01*
X110481884Y-75325049D01*
X110693084Y-75358500D01*
X110693085Y-75358500D01*
X110906915Y-75358500D01*
X110906916Y-75358500D01*
X111118116Y-75325049D01*
X111321483Y-75258972D01*
X111512009Y-75161894D01*
X111685004Y-75036206D01*
X111836206Y-74885004D01*
X111961894Y-74712009D01*
X111961896Y-74712004D01*
X111964270Y-74708132D01*
X112016080Y-74661254D01*
X112085009Y-74649829D01*
X112149173Y-74677483D01*
X112175730Y-74708132D01*
X112178103Y-74712005D01*
X112178106Y-74712009D01*
X112303794Y-74885004D01*
X112454996Y-75036206D01*
X112627991Y-75161894D01*
X112667220Y-75181882D01*
X112818516Y-75258972D01*
X112818519Y-75258973D01*
X112920200Y-75292010D01*
X113021884Y-75325049D01*
X113233084Y-75358500D01*
X113233085Y-75358500D01*
X113446915Y-75358500D01*
X113446916Y-75358500D01*
X113658116Y-75325049D01*
X113861483Y-75258972D01*
X114052009Y-75161894D01*
X114225004Y-75036206D01*
X114376206Y-74885004D01*
X114501894Y-74712009D01*
X114501896Y-74712004D01*
X114504270Y-74708132D01*
X114556080Y-74661254D01*
X114625009Y-74649829D01*
X114689173Y-74677483D01*
X114715730Y-74708132D01*
X114718103Y-74712005D01*
X114718106Y-74712009D01*
X114843794Y-74885004D01*
X114994996Y-75036206D01*
X115167991Y-75161894D01*
X115207220Y-75181882D01*
X115358516Y-75258972D01*
X115358519Y-75258973D01*
X115460200Y-75292010D01*
X115561884Y-75325049D01*
X115773084Y-75358500D01*
X115773085Y-75358500D01*
X115986915Y-75358500D01*
X115986916Y-75358500D01*
X116198116Y-75325049D01*
X116401483Y-75258972D01*
X116592009Y-75161894D01*
X116765004Y-75036206D01*
X116916206Y-74885004D01*
X117041894Y-74712009D01*
X117041896Y-74712004D01*
X117044270Y-74708132D01*
X117096080Y-74661254D01*
X117165009Y-74649829D01*
X117229173Y-74677483D01*
X117255730Y-74708132D01*
X117258103Y-74712005D01*
X117258106Y-74712009D01*
X117383794Y-74885004D01*
X117534996Y-75036206D01*
X117707991Y-75161894D01*
X117747220Y-75181882D01*
X117898516Y-75258972D01*
X117898519Y-75258973D01*
X118000200Y-75292010D01*
X118101884Y-75325049D01*
X118313084Y-75358500D01*
X118313085Y-75358500D01*
X118526915Y-75358500D01*
X118526916Y-75358500D01*
X118738116Y-75325049D01*
X118941483Y-75258972D01*
X119132009Y-75161894D01*
X119305004Y-75036206D01*
X119456206Y-74885004D01*
X119581894Y-74712009D01*
X119581896Y-74712004D01*
X119584270Y-74708132D01*
X119636080Y-74661254D01*
X119705009Y-74649829D01*
X119769173Y-74677483D01*
X119795730Y-74708132D01*
X119798103Y-74712005D01*
X119798106Y-74712009D01*
X119923794Y-74885004D01*
X120074996Y-75036206D01*
X120247991Y-75161894D01*
X120287220Y-75181882D01*
X120438516Y-75258972D01*
X120438519Y-75258973D01*
X120540200Y-75292010D01*
X120641884Y-75325049D01*
X120853084Y-75358500D01*
X120853085Y-75358500D01*
X121066915Y-75358500D01*
X121066916Y-75358500D01*
X121278116Y-75325049D01*
X121481483Y-75258972D01*
X121672009Y-75161894D01*
X121845004Y-75036206D01*
X121996206Y-74885004D01*
X122121894Y-74712009D01*
X122121896Y-74712004D01*
X122124270Y-74708132D01*
X122176080Y-74661254D01*
X122245009Y-74649829D01*
X122309173Y-74677483D01*
X122335730Y-74708132D01*
X122338103Y-74712005D01*
X122338106Y-74712009D01*
X122463794Y-74885004D01*
X122614996Y-75036206D01*
X122787991Y-75161894D01*
X122827220Y-75181882D01*
X122978516Y-75258972D01*
X122978519Y-75258973D01*
X123080200Y-75292010D01*
X123181884Y-75325049D01*
X123393084Y-75358500D01*
X123393085Y-75358500D01*
X123606915Y-75358500D01*
X123606916Y-75358500D01*
X123818116Y-75325049D01*
X124021483Y-75258972D01*
X124212009Y-75161894D01*
X124385004Y-75036206D01*
X124536206Y-74885004D01*
X124661894Y-74712009D01*
X124661896Y-74712004D01*
X124664270Y-74708132D01*
X124716080Y-74661254D01*
X124785009Y-74649829D01*
X124849173Y-74677483D01*
X124875730Y-74708132D01*
X124878103Y-74712005D01*
X124878106Y-74712009D01*
X125003794Y-74885004D01*
X125154996Y-75036206D01*
X125327991Y-75161894D01*
X125367220Y-75181882D01*
X125518516Y-75258972D01*
X125518519Y-75258973D01*
X125620200Y-75292010D01*
X125721884Y-75325049D01*
X125933084Y-75358500D01*
X125933085Y-75358500D01*
X126146915Y-75358500D01*
X126146916Y-75358500D01*
X126358116Y-75325049D01*
X126561483Y-75258972D01*
X126752009Y-75161894D01*
X126925004Y-75036206D01*
X127076206Y-74885004D01*
X127201894Y-74712009D01*
X127201896Y-74712004D01*
X127204270Y-74708132D01*
X127256080Y-74661254D01*
X127325009Y-74649829D01*
X127389173Y-74677483D01*
X127415730Y-74708132D01*
X127418103Y-74712005D01*
X127418106Y-74712009D01*
X127543794Y-74885004D01*
X127694996Y-75036206D01*
X127867991Y-75161894D01*
X127907220Y-75181882D01*
X128058516Y-75258972D01*
X128058519Y-75258973D01*
X128160200Y-75292010D01*
X128261884Y-75325049D01*
X128473084Y-75358500D01*
X128522500Y-75358500D01*
X128589539Y-75378185D01*
X128635294Y-75430989D01*
X128646500Y-75482500D01*
X128646500Y-78482116D01*
X128626815Y-78549155D01*
X128578796Y-78592600D01*
X128567993Y-78598104D01*
X128394993Y-78723796D01*
X128243796Y-78874993D01*
X128118105Y-79047991D01*
X128115727Y-79051873D01*
X128063914Y-79098748D01*
X127994984Y-79110169D01*
X127930822Y-79082512D01*
X127904273Y-79051873D01*
X127901894Y-79047991D01*
X127901893Y-79047990D01*
X127776206Y-78874996D01*
X127625004Y-78723794D01*
X127452009Y-78598106D01*
X127441203Y-78592600D01*
X127261483Y-78501027D01*
X127261480Y-78501026D01*
X127058117Y-78434951D01*
X126952516Y-78418225D01*
X126846916Y-78401500D01*
X126633084Y-78401500D01*
X126562684Y-78412650D01*
X126421882Y-78434951D01*
X126218519Y-78501026D01*
X126218516Y-78501027D01*
X126027990Y-78598106D01*
X125854993Y-78723796D01*
X125703796Y-78874993D01*
X125578105Y-79047991D01*
X125575727Y-79051873D01*
X125523914Y-79098748D01*
X125454984Y-79110169D01*
X125390822Y-79082512D01*
X125364273Y-79051873D01*
X125361894Y-79047991D01*
X125361893Y-79047990D01*
X125236206Y-78874996D01*
X125085004Y-78723794D01*
X124912009Y-78598106D01*
X124901203Y-78592600D01*
X124721483Y-78501027D01*
X124721480Y-78501026D01*
X124518117Y-78434951D01*
X124412516Y-78418225D01*
X124306916Y-78401500D01*
X124093084Y-78401500D01*
X124022684Y-78412650D01*
X123881882Y-78434951D01*
X123678519Y-78501026D01*
X123678516Y-78501027D01*
X123487990Y-78598106D01*
X123314993Y-78723796D01*
X123163796Y-78874993D01*
X123038105Y-79047991D01*
X123035727Y-79051873D01*
X122983914Y-79098748D01*
X122914984Y-79110169D01*
X122850822Y-79082512D01*
X122824273Y-79051873D01*
X122821894Y-79047991D01*
X122821893Y-79047990D01*
X122696206Y-78874996D01*
X122545004Y-78723794D01*
X122372009Y-78598106D01*
X122361203Y-78592600D01*
X122181483Y-78501027D01*
X122181480Y-78501026D01*
X121978117Y-78434951D01*
X121872516Y-78418225D01*
X121766916Y-78401500D01*
X121553084Y-78401500D01*
X121482684Y-78412650D01*
X121341882Y-78434951D01*
X121138519Y-78501026D01*
X121138516Y-78501027D01*
X120947990Y-78598106D01*
X120774993Y-78723796D01*
X120623796Y-78874993D01*
X120498105Y-79047991D01*
X120495727Y-79051873D01*
X120443914Y-79098748D01*
X120374984Y-79110169D01*
X120310822Y-79082512D01*
X120284273Y-79051873D01*
X120281894Y-79047991D01*
X120281893Y-79047990D01*
X120156206Y-78874996D01*
X120005004Y-78723794D01*
X119832009Y-78598106D01*
X119821203Y-78592600D01*
X119641483Y-78501027D01*
X119641480Y-78501026D01*
X119438117Y-78434951D01*
X119332516Y-78418225D01*
X119226916Y-78401500D01*
X119013084Y-78401500D01*
X118942684Y-78412650D01*
X118801882Y-78434951D01*
X118598519Y-78501026D01*
X118598516Y-78501027D01*
X118407990Y-78598106D01*
X118234993Y-78723796D01*
X118083796Y-78874993D01*
X117958105Y-79047991D01*
X117955727Y-79051873D01*
X117903914Y-79098748D01*
X117834984Y-79110169D01*
X117770822Y-79082512D01*
X117744273Y-79051873D01*
X117741894Y-79047991D01*
X117741893Y-79047990D01*
X117616206Y-78874996D01*
X117465004Y-78723794D01*
X117292009Y-78598106D01*
X117281203Y-78592600D01*
X117101483Y-78501027D01*
X117101480Y-78501026D01*
X116898117Y-78434951D01*
X116792516Y-78418225D01*
X116686916Y-78401500D01*
X116473084Y-78401500D01*
X116402684Y-78412650D01*
X116261882Y-78434951D01*
X116058519Y-78501026D01*
X116058516Y-78501027D01*
X115867990Y-78598106D01*
X115694993Y-78723796D01*
X115543796Y-78874993D01*
X115418105Y-79047991D01*
X115415727Y-79051873D01*
X115363914Y-79098748D01*
X115294984Y-79110169D01*
X115230822Y-79082512D01*
X115204273Y-79051873D01*
X115201894Y-79047991D01*
X115201893Y-79047990D01*
X115076206Y-78874996D01*
X114925004Y-78723794D01*
X114752009Y-78598106D01*
X114741203Y-78592600D01*
X114561483Y-78501027D01*
X114561480Y-78501026D01*
X114358117Y-78434951D01*
X114252516Y-78418225D01*
X114146916Y-78401500D01*
X113933084Y-78401500D01*
X113862684Y-78412650D01*
X113721882Y-78434951D01*
X113518519Y-78501026D01*
X113518516Y-78501027D01*
X113327990Y-78598106D01*
X113154993Y-78723796D01*
X113003796Y-78874993D01*
X112878105Y-79047991D01*
X112875727Y-79051873D01*
X112823914Y-79098748D01*
X112754984Y-79110169D01*
X112690822Y-79082512D01*
X112664273Y-79051873D01*
X112661894Y-79047991D01*
X112661893Y-79047990D01*
X112536206Y-78874996D01*
X112385004Y-78723794D01*
X112212009Y-78598106D01*
X112201203Y-78592600D01*
X112021483Y-78501027D01*
X112021480Y-78501026D01*
X111818117Y-78434951D01*
X111712516Y-78418225D01*
X111606916Y-78401500D01*
X111393084Y-78401500D01*
X111322684Y-78412650D01*
X111181882Y-78434951D01*
X110978519Y-78501026D01*
X110978516Y-78501027D01*
X110787990Y-78598106D01*
X110614993Y-78723796D01*
X110463796Y-78874993D01*
X110338105Y-79047991D01*
X110335727Y-79051873D01*
X110283914Y-79098748D01*
X110214984Y-79110169D01*
X110150822Y-79082512D01*
X110124273Y-79051873D01*
X110121894Y-79047991D01*
X110121893Y-79047990D01*
X109996206Y-78874996D01*
X109845004Y-78723794D01*
X109672009Y-78598106D01*
X109661203Y-78592600D01*
X109481483Y-78501027D01*
X109481480Y-78501026D01*
X109278117Y-78434951D01*
X109172516Y-78418225D01*
X109066916Y-78401500D01*
X108853084Y-78401500D01*
X108782684Y-78412650D01*
X108641882Y-78434951D01*
X108438519Y-78501026D01*
X108438516Y-78501027D01*
X108247990Y-78598106D01*
X108074993Y-78723796D01*
X107923796Y-78874993D01*
X107798103Y-79047994D01*
X107795709Y-79052693D01*
X107747731Y-79103485D01*
X107679908Y-79120275D01*
X107613775Y-79097732D01*
X107577800Y-79056210D01*
X107577168Y-79056598D01*
X107574829Y-79052781D01*
X107574743Y-79052682D01*
X107574620Y-79052441D01*
X107449727Y-78880540D01*
X107449723Y-78880535D01*
X107299464Y-78730276D01*
X107299459Y-78730272D01*
X107127557Y-78605379D01*
X106938215Y-78508903D01*
X106736124Y-78443241D01*
X106670000Y-78432768D01*
X106670000Y-79326988D01*
X106612993Y-79294075D01*
X106485826Y-79260000D01*
X106354174Y-79260000D01*
X106227007Y-79294075D01*
X106170000Y-79326988D01*
X106170000Y-78432768D01*
X106169999Y-78432768D01*
X106103875Y-78443241D01*
X105901784Y-78508903D01*
X105712442Y-78605379D01*
X105540540Y-78730272D01*
X105540535Y-78730276D01*
X105390276Y-78880535D01*
X105390272Y-78880540D01*
X105265376Y-79052446D01*
X105265374Y-79052448D01*
X105265246Y-79052701D01*
X105265172Y-79052779D01*
X105262832Y-79056598D01*
X105262029Y-79056106D01*
X105217264Y-79103489D01*
X105149441Y-79120274D01*
X105083309Y-79097727D01*
X105044285Y-79052683D01*
X105041895Y-79047992D01*
X105010472Y-79004742D01*
X104916206Y-78874996D01*
X104765004Y-78723794D01*
X104592009Y-78598106D01*
X104581203Y-78592600D01*
X104401483Y-78501027D01*
X104401480Y-78501026D01*
X104198117Y-78434951D01*
X104092516Y-78418225D01*
X103986916Y-78401500D01*
X103773084Y-78401500D01*
X103702684Y-78412650D01*
X103561882Y-78434951D01*
X103358519Y-78501026D01*
X103358516Y-78501027D01*
X103167990Y-78598106D01*
X102994993Y-78723796D01*
X102843796Y-78874993D01*
X102718106Y-79047990D01*
X102621027Y-79238516D01*
X102621026Y-79238519D01*
X102554951Y-79441882D01*
X102521500Y-79653084D01*
X102521500Y-79866915D01*
X102554951Y-80078117D01*
X102621026Y-80281480D01*
X102621027Y-80281483D01*
X102713917Y-80463788D01*
X102718106Y-80472009D01*
X102843794Y-80645004D01*
X102994996Y-80796206D01*
X103167991Y-80921894D01*
X103223152Y-80950000D01*
X103358516Y-81018972D01*
X103358519Y-81018973D01*
X103425316Y-81040676D01*
X103561884Y-81085049D01*
X103773084Y-81118500D01*
X103773085Y-81118500D01*
X103986915Y-81118500D01*
X103986916Y-81118500D01*
X104198116Y-81085049D01*
X104401483Y-81018972D01*
X104592009Y-80921894D01*
X104765004Y-80796206D01*
X104916206Y-80645004D01*
X105041894Y-80472009D01*
X105044283Y-80467319D01*
X105092254Y-80416522D01*
X105160074Y-80399724D01*
X105226210Y-80422258D01*
X105262201Y-80463788D01*
X105262832Y-80463402D01*
X105265164Y-80467207D01*
X105265251Y-80467308D01*
X105265376Y-80467554D01*
X105390272Y-80639459D01*
X105390276Y-80639464D01*
X105540535Y-80789723D01*
X105540540Y-80789727D01*
X105712442Y-80914620D01*
X105901782Y-81011095D01*
X106103871Y-81076757D01*
X106170000Y-81087231D01*
X106170000Y-80193012D01*
X106227007Y-80225925D01*
X106354174Y-80260000D01*
X106485826Y-80260000D01*
X106612993Y-80225925D01*
X106670000Y-80193012D01*
X106670000Y-81087230D01*
X106736126Y-81076757D01*
X106736129Y-81076757D01*
X106938217Y-81011095D01*
X107127557Y-80914620D01*
X107299459Y-80789727D01*
X107299464Y-80789723D01*
X107449723Y-80639464D01*
X107449727Y-80639459D01*
X107574619Y-80467560D01*
X107574738Y-80467327D01*
X107574808Y-80467252D01*
X107577168Y-80463402D01*
X107577976Y-80463897D01*
X107622707Y-80416526D01*
X107690526Y-80399723D01*
X107756663Y-80422254D01*
X107795712Y-80467311D01*
X107798105Y-80472008D01*
X107840002Y-80529674D01*
X107923794Y-80645004D01*
X108074996Y-80796206D01*
X108247991Y-80921894D01*
X108351107Y-80974434D01*
X108401903Y-81022408D01*
X108418698Y-81090229D01*
X108396161Y-81156364D01*
X108382493Y-81172600D01*
X104724915Y-84830181D01*
X104663592Y-84863666D01*
X104637234Y-84866500D01*
X98946233Y-84866500D01*
X98879194Y-84846815D01*
X98835748Y-84798795D01*
X98790184Y-84709372D01*
X98650620Y-84517278D01*
X98482722Y-84349380D01*
X98290627Y-84209815D01*
X98079067Y-84102019D01*
X97853241Y-84028643D01*
X97618727Y-83991500D01*
X97618722Y-83991500D01*
X97381278Y-83991500D01*
X97381273Y-83991500D01*
X97146758Y-84028643D01*
X96920932Y-84102019D01*
X96709372Y-84209815D01*
X96517275Y-84349382D01*
X96349382Y-84517275D01*
X96209815Y-84709372D01*
X96164252Y-84798795D01*
X96116277Y-84849591D01*
X96053767Y-84866500D01*
X92446233Y-84866500D01*
X92379194Y-84846815D01*
X92335748Y-84798795D01*
X92290184Y-84709372D01*
X92150620Y-84517278D01*
X91982722Y-84349380D01*
X91790627Y-84209815D01*
X91579067Y-84102019D01*
X91353241Y-84028643D01*
X91118727Y-83991500D01*
X91118722Y-83991500D01*
X90881278Y-83991500D01*
X90881273Y-83991500D01*
X90646758Y-84028643D01*
X90420932Y-84102019D01*
X90209372Y-84209815D01*
X90017275Y-84349382D01*
X89849382Y-84517275D01*
X89709815Y-84709372D01*
X89602019Y-84920932D01*
X89528643Y-85146758D01*
X89491500Y-85381272D01*
X86050500Y-85381272D01*
X86050500Y-83408641D01*
X100444000Y-83408641D01*
X100444000Y-83571358D01*
X100475740Y-83730927D01*
X100475742Y-83730935D01*
X100538006Y-83881255D01*
X100538011Y-83881264D01*
X100628403Y-84016544D01*
X100628406Y-84016548D01*
X100743451Y-84131593D01*
X100743455Y-84131596D01*
X100878735Y-84221988D01*
X100878741Y-84221991D01*
X100878742Y-84221992D01*
X101029065Y-84284258D01*
X101188641Y-84315999D01*
X101188645Y-84316000D01*
X101188646Y-84316000D01*
X101351355Y-84316000D01*
X101351356Y-84315999D01*
X101510935Y-84284258D01*
X101661258Y-84221992D01*
X101796545Y-84131596D01*
X101911596Y-84016545D01*
X102001992Y-83881258D01*
X102064258Y-83730935D01*
X102096000Y-83571354D01*
X102096000Y-83408646D01*
X102064258Y-83249065D01*
X102001992Y-83098742D01*
X102001991Y-83098741D01*
X102001988Y-83098735D01*
X101911596Y-82963455D01*
X101911593Y-82963451D01*
X101796548Y-82848406D01*
X101796544Y-82848403D01*
X101661264Y-82758011D01*
X101661255Y-82758006D01*
X101510935Y-82695742D01*
X101510927Y-82695740D01*
X101351358Y-82664000D01*
X101351354Y-82664000D01*
X101188646Y-82664000D01*
X101188641Y-82664000D01*
X101029072Y-82695740D01*
X101029064Y-82695742D01*
X100878744Y-82758006D01*
X100878735Y-82758011D01*
X100743455Y-82848403D01*
X100743451Y-82848406D01*
X100628406Y-82963451D01*
X100628403Y-82963455D01*
X100538011Y-83098735D01*
X100538006Y-83098744D01*
X100475742Y-83249064D01*
X100475740Y-83249072D01*
X100444000Y-83408641D01*
X86050500Y-83408641D01*
X86050500Y-79552155D01*
X90100000Y-79552155D01*
X90100000Y-80250000D01*
X91124722Y-80250000D01*
X91080667Y-80326306D01*
X91050000Y-80440756D01*
X91050000Y-80559244D01*
X91080667Y-80673694D01*
X91124722Y-80750000D01*
X90100000Y-80750000D01*
X90100000Y-81447844D01*
X90106401Y-81507372D01*
X90106403Y-81507379D01*
X90156645Y-81642086D01*
X90156649Y-81642093D01*
X90242809Y-81757187D01*
X90242812Y-81757190D01*
X90357906Y-81843350D01*
X90357913Y-81843354D01*
X90492620Y-81893596D01*
X90492627Y-81893598D01*
X90552155Y-81899999D01*
X90552172Y-81900000D01*
X91250000Y-81900000D01*
X91250000Y-80875277D01*
X91326306Y-80919333D01*
X91440756Y-80950000D01*
X91559244Y-80950000D01*
X91673694Y-80919333D01*
X91750000Y-80875277D01*
X91750000Y-81900000D01*
X92447828Y-81900000D01*
X92447844Y-81899999D01*
X92507372Y-81893598D01*
X92507379Y-81893596D01*
X92642086Y-81843354D01*
X92642093Y-81843350D01*
X92757187Y-81757190D01*
X92757190Y-81757187D01*
X92843350Y-81642093D01*
X92843354Y-81642086D01*
X92870140Y-81570270D01*
X92912011Y-81514336D01*
X92977475Y-81489919D01*
X93045748Y-81504770D01*
X93074003Y-81525922D01*
X93122424Y-81574343D01*
X93301785Y-81704657D01*
X93358497Y-81733553D01*
X93499319Y-81805306D01*
X93499321Y-81805306D01*
X93499324Y-81805308D01*
X93710176Y-81873818D01*
X93929149Y-81908500D01*
X93929150Y-81908500D01*
X94150850Y-81908500D01*
X94150851Y-81908500D01*
X94369824Y-81873818D01*
X94580676Y-81805308D01*
X94778215Y-81704657D01*
X94957576Y-81574343D01*
X95114343Y-81417576D01*
X95244657Y-81238215D01*
X95345308Y-81040676D01*
X95413818Y-80829824D01*
X95448500Y-80610851D01*
X95448500Y-80389149D01*
X95413818Y-80170176D01*
X95345308Y-79959324D01*
X95345306Y-79959321D01*
X95345306Y-79959319D01*
X95244656Y-79761784D01*
X95215096Y-79721098D01*
X95114343Y-79582424D01*
X94957576Y-79425657D01*
X94778215Y-79295343D01*
X94733301Y-79272458D01*
X94580680Y-79194693D01*
X94369824Y-79126182D01*
X94268722Y-79110169D01*
X94150851Y-79091500D01*
X93929149Y-79091500D01*
X93819662Y-79108841D01*
X93710175Y-79126182D01*
X93499319Y-79194693D01*
X93301784Y-79295343D01*
X93215675Y-79357906D01*
X93122424Y-79425657D01*
X93122422Y-79425659D01*
X93122420Y-79425660D01*
X93074002Y-79474078D01*
X93012679Y-79507562D01*
X92942987Y-79502577D01*
X92887054Y-79460705D01*
X92870140Y-79429729D01*
X92843354Y-79357913D01*
X92843350Y-79357906D01*
X92757190Y-79242812D01*
X92757187Y-79242809D01*
X92642093Y-79156649D01*
X92642086Y-79156645D01*
X92507379Y-79106403D01*
X92507372Y-79106401D01*
X92447844Y-79100000D01*
X91750000Y-79100000D01*
X91750000Y-80124722D01*
X91673694Y-80080667D01*
X91559244Y-80050000D01*
X91440756Y-80050000D01*
X91326306Y-80080667D01*
X91250000Y-80124722D01*
X91250000Y-79100000D01*
X90552155Y-79100000D01*
X90492627Y-79106401D01*
X90492620Y-79106403D01*
X90357913Y-79156645D01*
X90357906Y-79156649D01*
X90242812Y-79242809D01*
X90242809Y-79242812D01*
X90156649Y-79357906D01*
X90156645Y-79357913D01*
X90106403Y-79492620D01*
X90106401Y-79492627D01*
X90100000Y-79552155D01*
X86050500Y-79552155D01*
X86050500Y-73052155D01*
X90100000Y-73052155D01*
X90100000Y-73750000D01*
X91124722Y-73750000D01*
X91080667Y-73826306D01*
X91050000Y-73940756D01*
X91050000Y-74059244D01*
X91080667Y-74173694D01*
X91124722Y-74250000D01*
X90100000Y-74250000D01*
X90100000Y-74947844D01*
X90106401Y-75007372D01*
X90106403Y-75007379D01*
X90156645Y-75142086D01*
X90156649Y-75142093D01*
X90242809Y-75257187D01*
X90242812Y-75257190D01*
X90357906Y-75343350D01*
X90357913Y-75343354D01*
X90492620Y-75393596D01*
X90492627Y-75393598D01*
X90552155Y-75399999D01*
X90552172Y-75400000D01*
X91250000Y-75400000D01*
X91250000Y-74375277D01*
X91326306Y-74419333D01*
X91440756Y-74450000D01*
X91559244Y-74450000D01*
X91673694Y-74419333D01*
X91750000Y-74375277D01*
X91750000Y-75400000D01*
X92447828Y-75400000D01*
X92447844Y-75399999D01*
X92507372Y-75393598D01*
X92507379Y-75393596D01*
X92642086Y-75343354D01*
X92642093Y-75343350D01*
X92757187Y-75257190D01*
X92757190Y-75257187D01*
X92843350Y-75142093D01*
X92843354Y-75142086D01*
X92870140Y-75070270D01*
X92912011Y-75014336D01*
X92977475Y-74989919D01*
X93045748Y-75004770D01*
X93074003Y-75025922D01*
X93122424Y-75074343D01*
X93301785Y-75204657D01*
X93333454Y-75220793D01*
X93499319Y-75305306D01*
X93499321Y-75305306D01*
X93499324Y-75305308D01*
X93710176Y-75373818D01*
X93929149Y-75408500D01*
X93929150Y-75408500D01*
X94150850Y-75408500D01*
X94150851Y-75408500D01*
X94369824Y-75373818D01*
X94580676Y-75305308D01*
X94778215Y-75204657D01*
X94957576Y-75074343D01*
X95114343Y-74917576D01*
X95244657Y-74738215D01*
X95344314Y-74542627D01*
X95345306Y-74540680D01*
X95345306Y-74540679D01*
X95345308Y-74540676D01*
X95413818Y-74329824D01*
X95448500Y-74110851D01*
X95448500Y-73889149D01*
X95446107Y-73874038D01*
X101899500Y-73874038D01*
X101899500Y-74125962D01*
X101917725Y-74241027D01*
X101938910Y-74374785D01*
X102016760Y-74614383D01*
X102131132Y-74838848D01*
X102279201Y-75042649D01*
X102279205Y-75042654D01*
X102457345Y-75220794D01*
X102457350Y-75220798D01*
X102600839Y-75325048D01*
X102661155Y-75368870D01*
X102804184Y-75441747D01*
X102885616Y-75483239D01*
X102885618Y-75483239D01*
X102885621Y-75483241D01*
X103125215Y-75561090D01*
X103374038Y-75600500D01*
X103374039Y-75600500D01*
X103625961Y-75600500D01*
X103625962Y-75600500D01*
X103874785Y-75561090D01*
X104114379Y-75483241D01*
X104338845Y-75368870D01*
X104542656Y-75220793D01*
X104720793Y-75042656D01*
X104868870Y-74838845D01*
X104983241Y-74614379D01*
X105061090Y-74374785D01*
X105100500Y-74125962D01*
X105100500Y-73874038D01*
X105061090Y-73625215D01*
X104983241Y-73385621D01*
X104983239Y-73385618D01*
X104983239Y-73385616D01*
X104933496Y-73287991D01*
X104868870Y-73161155D01*
X104835331Y-73114993D01*
X104720798Y-72957350D01*
X104720794Y-72957345D01*
X104542654Y-72779205D01*
X104542649Y-72779201D01*
X104338848Y-72631132D01*
X104338847Y-72631131D01*
X104338845Y-72631130D01*
X104261067Y-72591500D01*
X104114383Y-72516760D01*
X103874785Y-72438910D01*
X103625962Y-72399500D01*
X103374038Y-72399500D01*
X103249626Y-72419205D01*
X103125214Y-72438910D01*
X102885616Y-72516760D01*
X102661151Y-72631132D01*
X102457350Y-72779201D01*
X102457345Y-72779205D01*
X102279205Y-72957345D01*
X102279201Y-72957350D01*
X102131132Y-73161151D01*
X102016760Y-73385616D01*
X101938910Y-73625214D01*
X101931789Y-73670175D01*
X101899500Y-73874038D01*
X95446107Y-73874038D01*
X95413818Y-73670176D01*
X95345308Y-73459324D01*
X95345306Y-73459321D01*
X95345306Y-73459319D01*
X95289691Y-73350169D01*
X95244657Y-73261785D01*
X95114343Y-73082424D01*
X94957576Y-72925657D01*
X94778215Y-72795343D01*
X94773242Y-72792809D01*
X94580680Y-72694693D01*
X94369824Y-72626182D01*
X94150851Y-72591500D01*
X93929149Y-72591500D01*
X93819662Y-72608841D01*
X93710175Y-72626182D01*
X93499319Y-72694693D01*
X93301784Y-72795343D01*
X93242927Y-72838106D01*
X93122424Y-72925657D01*
X93122422Y-72925659D01*
X93122420Y-72925660D01*
X93074002Y-72974078D01*
X93012679Y-73007562D01*
X92942987Y-73002577D01*
X92887054Y-72960705D01*
X92870140Y-72929729D01*
X92843354Y-72857913D01*
X92843350Y-72857906D01*
X92757190Y-72742812D01*
X92757187Y-72742809D01*
X92642093Y-72656649D01*
X92642086Y-72656645D01*
X92507379Y-72606403D01*
X92507372Y-72606401D01*
X92447844Y-72600000D01*
X91750000Y-72600000D01*
X91750000Y-73624722D01*
X91673694Y-73580667D01*
X91559244Y-73550000D01*
X91440756Y-73550000D01*
X91326306Y-73580667D01*
X91250000Y-73624722D01*
X91250000Y-72600000D01*
X90552155Y-72600000D01*
X90492627Y-72606401D01*
X90492620Y-72606403D01*
X90357913Y-72656645D01*
X90357906Y-72656649D01*
X90242812Y-72742809D01*
X90242809Y-72742812D01*
X90156649Y-72857906D01*
X90156645Y-72857913D01*
X90106403Y-72992620D01*
X90106401Y-72992627D01*
X90100000Y-73052155D01*
X86050500Y-73052155D01*
X86050500Y-70649500D01*
X86070185Y-70582461D01*
X86122989Y-70536706D01*
X86174500Y-70525500D01*
X160825500Y-70525500D01*
X160892539Y-70545185D01*
G37*
%TD.AperFunction*%
%TD*%
M02*
