%TF.GenerationSoftware,KiCad,Pcbnew,10.0.3*%
%TF.CreationDate,2026-06-02T02:06:23-06:00*%
%TF.ProjectId,asda,61736461-2e6b-4696-9361-645f70636258,rev?*%
%TF.SameCoordinates,Original*%
%TF.FileFunction,Legend,Top*%
%TF.FilePolarity,Positive*%
%FSLAX46Y46*%
G04 Gerber Fmt 4.6, Leading zero omitted, Abs format (unit mm)*
G04 Created by KiCad (PCBNEW 10.0.3) date 2026-06-02 02:06:23*
%MOMM*%
%LPD*%
G01*
G04 APERTURE LIST*
%ADD10C,0.750000*%
%ADD11C,0.125000*%
%ADD12C,0.150000*%
%ADD13C,0.127000*%
%ADD14C,0.200000*%
%ADD15C,0.120000*%
G04 APERTURE END LIST*
D10*
X96207706Y-113349095D02*
X96207706Y-117396714D01*
X96207706Y-117396714D02*
X96350563Y-117872904D01*
X96350563Y-117872904D02*
X96493421Y-118111000D01*
X96493421Y-118111000D02*
X96779135Y-118349095D01*
X96779135Y-118349095D02*
X97350563Y-118349095D01*
X97350563Y-118349095D02*
X97636278Y-118111000D01*
X97636278Y-118111000D02*
X97779135Y-117872904D01*
X97779135Y-117872904D02*
X97921992Y-117396714D01*
X97921992Y-117396714D02*
X97921992Y-113349095D01*
X99350563Y-118349095D02*
X99350563Y-113349095D01*
X99350563Y-113349095D02*
X100493420Y-113349095D01*
X100493420Y-113349095D02*
X100779135Y-113587190D01*
X100779135Y-113587190D02*
X100921992Y-113825285D01*
X100921992Y-113825285D02*
X101064849Y-114301476D01*
X101064849Y-114301476D02*
X101064849Y-115015761D01*
X101064849Y-115015761D02*
X100921992Y-115491952D01*
X100921992Y-115491952D02*
X100779135Y-115730047D01*
X100779135Y-115730047D02*
X100493420Y-115968142D01*
X100493420Y-115968142D02*
X99350563Y-115968142D01*
X102350563Y-118349095D02*
X102350563Y-113349095D01*
X102350563Y-113349095D02*
X103064849Y-113349095D01*
X103064849Y-113349095D02*
X103493420Y-113587190D01*
X103493420Y-113587190D02*
X103779135Y-114063380D01*
X103779135Y-114063380D02*
X103921992Y-114539571D01*
X103921992Y-114539571D02*
X104064849Y-115491952D01*
X104064849Y-115491952D02*
X104064849Y-116206238D01*
X104064849Y-116206238D02*
X103921992Y-117158619D01*
X103921992Y-117158619D02*
X103779135Y-117634809D01*
X103779135Y-117634809D02*
X103493420Y-118111000D01*
X103493420Y-118111000D02*
X103064849Y-118349095D01*
X103064849Y-118349095D02*
X102350563Y-118349095D01*
X106921992Y-113587190D02*
X106636278Y-113349095D01*
X106636278Y-113349095D02*
X106207706Y-113349095D01*
X106207706Y-113349095D02*
X105779135Y-113587190D01*
X105779135Y-113587190D02*
X105493420Y-114063380D01*
X105493420Y-114063380D02*
X105350563Y-114539571D01*
X105350563Y-114539571D02*
X105207706Y-115491952D01*
X105207706Y-115491952D02*
X105207706Y-116206238D01*
X105207706Y-116206238D02*
X105350563Y-117158619D01*
X105350563Y-117158619D02*
X105493420Y-117634809D01*
X105493420Y-117634809D02*
X105779135Y-118111000D01*
X105779135Y-118111000D02*
X106207706Y-118349095D01*
X106207706Y-118349095D02*
X106493420Y-118349095D01*
X106493420Y-118349095D02*
X106921992Y-118111000D01*
X106921992Y-118111000D02*
X107064849Y-117872904D01*
X107064849Y-117872904D02*
X107064849Y-116206238D01*
X107064849Y-116206238D02*
X106493420Y-116206238D01*
X108921992Y-113349095D02*
X109493420Y-113349095D01*
X109493420Y-113349095D02*
X109779135Y-113587190D01*
X109779135Y-113587190D02*
X110064849Y-114063380D01*
X110064849Y-114063380D02*
X110207706Y-115015761D01*
X110207706Y-115015761D02*
X110207706Y-116682428D01*
X110207706Y-116682428D02*
X110064849Y-117634809D01*
X110064849Y-117634809D02*
X109779135Y-118111000D01*
X109779135Y-118111000D02*
X109493420Y-118349095D01*
X109493420Y-118349095D02*
X108921992Y-118349095D01*
X108921992Y-118349095D02*
X108636278Y-118111000D01*
X108636278Y-118111000D02*
X108350563Y-117634809D01*
X108350563Y-117634809D02*
X108207706Y-116682428D01*
X108207706Y-116682428D02*
X108207706Y-115015761D01*
X108207706Y-115015761D02*
X108350563Y-114063380D01*
X108350563Y-114063380D02*
X108636278Y-113587190D01*
X108636278Y-113587190D02*
X108921992Y-113349095D01*
D11*
X136486997Y-104932309D02*
X136320331Y-104694214D01*
X136201283Y-104932309D02*
X136201283Y-104432309D01*
X136201283Y-104432309D02*
X136391759Y-104432309D01*
X136391759Y-104432309D02*
X136439378Y-104456119D01*
X136439378Y-104456119D02*
X136463188Y-104479928D01*
X136463188Y-104479928D02*
X136486997Y-104527547D01*
X136486997Y-104527547D02*
X136486997Y-104598976D01*
X136486997Y-104598976D02*
X136463188Y-104646595D01*
X136463188Y-104646595D02*
X136439378Y-104670404D01*
X136439378Y-104670404D02*
X136391759Y-104694214D01*
X136391759Y-104694214D02*
X136201283Y-104694214D01*
X136701283Y-104432309D02*
X136701283Y-104837071D01*
X136701283Y-104837071D02*
X136725093Y-104884690D01*
X136725093Y-104884690D02*
X136748902Y-104908500D01*
X136748902Y-104908500D02*
X136796521Y-104932309D01*
X136796521Y-104932309D02*
X136891759Y-104932309D01*
X136891759Y-104932309D02*
X136939378Y-104908500D01*
X136939378Y-104908500D02*
X136963188Y-104884690D01*
X136963188Y-104884690D02*
X136986997Y-104837071D01*
X136986997Y-104837071D02*
X136986997Y-104432309D01*
X137510807Y-104932309D02*
X137344141Y-104694214D01*
X137225093Y-104932309D02*
X137225093Y-104432309D01*
X137225093Y-104432309D02*
X137415569Y-104432309D01*
X137415569Y-104432309D02*
X137463188Y-104456119D01*
X137463188Y-104456119D02*
X137486998Y-104479928D01*
X137486998Y-104479928D02*
X137510807Y-104527547D01*
X137510807Y-104527547D02*
X137510807Y-104598976D01*
X137510807Y-104598976D02*
X137486998Y-104646595D01*
X137486998Y-104646595D02*
X137463188Y-104670404D01*
X137463188Y-104670404D02*
X137415569Y-104694214D01*
X137415569Y-104694214D02*
X137225093Y-104694214D01*
X137701284Y-104908500D02*
X137772712Y-104932309D01*
X137772712Y-104932309D02*
X137891760Y-104932309D01*
X137891760Y-104932309D02*
X137939379Y-104908500D01*
X137939379Y-104908500D02*
X137963188Y-104884690D01*
X137963188Y-104884690D02*
X137986998Y-104837071D01*
X137986998Y-104837071D02*
X137986998Y-104789452D01*
X137986998Y-104789452D02*
X137963188Y-104741833D01*
X137963188Y-104741833D02*
X137939379Y-104718023D01*
X137939379Y-104718023D02*
X137891760Y-104694214D01*
X137891760Y-104694214D02*
X137796522Y-104670404D01*
X137796522Y-104670404D02*
X137748903Y-104646595D01*
X137748903Y-104646595D02*
X137725093Y-104622785D01*
X137725093Y-104622785D02*
X137701284Y-104575166D01*
X137701284Y-104575166D02*
X137701284Y-104527547D01*
X137701284Y-104527547D02*
X137725093Y-104479928D01*
X137725093Y-104479928D02*
X137748903Y-104456119D01*
X137748903Y-104456119D02*
X137796522Y-104432309D01*
X137796522Y-104432309D02*
X137915569Y-104432309D01*
X137915569Y-104432309D02*
X137986998Y-104456119D01*
D12*
X136836779Y-109869819D02*
X136836779Y-110679342D01*
X136836779Y-110679342D02*
X136884398Y-110774580D01*
X136884398Y-110774580D02*
X136932017Y-110822200D01*
X136932017Y-110822200D02*
X137027255Y-110869819D01*
X137027255Y-110869819D02*
X137217731Y-110869819D01*
X137217731Y-110869819D02*
X137312969Y-110822200D01*
X137312969Y-110822200D02*
X137360588Y-110774580D01*
X137360588Y-110774580D02*
X137408207Y-110679342D01*
X137408207Y-110679342D02*
X137408207Y-109869819D01*
X137884398Y-110203152D02*
X137884398Y-110869819D01*
X137884398Y-110298390D02*
X137932017Y-110250771D01*
X137932017Y-110250771D02*
X138027255Y-110203152D01*
X138027255Y-110203152D02*
X138170112Y-110203152D01*
X138170112Y-110203152D02*
X138265350Y-110250771D01*
X138265350Y-110250771D02*
X138312969Y-110346009D01*
X138312969Y-110346009D02*
X138312969Y-110869819D01*
X138789160Y-110869819D02*
X138789160Y-110203152D01*
X138789160Y-109869819D02*
X138741541Y-109917438D01*
X138741541Y-109917438D02*
X138789160Y-109965057D01*
X138789160Y-109965057D02*
X138836779Y-109917438D01*
X138836779Y-109917438D02*
X138789160Y-109869819D01*
X138789160Y-109869819D02*
X138789160Y-109965057D01*
X139265350Y-110203152D02*
X139265350Y-111203152D01*
X139265350Y-110250771D02*
X139360588Y-110203152D01*
X139360588Y-110203152D02*
X139551064Y-110203152D01*
X139551064Y-110203152D02*
X139646302Y-110250771D01*
X139646302Y-110250771D02*
X139693921Y-110298390D01*
X139693921Y-110298390D02*
X139741540Y-110393628D01*
X139741540Y-110393628D02*
X139741540Y-110679342D01*
X139741540Y-110679342D02*
X139693921Y-110774580D01*
X139693921Y-110774580D02*
X139646302Y-110822200D01*
X139646302Y-110822200D02*
X139551064Y-110869819D01*
X139551064Y-110869819D02*
X139360588Y-110869819D01*
X139360588Y-110869819D02*
X139265350Y-110822200D01*
X140312969Y-110869819D02*
X140217731Y-110822200D01*
X140217731Y-110822200D02*
X140170112Y-110774580D01*
X140170112Y-110774580D02*
X140122493Y-110679342D01*
X140122493Y-110679342D02*
X140122493Y-110393628D01*
X140122493Y-110393628D02*
X140170112Y-110298390D01*
X140170112Y-110298390D02*
X140217731Y-110250771D01*
X140217731Y-110250771D02*
X140312969Y-110203152D01*
X140312969Y-110203152D02*
X140455826Y-110203152D01*
X140455826Y-110203152D02*
X140551064Y-110250771D01*
X140551064Y-110250771D02*
X140598683Y-110298390D01*
X140598683Y-110298390D02*
X140646302Y-110393628D01*
X140646302Y-110393628D02*
X140646302Y-110679342D01*
X140646302Y-110679342D02*
X140598683Y-110774580D01*
X140598683Y-110774580D02*
X140551064Y-110822200D01*
X140551064Y-110822200D02*
X140455826Y-110869819D01*
X140455826Y-110869819D02*
X140312969Y-110869819D01*
X141217731Y-110869819D02*
X141122493Y-110822200D01*
X141122493Y-110822200D02*
X141074874Y-110726961D01*
X141074874Y-110726961D02*
X141074874Y-109869819D01*
X141598684Y-110869819D02*
X141598684Y-110203152D01*
X141598684Y-109869819D02*
X141551065Y-109917438D01*
X141551065Y-109917438D02*
X141598684Y-109965057D01*
X141598684Y-109965057D02*
X141646303Y-109917438D01*
X141646303Y-109917438D02*
X141598684Y-109869819D01*
X141598684Y-109869819D02*
X141598684Y-109965057D01*
X143312969Y-110869819D02*
X142836779Y-110869819D01*
X142836779Y-110869819D02*
X142836779Y-109869819D01*
X143646303Y-110869819D02*
X143646303Y-110203152D01*
X143646303Y-109869819D02*
X143598684Y-109917438D01*
X143598684Y-109917438D02*
X143646303Y-109965057D01*
X143646303Y-109965057D02*
X143693922Y-109917438D01*
X143693922Y-109917438D02*
X143646303Y-109869819D01*
X143646303Y-109869819D02*
X143646303Y-109965057D01*
X144122493Y-110203152D02*
X144122493Y-110869819D01*
X144122493Y-110298390D02*
X144170112Y-110250771D01*
X144170112Y-110250771D02*
X144265350Y-110203152D01*
X144265350Y-110203152D02*
X144408207Y-110203152D01*
X144408207Y-110203152D02*
X144503445Y-110250771D01*
X144503445Y-110250771D02*
X144551064Y-110346009D01*
X144551064Y-110346009D02*
X144551064Y-110869819D01*
X145408207Y-110822200D02*
X145312969Y-110869819D01*
X145312969Y-110869819D02*
X145122493Y-110869819D01*
X145122493Y-110869819D02*
X145027255Y-110822200D01*
X145027255Y-110822200D02*
X144979636Y-110726961D01*
X144979636Y-110726961D02*
X144979636Y-110346009D01*
X144979636Y-110346009D02*
X145027255Y-110250771D01*
X145027255Y-110250771D02*
X145122493Y-110203152D01*
X145122493Y-110203152D02*
X145312969Y-110203152D01*
X145312969Y-110203152D02*
X145408207Y-110250771D01*
X145408207Y-110250771D02*
X145455826Y-110346009D01*
X145455826Y-110346009D02*
X145455826Y-110441247D01*
X145455826Y-110441247D02*
X144979636Y-110536485D01*
X146979636Y-110346009D02*
X146646303Y-110346009D01*
X146646303Y-110869819D02*
X146646303Y-109869819D01*
X146646303Y-109869819D02*
X147122493Y-109869819D01*
X147646303Y-110869819D02*
X147551065Y-110822200D01*
X147551065Y-110822200D02*
X147503446Y-110774580D01*
X147503446Y-110774580D02*
X147455827Y-110679342D01*
X147455827Y-110679342D02*
X147455827Y-110393628D01*
X147455827Y-110393628D02*
X147503446Y-110298390D01*
X147503446Y-110298390D02*
X147551065Y-110250771D01*
X147551065Y-110250771D02*
X147646303Y-110203152D01*
X147646303Y-110203152D02*
X147789160Y-110203152D01*
X147789160Y-110203152D02*
X147884398Y-110250771D01*
X147884398Y-110250771D02*
X147932017Y-110298390D01*
X147932017Y-110298390D02*
X147979636Y-110393628D01*
X147979636Y-110393628D02*
X147979636Y-110679342D01*
X147979636Y-110679342D02*
X147932017Y-110774580D01*
X147932017Y-110774580D02*
X147884398Y-110822200D01*
X147884398Y-110822200D02*
X147789160Y-110869819D01*
X147789160Y-110869819D02*
X147646303Y-110869819D01*
X148551065Y-110869819D02*
X148455827Y-110822200D01*
X148455827Y-110822200D02*
X148408208Y-110726961D01*
X148408208Y-110726961D02*
X148408208Y-109869819D01*
X149074875Y-110869819D02*
X148979637Y-110822200D01*
X148979637Y-110822200D02*
X148932018Y-110726961D01*
X148932018Y-110726961D02*
X148932018Y-109869819D01*
X149598685Y-110869819D02*
X149503447Y-110822200D01*
X149503447Y-110822200D02*
X149455828Y-110774580D01*
X149455828Y-110774580D02*
X149408209Y-110679342D01*
X149408209Y-110679342D02*
X149408209Y-110393628D01*
X149408209Y-110393628D02*
X149455828Y-110298390D01*
X149455828Y-110298390D02*
X149503447Y-110250771D01*
X149503447Y-110250771D02*
X149598685Y-110203152D01*
X149598685Y-110203152D02*
X149741542Y-110203152D01*
X149741542Y-110203152D02*
X149836780Y-110250771D01*
X149836780Y-110250771D02*
X149884399Y-110298390D01*
X149884399Y-110298390D02*
X149932018Y-110393628D01*
X149932018Y-110393628D02*
X149932018Y-110679342D01*
X149932018Y-110679342D02*
X149884399Y-110774580D01*
X149884399Y-110774580D02*
X149836780Y-110822200D01*
X149836780Y-110822200D02*
X149741542Y-110869819D01*
X149741542Y-110869819D02*
X149598685Y-110869819D01*
X150265352Y-110203152D02*
X150455828Y-110869819D01*
X150455828Y-110869819D02*
X150646304Y-110393628D01*
X150646304Y-110393628D02*
X150836780Y-110869819D01*
X150836780Y-110869819D02*
X151027256Y-110203152D01*
X151789161Y-110822200D02*
X151693923Y-110869819D01*
X151693923Y-110869819D02*
X151503447Y-110869819D01*
X151503447Y-110869819D02*
X151408209Y-110822200D01*
X151408209Y-110822200D02*
X151360590Y-110726961D01*
X151360590Y-110726961D02*
X151360590Y-110346009D01*
X151360590Y-110346009D02*
X151408209Y-110250771D01*
X151408209Y-110250771D02*
X151503447Y-110203152D01*
X151503447Y-110203152D02*
X151693923Y-110203152D01*
X151693923Y-110203152D02*
X151789161Y-110250771D01*
X151789161Y-110250771D02*
X151836780Y-110346009D01*
X151836780Y-110346009D02*
X151836780Y-110441247D01*
X151836780Y-110441247D02*
X151360590Y-110536485D01*
X152265352Y-110869819D02*
X152265352Y-110203152D01*
X152265352Y-110393628D02*
X152312971Y-110298390D01*
X152312971Y-110298390D02*
X152360590Y-110250771D01*
X152360590Y-110250771D02*
X152455828Y-110203152D01*
X152455828Y-110203152D02*
X152551066Y-110203152D01*
X152836781Y-110822200D02*
X152932019Y-110869819D01*
X152932019Y-110869819D02*
X153122495Y-110869819D01*
X153122495Y-110869819D02*
X153217733Y-110822200D01*
X153217733Y-110822200D02*
X153265352Y-110726961D01*
X153265352Y-110726961D02*
X153265352Y-110679342D01*
X153265352Y-110679342D02*
X153217733Y-110584104D01*
X153217733Y-110584104D02*
X153122495Y-110536485D01*
X153122495Y-110536485D02*
X152979638Y-110536485D01*
X152979638Y-110536485D02*
X152884400Y-110488866D01*
X152884400Y-110488866D02*
X152836781Y-110393628D01*
X152836781Y-110393628D02*
X152836781Y-110346009D01*
X152836781Y-110346009D02*
X152884400Y-110250771D01*
X152884400Y-110250771D02*
X152979638Y-110203152D01*
X152979638Y-110203152D02*
X153122495Y-110203152D01*
X153122495Y-110203152D02*
X153217733Y-110250771D01*
X90238095Y-113304819D02*
X90238095Y-112304819D01*
X90238095Y-112781009D02*
X90809523Y-112781009D01*
X90809523Y-113304819D02*
X90809523Y-112304819D01*
X91761904Y-112304819D02*
X91285714Y-112304819D01*
X91285714Y-112304819D02*
X91238095Y-112781009D01*
X91238095Y-112781009D02*
X91285714Y-112733390D01*
X91285714Y-112733390D02*
X91380952Y-112685771D01*
X91380952Y-112685771D02*
X91619047Y-112685771D01*
X91619047Y-112685771D02*
X91714285Y-112733390D01*
X91714285Y-112733390D02*
X91761904Y-112781009D01*
X91761904Y-112781009D02*
X91809523Y-112876247D01*
X91809523Y-112876247D02*
X91809523Y-113114342D01*
X91809523Y-113114342D02*
X91761904Y-113209580D01*
X91761904Y-113209580D02*
X91714285Y-113257200D01*
X91714285Y-113257200D02*
X91619047Y-113304819D01*
X91619047Y-113304819D02*
X91380952Y-113304819D01*
X91380952Y-113304819D02*
X91285714Y-113257200D01*
X91285714Y-113257200D02*
X91238095Y-113209580D01*
X121454819Y-109541904D02*
X122264342Y-109541904D01*
X122264342Y-109541904D02*
X122359580Y-109494285D01*
X122359580Y-109494285D02*
X122407200Y-109446666D01*
X122407200Y-109446666D02*
X122454819Y-109351428D01*
X122454819Y-109351428D02*
X122454819Y-109160952D01*
X122454819Y-109160952D02*
X122407200Y-109065714D01*
X122407200Y-109065714D02*
X122359580Y-109018095D01*
X122359580Y-109018095D02*
X122264342Y-108970476D01*
X122264342Y-108970476D02*
X121454819Y-108970476D01*
X121550057Y-108541904D02*
X121502438Y-108494285D01*
X121502438Y-108494285D02*
X121454819Y-108399047D01*
X121454819Y-108399047D02*
X121454819Y-108160952D01*
X121454819Y-108160952D02*
X121502438Y-108065714D01*
X121502438Y-108065714D02*
X121550057Y-108018095D01*
X121550057Y-108018095D02*
X121645295Y-107970476D01*
X121645295Y-107970476D02*
X121740533Y-107970476D01*
X121740533Y-107970476D02*
X121883390Y-108018095D01*
X121883390Y-108018095D02*
X122454819Y-108589523D01*
X122454819Y-108589523D02*
X122454819Y-107970476D01*
X87761905Y-74454819D02*
X87761905Y-73454819D01*
X87761905Y-73454819D02*
X88000000Y-73454819D01*
X88000000Y-73454819D02*
X88142857Y-73502438D01*
X88142857Y-73502438D02*
X88238095Y-73597676D01*
X88238095Y-73597676D02*
X88285714Y-73692914D01*
X88285714Y-73692914D02*
X88333333Y-73883390D01*
X88333333Y-73883390D02*
X88333333Y-74026247D01*
X88333333Y-74026247D02*
X88285714Y-74216723D01*
X88285714Y-74216723D02*
X88238095Y-74311961D01*
X88238095Y-74311961D02*
X88142857Y-74407200D01*
X88142857Y-74407200D02*
X88000000Y-74454819D01*
X88000000Y-74454819D02*
X87761905Y-74454819D01*
X89285714Y-74454819D02*
X88714286Y-74454819D01*
X89000000Y-74454819D02*
X89000000Y-73454819D01*
X89000000Y-73454819D02*
X88904762Y-73597676D01*
X88904762Y-73597676D02*
X88809524Y-73692914D01*
X88809524Y-73692914D02*
X88714286Y-73740533D01*
X87761905Y-80954819D02*
X87761905Y-79954819D01*
X87761905Y-79954819D02*
X88000000Y-79954819D01*
X88000000Y-79954819D02*
X88142857Y-80002438D01*
X88142857Y-80002438D02*
X88238095Y-80097676D01*
X88238095Y-80097676D02*
X88285714Y-80192914D01*
X88285714Y-80192914D02*
X88333333Y-80383390D01*
X88333333Y-80383390D02*
X88333333Y-80526247D01*
X88333333Y-80526247D02*
X88285714Y-80716723D01*
X88285714Y-80716723D02*
X88238095Y-80811961D01*
X88238095Y-80811961D02*
X88142857Y-80907200D01*
X88142857Y-80907200D02*
X88000000Y-80954819D01*
X88000000Y-80954819D02*
X87761905Y-80954819D01*
X88714286Y-80050057D02*
X88761905Y-80002438D01*
X88761905Y-80002438D02*
X88857143Y-79954819D01*
X88857143Y-79954819D02*
X89095238Y-79954819D01*
X89095238Y-79954819D02*
X89190476Y-80002438D01*
X89190476Y-80002438D02*
X89238095Y-80050057D01*
X89238095Y-80050057D02*
X89285714Y-80145295D01*
X89285714Y-80145295D02*
X89285714Y-80240533D01*
X89285714Y-80240533D02*
X89238095Y-80383390D01*
X89238095Y-80383390D02*
X88666667Y-80954819D01*
X88666667Y-80954819D02*
X89285714Y-80954819D01*
X92916667Y-92407200D02*
X93059524Y-92454819D01*
X93059524Y-92454819D02*
X93297619Y-92454819D01*
X93297619Y-92454819D02*
X93392857Y-92407200D01*
X93392857Y-92407200D02*
X93440476Y-92359580D01*
X93440476Y-92359580D02*
X93488095Y-92264342D01*
X93488095Y-92264342D02*
X93488095Y-92169104D01*
X93488095Y-92169104D02*
X93440476Y-92073866D01*
X93440476Y-92073866D02*
X93392857Y-92026247D01*
X93392857Y-92026247D02*
X93297619Y-91978628D01*
X93297619Y-91978628D02*
X93107143Y-91931009D01*
X93107143Y-91931009D02*
X93011905Y-91883390D01*
X93011905Y-91883390D02*
X92964286Y-91835771D01*
X92964286Y-91835771D02*
X92916667Y-91740533D01*
X92916667Y-91740533D02*
X92916667Y-91645295D01*
X92916667Y-91645295D02*
X92964286Y-91550057D01*
X92964286Y-91550057D02*
X93011905Y-91502438D01*
X93011905Y-91502438D02*
X93107143Y-91454819D01*
X93107143Y-91454819D02*
X93345238Y-91454819D01*
X93345238Y-91454819D02*
X93488095Y-91502438D01*
X93821429Y-91454819D02*
X94059524Y-92454819D01*
X94059524Y-92454819D02*
X94250000Y-91740533D01*
X94250000Y-91740533D02*
X94440476Y-92454819D01*
X94440476Y-92454819D02*
X94678572Y-91454819D01*
X95583333Y-92454819D02*
X95011905Y-92454819D01*
X95297619Y-92454819D02*
X95297619Y-91454819D01*
X95297619Y-91454819D02*
X95202381Y-91597676D01*
X95202381Y-91597676D02*
X95107143Y-91692914D01*
X95107143Y-91692914D02*
X95011905Y-91740533D01*
X150324819Y-85356666D02*
X149848628Y-85689999D01*
X150324819Y-85928094D02*
X149324819Y-85928094D01*
X149324819Y-85928094D02*
X149324819Y-85547142D01*
X149324819Y-85547142D02*
X149372438Y-85451904D01*
X149372438Y-85451904D02*
X149420057Y-85404285D01*
X149420057Y-85404285D02*
X149515295Y-85356666D01*
X149515295Y-85356666D02*
X149658152Y-85356666D01*
X149658152Y-85356666D02*
X149753390Y-85404285D01*
X149753390Y-85404285D02*
X149801009Y-85451904D01*
X149801009Y-85451904D02*
X149848628Y-85547142D01*
X149848628Y-85547142D02*
X149848628Y-85928094D01*
X150324819Y-84404285D02*
X150324819Y-84975713D01*
X150324819Y-84689999D02*
X149324819Y-84689999D01*
X149324819Y-84689999D02*
X149467676Y-84785237D01*
X149467676Y-84785237D02*
X149562914Y-84880475D01*
X149562914Y-84880475D02*
X149610533Y-84975713D01*
X101374819Y-95309523D02*
X100374819Y-95309523D01*
X100374819Y-95309523D02*
X101089104Y-94976190D01*
X101089104Y-94976190D02*
X100374819Y-94642857D01*
X100374819Y-94642857D02*
X101374819Y-94642857D01*
X100470057Y-94214285D02*
X100422438Y-94166666D01*
X100422438Y-94166666D02*
X100374819Y-94071428D01*
X100374819Y-94071428D02*
X100374819Y-93833333D01*
X100374819Y-93833333D02*
X100422438Y-93738095D01*
X100422438Y-93738095D02*
X100470057Y-93690476D01*
X100470057Y-93690476D02*
X100565295Y-93642857D01*
X100565295Y-93642857D02*
X100660533Y-93642857D01*
X100660533Y-93642857D02*
X100803390Y-93690476D01*
X100803390Y-93690476D02*
X101374819Y-94261904D01*
X101374819Y-94261904D02*
X101374819Y-93642857D01*
X153834819Y-95809523D02*
X152834819Y-95809523D01*
X152834819Y-95809523D02*
X153549104Y-95476190D01*
X153549104Y-95476190D02*
X152834819Y-95142857D01*
X152834819Y-95142857D02*
X153834819Y-95142857D01*
X153834819Y-94142857D02*
X153834819Y-94714285D01*
X153834819Y-94428571D02*
X152834819Y-94428571D01*
X152834819Y-94428571D02*
X152977676Y-94523809D01*
X152977676Y-94523809D02*
X153072914Y-94619047D01*
X153072914Y-94619047D02*
X153120533Y-94714285D01*
X154166666Y-78454819D02*
X154166666Y-79169104D01*
X154166666Y-79169104D02*
X154119047Y-79311961D01*
X154119047Y-79311961D02*
X154023809Y-79407200D01*
X154023809Y-79407200D02*
X153880952Y-79454819D01*
X153880952Y-79454819D02*
X153785714Y-79454819D01*
X155119047Y-78454819D02*
X154642857Y-78454819D01*
X154642857Y-78454819D02*
X154595238Y-78931009D01*
X154595238Y-78931009D02*
X154642857Y-78883390D01*
X154642857Y-78883390D02*
X154738095Y-78835771D01*
X154738095Y-78835771D02*
X154976190Y-78835771D01*
X154976190Y-78835771D02*
X155071428Y-78883390D01*
X155071428Y-78883390D02*
X155119047Y-78931009D01*
X155119047Y-78931009D02*
X155166666Y-79026247D01*
X155166666Y-79026247D02*
X155166666Y-79264342D01*
X155166666Y-79264342D02*
X155119047Y-79359580D01*
X155119047Y-79359580D02*
X155071428Y-79407200D01*
X155071428Y-79407200D02*
X154976190Y-79454819D01*
X154976190Y-79454819D02*
X154738095Y-79454819D01*
X154738095Y-79454819D02*
X154642857Y-79407200D01*
X154642857Y-79407200D02*
X154595238Y-79359580D01*
X149034819Y-75833333D02*
X149749104Y-75833333D01*
X149749104Y-75833333D02*
X149891961Y-75880952D01*
X149891961Y-75880952D02*
X149987200Y-75976190D01*
X149987200Y-75976190D02*
X150034819Y-76119047D01*
X150034819Y-76119047D02*
X150034819Y-76214285D01*
X149368152Y-74928571D02*
X150034819Y-74928571D01*
X148987200Y-75166666D02*
X149701485Y-75404761D01*
X149701485Y-75404761D02*
X149701485Y-74785714D01*
X138034819Y-74333333D02*
X138749104Y-74333333D01*
X138749104Y-74333333D02*
X138891961Y-74380952D01*
X138891961Y-74380952D02*
X138987200Y-74476190D01*
X138987200Y-74476190D02*
X139034819Y-74619047D01*
X139034819Y-74619047D02*
X139034819Y-74714285D01*
X138034819Y-73952380D02*
X138034819Y-73333333D01*
X138034819Y-73333333D02*
X138415771Y-73666666D01*
X138415771Y-73666666D02*
X138415771Y-73523809D01*
X138415771Y-73523809D02*
X138463390Y-73428571D01*
X138463390Y-73428571D02*
X138511009Y-73380952D01*
X138511009Y-73380952D02*
X138606247Y-73333333D01*
X138606247Y-73333333D02*
X138844342Y-73333333D01*
X138844342Y-73333333D02*
X138939580Y-73380952D01*
X138939580Y-73380952D02*
X138987200Y-73428571D01*
X138987200Y-73428571D02*
X139034819Y-73523809D01*
X139034819Y-73523809D02*
X139034819Y-73809523D01*
X139034819Y-73809523D02*
X138987200Y-73904761D01*
X138987200Y-73904761D02*
X138939580Y-73952380D01*
X155238095Y-95304819D02*
X155238095Y-94304819D01*
X155238095Y-94781009D02*
X155809523Y-94781009D01*
X155809523Y-95304819D02*
X155809523Y-94304819D01*
X156190476Y-94304819D02*
X156809523Y-94304819D01*
X156809523Y-94304819D02*
X156476190Y-94685771D01*
X156476190Y-94685771D02*
X156619047Y-94685771D01*
X156619047Y-94685771D02*
X156714285Y-94733390D01*
X156714285Y-94733390D02*
X156761904Y-94781009D01*
X156761904Y-94781009D02*
X156809523Y-94876247D01*
X156809523Y-94876247D02*
X156809523Y-95114342D01*
X156809523Y-95114342D02*
X156761904Y-95209580D01*
X156761904Y-95209580D02*
X156714285Y-95257200D01*
X156714285Y-95257200D02*
X156619047Y-95304819D01*
X156619047Y-95304819D02*
X156333333Y-95304819D01*
X156333333Y-95304819D02*
X156238095Y-95257200D01*
X156238095Y-95257200D02*
X156190476Y-95209580D01*
X155238095Y-113304819D02*
X155238095Y-112304819D01*
X155238095Y-112781009D02*
X155809523Y-112781009D01*
X155809523Y-113304819D02*
X155809523Y-112304819D01*
X156714285Y-112638152D02*
X156714285Y-113304819D01*
X156476190Y-112257200D02*
X156238095Y-112971485D01*
X156238095Y-112971485D02*
X156857142Y-112971485D01*
X90238095Y-95304819D02*
X90238095Y-94304819D01*
X90238095Y-94781009D02*
X90809523Y-94781009D01*
X90809523Y-95304819D02*
X90809523Y-94304819D01*
X91714285Y-94304819D02*
X91523809Y-94304819D01*
X91523809Y-94304819D02*
X91428571Y-94352438D01*
X91428571Y-94352438D02*
X91380952Y-94400057D01*
X91380952Y-94400057D02*
X91285714Y-94542914D01*
X91285714Y-94542914D02*
X91238095Y-94733390D01*
X91238095Y-94733390D02*
X91238095Y-95114342D01*
X91238095Y-95114342D02*
X91285714Y-95209580D01*
X91285714Y-95209580D02*
X91333333Y-95257200D01*
X91333333Y-95257200D02*
X91428571Y-95304819D01*
X91428571Y-95304819D02*
X91619047Y-95304819D01*
X91619047Y-95304819D02*
X91714285Y-95257200D01*
X91714285Y-95257200D02*
X91761904Y-95209580D01*
X91761904Y-95209580D02*
X91809523Y-95114342D01*
X91809523Y-95114342D02*
X91809523Y-94876247D01*
X91809523Y-94876247D02*
X91761904Y-94781009D01*
X91761904Y-94781009D02*
X91714285Y-94733390D01*
X91714285Y-94733390D02*
X91619047Y-94685771D01*
X91619047Y-94685771D02*
X91428571Y-94685771D01*
X91428571Y-94685771D02*
X91333333Y-94733390D01*
X91333333Y-94733390D02*
X91285714Y-94781009D01*
X91285714Y-94781009D02*
X91238095Y-94876247D01*
X142738095Y-70304819D02*
X142738095Y-69304819D01*
X142738095Y-69781009D02*
X143309523Y-69781009D01*
X143309523Y-70304819D02*
X143309523Y-69304819D01*
X143738095Y-69400057D02*
X143785714Y-69352438D01*
X143785714Y-69352438D02*
X143880952Y-69304819D01*
X143880952Y-69304819D02*
X144119047Y-69304819D01*
X144119047Y-69304819D02*
X144214285Y-69352438D01*
X144214285Y-69352438D02*
X144261904Y-69400057D01*
X144261904Y-69400057D02*
X144309523Y-69495295D01*
X144309523Y-69495295D02*
X144309523Y-69590533D01*
X144309523Y-69590533D02*
X144261904Y-69733390D01*
X144261904Y-69733390D02*
X143690476Y-70304819D01*
X143690476Y-70304819D02*
X144309523Y-70304819D01*
X102738095Y-70304819D02*
X102738095Y-69304819D01*
X102738095Y-69781009D02*
X103309523Y-69781009D01*
X103309523Y-70304819D02*
X103309523Y-69304819D01*
X104309523Y-70304819D02*
X103738095Y-70304819D01*
X104023809Y-70304819D02*
X104023809Y-69304819D01*
X104023809Y-69304819D02*
X103928571Y-69447676D01*
X103928571Y-69447676D02*
X103833333Y-69542914D01*
X103833333Y-69542914D02*
X103738095Y-69590533D01*
%TO.C,U2*%
D13*
X130770000Y-119050000D02*
X132040000Y-119050000D01*
X112990000Y-119050000D02*
X111720000Y-119050000D01*
X130770000Y-98730000D02*
X132040000Y-98730000D01*
X112990000Y-98730000D02*
X111720000Y-98730000D01*
X115380000Y-98730000D02*
X128380000Y-98730000D01*
X115380000Y-119050000D02*
X128380000Y-119050000D01*
D14*
X114360000Y-98161800D02*
G75*
G02*
X114160000Y-98161800I-100000J0D01*
G01*
X114160000Y-98161800D02*
G75*
G02*
X114360000Y-98161800I100000J0D01*
G01*
D13*
X132040000Y-119050000D02*
X132040000Y-98730000D01*
X111720000Y-98730000D02*
X111720000Y-119050000D01*
%TO.C,D1*%
D15*
X90210000Y-72455000D02*
X90210000Y-75545000D01*
X90210000Y-72455170D02*
G75*
G02*
X95760000Y-74000000I2560000J-1544830D01*
G01*
X95760000Y-74000000D02*
G75*
G02*
X90210000Y-75544830I-2990000J0D01*
G01*
X95270000Y-74000000D02*
G75*
G02*
X90270000Y-74000000I-2500000J0D01*
G01*
X90270000Y-74000000D02*
G75*
G02*
X95270000Y-74000000I2500000J0D01*
G01*
%TO.C,D2*%
X90210000Y-78955000D02*
X90210000Y-82045000D01*
X90210000Y-78955170D02*
G75*
G02*
X95760000Y-80500000I2560000J-1544830D01*
G01*
X95760000Y-80500000D02*
G75*
G02*
X90210000Y-82044830I-2990000J0D01*
G01*
X95270000Y-80500000D02*
G75*
G02*
X90270000Y-80500000I-2500000J0D01*
G01*
X90270000Y-80500000D02*
G75*
G02*
X95270000Y-80500000I2500000J0D01*
G01*
%TO.C,SW1*%
X97750000Y-88500000D02*
X97750000Y-87000000D01*
X96500000Y-84500000D02*
X92000000Y-84500000D01*
X92000000Y-91000000D02*
X96500000Y-91000000D01*
X90750000Y-87000000D02*
X90750000Y-88500000D01*
%TO.C,R1*%
X148870000Y-81920000D02*
X148870000Y-88460000D01*
X148540000Y-81920000D02*
X148870000Y-81920000D01*
X146460000Y-81920000D02*
X146130000Y-81920000D01*
X146130000Y-81920000D02*
X146130000Y-88460000D01*
X148870000Y-88460000D02*
X148540000Y-88460000D01*
X146130000Y-88460000D02*
X146460000Y-88460000D01*
%TO.C,M2*%
X99920000Y-93120000D02*
X99920000Y-94500000D01*
X98540000Y-93120000D02*
X99920000Y-93120000D01*
X97270000Y-93120000D02*
X94620000Y-93120000D01*
X97270000Y-93120000D02*
X97270000Y-95880000D01*
X94620000Y-93120000D02*
X94620000Y-95880000D01*
X97270000Y-95880000D02*
X94620000Y-95880000D01*
%TO.C,M1*%
X152380000Y-93620000D02*
X152380000Y-95000000D01*
X151000000Y-93620000D02*
X152380000Y-93620000D01*
X149730000Y-93620000D02*
X147080000Y-93620000D01*
X149730000Y-93620000D02*
X149730000Y-96380000D01*
X147080000Y-93620000D02*
X147080000Y-96380000D01*
X149730000Y-96380000D02*
X147080000Y-96380000D01*
%TO.C,J5*%
X153120000Y-80120000D02*
X154500000Y-80120000D01*
X153120000Y-81500000D02*
X153120000Y-80120000D01*
X153120000Y-82770000D02*
X153120000Y-87960000D01*
X153120000Y-82770000D02*
X155880000Y-82770000D01*
X153120000Y-87960000D02*
X155880000Y-87960000D01*
X155880000Y-82770000D02*
X155880000Y-87960000D01*
%TO.C,J4*%
X150580000Y-76880000D02*
X150580000Y-75500000D01*
X151960000Y-76880000D02*
X150580000Y-76880000D01*
X153230000Y-76880000D02*
X155880000Y-76880000D01*
X153230000Y-76880000D02*
X153230000Y-74120000D01*
X155880000Y-76880000D02*
X155880000Y-74120000D01*
X153230000Y-74120000D02*
X155880000Y-74120000D01*
%TO.C,J3*%
X137580000Y-72620000D02*
X137580000Y-74000000D01*
X136200000Y-72620000D02*
X137580000Y-72620000D01*
X134930000Y-72620000D02*
X109420000Y-72620000D01*
X134930000Y-72620000D02*
X134930000Y-75380000D01*
X109420000Y-72620000D02*
X109420000Y-75380000D01*
X134930000Y-75380000D02*
X109420000Y-75380000D01*
%TD*%
M02*
