M48
; DRILL file KiCad 10.0.3 date 2026-06-02T02:06:45
; FORMAT={-:-/ absolute / metric / decimal}
; #@! TF.CreationDate,2026-06-02T02:06:45-06:00
; #@! TF.GenerationSoftware,Kicad,Pcbnew,10.0.3
; #@! TF.FileFunction,Plated,1,2,PTH
FMAT,2
METRIC
; #@! TA.AperFunction,Plated,PTH,ViaDrill
T1C0.400
; #@! TA.AperFunction,Plated,PTH,ComponentDrill
T2C0.800
; #@! TA.AperFunction,Plated,PTH,ComponentDrill
T3C0.900
; #@! TA.AperFunction,Plated,PTH,ComponentDrill
T4C1.000
; #@! TA.AperFunction,Plated,PTH,ComponentDrill
T5C1.100
; #@! TA.AperFunction,Plated,PTH,ComponentDrill
T6C1.320
%
G90
G05
T1
X117.802Y-96.5
T2
X147.5Y-81.38
X147.5Y-89.0
T3
X91.5Y-74.0
X91.5Y-80.5
X94.04Y-74.0
X94.04Y-80.5
T4
X96.0Y-94.5
X98.54Y-94.5
X103.88Y-79.76
X103.88Y-95.0
X106.42Y-79.76
X106.42Y-95.0
X108.96Y-79.76
X108.96Y-95.0
X110.8Y-74.0
X111.5Y-79.76
X111.5Y-95.0
X113.34Y-74.0
X114.04Y-79.76
X114.04Y-95.0
X115.88Y-74.0
X116.58Y-79.76
X116.58Y-95.0
X118.42Y-74.0
X119.12Y-79.76
X119.12Y-95.0
X120.96Y-74.0
X121.66Y-79.76
X121.66Y-95.0
X123.5Y-74.0
X124.2Y-79.76
X124.2Y-95.0
X126.04Y-74.0
X126.74Y-79.76
X126.74Y-95.0
X128.58Y-74.0
X129.28Y-79.76
X129.28Y-95.0
X131.12Y-74.0
X131.82Y-79.76
X131.82Y-95.0
X133.66Y-74.0
X134.36Y-79.76
X134.36Y-95.0
X136.2Y-74.0
X136.9Y-79.76
X136.9Y-95.0
X139.44Y-79.76
X139.44Y-95.0
X148.46Y-95.0
X151.0Y-95.0
X151.96Y-75.5
X154.5Y-75.5
X154.5Y-81.5
X154.5Y-84.04
X154.5Y-86.58
T5
X91.0Y-85.5
X91.0Y-90.0
X97.5Y-85.5
X97.5Y-90.0
T6
X114.26Y-100.0
X114.26Y-102.54
X114.26Y-105.08
X114.26Y-107.62
X114.26Y-110.16
X114.26Y-112.7
X114.26Y-115.24
X114.26Y-117.78
X129.5Y-100.0
X129.5Y-102.54
X129.5Y-105.08
X129.5Y-107.62
X129.5Y-110.16
X129.5Y-112.7
X129.5Y-115.24
X129.5Y-117.78
M30
